<svg id="1494b9ff-ff6e-4e45-9141-aec14bfddae4" data-name="Layer 1" xmlns="http://www.w3.org/2000/svg" viewBox="0 0 82.27 65.65"><defs><style>.\34 0b84522-29d1-432d-abc6-6635fc46ed96{opacity:0.68;}.\35 4ee65a8-0e49-4b23-a8f4-544224d875af{fill:#f4f2f2;stroke:#999;stroke-width:0.25px;}.\34 6734f74-4dfb-4b6d-8594-5789f46ade50,.\35 186b589-ea50-4dd3-8605-d7a2adff537a,.\35 1c84e8b-7806-471e-8d31-298efc9f3ed7,.\35 4ee65a8-0e49-4b23-a8f4-544224d875af,.b4ec8fa4-4ecf-4b2f-92c7-657913587dfd,.d18760b9-27da-46ec-bdb9-a2bf0e4f57d4,.fd45bb4b-b051-467e-9205-11f7c43346dc{stroke-miterlimit:10;}.\34 6734f74-4dfb-4b6d-8594-5789f46ade50,.\35 1c84e8b-7806-471e-8d31-298efc9f3ed7,.fd45bb4b-b051-467e-9205-11f7c43346dc{isolation:isolate;}.fd45bb4b-b051-467e-9205-11f7c43346dc{font-size:23.58px;}.\34 6734f74-4dfb-4b6d-8594-5789f46ade50,.\35 1c84e8b-7806-471e-8d31-298efc9f3ed7,.b4ec8fa4-4ecf-4b2f-92c7-657913587dfd,.d18760b9-27da-46ec-bdb9-a2bf0e4f57d4,.fd45bb4b-b051-467e-9205-11f7c43346dc{fill:#f2f2f2;stroke:#f2f2f2;}.\35 1c84e8b-7806-471e-8d31-298efc9f3ed7,.fd45bb4b-b051-467e-9205-11f7c43346dc{font-family:ArialMT, Arial;}.\35 1c84e8b-7806-471e-8d31-298efc9f3ed7{font-size:23.58px;letter-spacing:-0.02em;}.\35 186b589-ea50-4dd3-8605-d7a2adff537a{fill:#fff;stroke:#fffdfd;}.b4ec8fa4-4ecf-4b2f-92c7-657913587dfd,.d18760b9-27da-46ec-bdb9-a2bf0e4f57d4{stroke-width:0.75px;}.b4ec8fa4-4ecf-4b2f-92c7-657913587dfd{font-size:23.92px;font-family:Raleway, Raleway;}.\34 6734f74-4dfb-4b6d-8594-5789f46ade50{font-size:10.72px;font-family:Seravek-ExtraLight, Seravek;letter-spacing:0.35em;}.\33 98dd5de-c81f-4da0-ba6c-810951d22dbf{letter-spacing:0.35em;}</style></defs><title>logo3</title><g class="40b84522-29d1-432d-abc6-6635fc46ed96"><path class="54ee65a8-0e49-4b23-a8f4-544224d875af" d="M45.1,73.93V71.7c0-.09.08-.17.08-.34a19.74,19.74,0,0,1,2.49-8.68,24.86,24.86,0,0,1,4.12-5.39,12.82,12.82,0,0,0-2.16,1.8A22.8,22.8,0,0,0,45,77.26,19.63,19.63,0,0,1,45.1,73.93Z" transform="translate(-24.23 -27.45)"/><path class="54ee65a8-0e49-4b23-a8f4-544224d875af" d="M86.41,75.56c.08,0,.08,0,.17-.09.17-.34.41-.6.58-.94a.45.45,0,0,1,.33-.26,19.08,19.08,0,0,1-1.33,5.3l.4,0a5.52,5.52,0,0,1,.93.08,4.67,4.67,0,0,1,1.43-.47,27.86,27.86,0,0,0,.43-4.59A24.91,24.91,0,0,0,87,63.93a23.36,23.36,0,0,0-9.43-10.26,20.1,20.1,0,0,0-5.84-2,19.22,19.22,0,0,0-2.28-.47,23.45,23.45,0,0,0-13,2.42,24,24,0,0,0-4.66,3.7,53.28,53.28,0,0,1,7.65-4.4.31.31,0,0,1,.5.34v.09a.67.67,0,0,1-.5.77.08.08,0,0,1-.08.09l-.5.26c-.08.09,0,.43,0,.6a.72.72,0,0,1-.58.69,3.65,3.65,0,0,0-.58.52c-.41.43-.41.43-.08.94a.51.51,0,0,0,.66.43c.17,0,.25.17.08.34a4.76,4.76,0,0,0-.5.69,4,4,0,0,0,.91-.34l1.08-1.12.08-.09A1.82,1.82,0,0,0,60.52,56a.43.43,0,0,1,.33-.17,1.73,1.73,0,0,0,.91-.17c0-.09.08-.09.08-.17,0-.34.08-.52.5-.6a2.89,2.89,0,0,0,.91-.17.67.67,0,0,0,.17-.43c0-.17.08-.26.17-.26.33,0,.75-.09,1.16-.09a.3.3,0,0,0,.25-.09c.25-.26.58-.17.91-.17a.08.08,0,0,1,.08.09c0,.43.33.52.75.94a4.85,4.85,0,0,0,1.58,0l.75-.26a6.2,6.2,0,0,1,1.24.17.82.82,0,0,0,.75-.17c.25-.34.17-.43.66-.09a8.2,8.2,0,0,0,1.41.94,1.13,1.13,0,0,1,.58.52c.08,0,.08.09.17.09S74,56,74,56s.17.26.08.43a.08.08,0,0,0,.08.09.65.65,0,0,0,.66-.09c.17-.09.17-.09.33,0a.45.45,0,0,1,.17.34c0,.09-.08.09-.17.09a2.64,2.64,0,0,0-1.08.34c-.17.17-.17.26-.08.34a2.27,2.27,0,0,0,1,.77,4.86,4.86,0,0,1,.66.34A1.82,1.82,0,0,1,77,59.76a1.72,1.72,0,0,0,1.41.77.08.08,0,0,0,.08-.09,1,1,0,0,1,.66-.52c.08,0,.08-.09.17-.09-1-.26-1.24-1.2-2.16-1.37a.08.08,0,0,1,.08-.09c.17-.17.33-.34.08-.52-.08,0-.08-.09,0-.09s.08-.09.17,0a4.5,4.5,0,0,0,1.24.69c.08,0,.08,0,.08.09a1.83,1.83,0,0,0,.58,1.2,2.16,2.16,0,0,1,.33,1c0,.17.08.34.08.52a1.15,1.15,0,0,0,.5.6,1.86,1.86,0,0,1,.66,1.46c0,.34-.08.69.08.86.08,0,.17.09.25.09a1,1,0,0,1,.5.09c.5.26.58.52.25.94a.08.08,0,0,0-.08.09c0,.09-.08.09-.08.17a.71.71,0,0,0,.33.86,1.25,1.25,0,0,1,.17.52c-.08.17,0,.26.08.26s.08,0,.25.09.33.26.58.09l.18-.13v0c0,.17,0,.26.08.34a3,3,0,0,1,.41,2.23,8.52,8.52,0,0,0,1,4.55A1.88,1.88,0,0,0,86.41,75.56Zm-1.58-12c-.17,0-.25-.09-.33-.09-.33-.09-.41.09-.41.34a4.32,4.32,0,0,0,0,1.46,1.12,1.12,0,0,1-.08.52.76.76,0,0,1-.5-.52l-.25-.52a1.77,1.77,0,0,1-.33-1.12,2.58,2.58,0,0,0-.17-.77c-.08-.17-.08-.34.17-.26h.33c.17.09.17-.09.25-.26s-.08-.17-.17-.26l-.58-.26c.08-.17.33-.26.66-.09h.08a.55.55,0,0,0,.5-.52.35.35,0,0,0-.17-.34,1,1,0,0,1-.5-1.12.76.76,0,0,0,0-.6,3.78,3.78,0,0,1,1,1.29,3.19,3.19,0,0,1,.17.94.27.27,0,0,1-.25.26c-.17,0-.17,0-.08.17a2.68,2.68,0,0,0,.33.52A1.58,1.58,0,0,1,84.83,63.54Z" transform="translate(-24.23 -27.45)"/><path class="54ee65a8-0e49-4b23-a8f4-544224d875af" d="M71.56,71.18a.49.49,0,0,1-.33.09c-.25,0-.33,0-.33-.26,0-.09,0-.09-.08-.17a.51.51,0,0,0-.5,0,.76.76,0,0,1-.5.34h-.08c-.08,0-.08,0,0-.09A2,2,0,0,1,71,70.32l.75-.26a.59.59,0,0,0,.25-.69,2.8,2.8,0,0,0-.91-1.29,6.35,6.35,0,0,1-.91-.69c-.25,0-.41-.09-.66-.09a.84.84,0,0,1-.66-.43.82.82,0,0,0-.75-.52c-.17,0-.58-.17-.66-.09s-.17.09-.17.26a6.73,6.73,0,0,1,.08,1.29c.41.43-.17.86-.08,1.37a2.46,2.46,0,0,1-.08.77c-.33-.17,0-.86-.1-1.12s-.73-.43-1-.52l-.66-.17a.55.55,0,0,1-.5-.69,2.7,2.7,0,0,1,.75-1.55,3.15,3.15,0,0,1,1.08-1,.87.87,0,0,0,.41-.52c.17-.26-.17-.34-.25-.52.41.17.83.17,1.08.69s-.17.86-.66,1.12a9.21,9.21,0,0,1,.91.17,5.6,5.6,0,0,0,.66.26.89.89,0,0,0,.66,0c.08,0,.08-.09.08-.17a1.12,1.12,0,0,1,.08-.52c.08-.17.33-.17.17-.34s-.25-.6-.5-.69a.49.49,0,0,1-.33-.09c-.25,0-.41-.26-.5-.52a.9.9,0,0,0-.5-.6,8.83,8.83,0,0,0-1.58-.69c-.33-.09-.41.17-.58.34s0,.26.08.34a.92.92,0,0,0,.66.69c-.25.09-.25.17-.58.17s-.5-.09-.5-.52c0-.17-.08-.43-.08-.52s0-.09-.17-.09-.25-.09-.25.09a1.12,1.12,0,0,1-.08.52.36.36,0,0,1-.33.34c-.17,0-.17-.26-.17-.43a2.46,2.46,0,0,0-.08-.77.9.9,0,0,0-.5-.6c-.25,0-.25-.26-.33-.34a.86.86,0,0,0-.91-.09.08.08,0,0,0-.08.09.18.18,0,0,0-.17.17c0,.17,0,.26.17.34a.46.46,0,0,1,.25.34.71.71,0,0,0,.33.52c.17.17.17.17.08.6-.66-.52-1.41-1.12-2-1.63l-.5-.52a1.73,1.73,0,0,1-.5-1.2,2.21,2.21,0,0,0-.08-.69.58.58,0,0,0-.5-.26,1.11,1.11,0,0,0-.91.09c-.17.09-.25,0-.33,0-.41-.17-.58-.09-.66.34s-.08.43-.5.34a.84.84,0,0,0-1,.52c-.08.17-.08.43-.17.52-.08.34-.25.34-.58.17l-.41-.26c0,.34,0,.6.58.69a13.46,13.46,0,0,1,1.33.52c.5.17.58.6.66,1.12a5.2,5.2,0,0,1-.33,2A7.47,7.47,0,0,0,57,67.75V68a.83.83,0,0,1-.17.94,6.58,6.58,0,0,0-1.16,2.83c-.08.69-.08,1.2-.17,1.8a2.21,2.21,0,0,0,.08.69,21,21,0,0,0,.91,3.26,1.37,1.37,0,0,0,1.08.94l-.5-.77c-.08-.52-.25-.94-.33-1.46,0-.09,0-.17.08-.17a.08.08,0,0,1,.08.09c.08.34.17.77.25,1.12a11.72,11.72,0,0,0,.58,1.55,4,4,0,0,1,.25.94v.17a.65.65,0,0,0,0,.11l.48,0a4.87,4.87,0,0,1,2.61-.7h.09A2.49,2.49,0,0,1,61.85,78a1.59,1.59,0,0,1,.91-.17,1.52,1.52,0,0,1,.66.17.86.86,0,0,0,.66-.09,1.64,1.64,0,0,1,1.74.52,3.57,3.57,0,0,0,.58.94c.17.26.25.09.41.09s.08-.17.08-.26a1.51,1.51,0,0,0-.08-.6,1.54,1.54,0,0,1,.5-1.72,8.71,8.71,0,0,0,.91-.69.62.62,0,0,0,.25-.52,2.76,2.76,0,0,1,.58-1.8l.08-.09c.5-.09.5-.77.75-1a.43.43,0,0,1,.66-.17c.08.09.17.09.17,0a5.35,5.35,0,0,1,1.08-.86c0-.09.17-.09.08-.26S71.81,71.1,71.56,71.18Z" transform="translate(-24.23 -27.45)"/><path class="54ee65a8-0e49-4b23-a8f4-544224d875af" d="M74.21,65.77a11.24,11.24,0,0,1-1.58.52c-.08,0-.17,0-.17-.09l-.91-.52c-.08-.09-.08-.09-.08-.17a.58.58,0,0,0-.33-.52c-.17-.09-.25-.17-.25-.34s-.08-.43-.08-.6a.68.68,0,0,0-.41-.69,7.49,7.49,0,0,0-1.66-1.2,1,1,0,0,1-.66-.94c0-.09-.08-.17-.08-.26-.33.26-.33.69-.5,1s-.08.34-.41.09c-.17-.09-.25-.17-.41-.26a.78.78,0,0,1-.17-.94.67.67,0,0,0,.08-.69c-.08-.09-.08-.09.08-.17a1.29,1.29,0,0,1,1.08-.26c.08,0,.08,0,.08.09a.29.29,0,0,0,.5.09c.33-.52,1.08-.52,1.83-.52.08,0,.17.09.33.09a6.31,6.31,0,0,0,1.33.6,3.47,3.47,0,0,1,1.16.77l.33.34a1,1,0,0,1,.41,1c0,.17-.08.26-.25.34a.75.75,0,0,0-.25.52c0,.6-.08,1.12-.08,1.72a.64.64,0,0,0,.41.6l.66.34Z" transform="translate(-24.23 -27.45)"/><path class="54ee65a8-0e49-4b23-a8f4-544224d875af" d="M78.94,62.85c.08.43.66.52.66,1a1.11,1.11,0,0,1-1.08-.69,9.49,9.49,0,0,0-.66-1.63c0-.09-.08-.09,0-.17s.25-.26.41-.09a5.53,5.53,0,0,0,1.49.94c.17.09.25.17.41.17a.59.59,0,0,1,.33.69h0c0,.09,0,.09-.08.09-.08.43-.08.43-.41.26A3.28,3.28,0,0,0,78.94,62.85Z" transform="translate(-24.23 -27.45)"/><path class="54ee65a8-0e49-4b23-a8f4-544224d875af" d="M75.87,62a2.65,2.65,0,0,1-.66,1.37c-.08.09-.5-.09-.58-.17a1.69,1.69,0,0,1-.33-1v-.09c.41-.09.58-.6,1.08-.6C75.46,61.48,75.87,61.82,75.87,62Z" transform="translate(-24.23 -27.45)"/><path class="54ee65a8-0e49-4b23-a8f4-544224d875af" d="M73.47,71.35c-.58.09-.66-.43-1.08-.69a.32.32,0,0,1-.08-.26.78.78,0,0,1,.08-.6c.08-.09.17.09.33.26a4.34,4.34,0,0,0,.91.69l.08.09c.17.09.41.34.33.52S73.55,71.35,73.47,71.35Z" transform="translate(-24.23 -27.45)"/></g><text class="fd45bb4b-b051-467e-9205-11f7c43346dc" transform="translate(0.5 49.89) scale(1.39 1)">I </text><text class="51c84e8b-7806-471e-8d31-298efc9f3ed7" transform="translate(16.77 49.89) scale(1.25 1)">T</text><path class="5186b589-ea50-4dd3-8605-d7a2adff537a" d="M27.26,47.82" transform="translate(-24.23 -27.45)"/><path class="d18760b9-27da-46ec-bdb9-a2bf0e4f57d4" d="M32.86,57.65,28.6,58.76C42,50.29,54.54,40.45,65.56,28,78.89,43.45,90.15,51.92,101,58.27l-5.11-1C85.47,50.78,76.4,45.16,65.74,38.48,65.74,38.48,37.12,56.54,32.86,57.65Z" transform="translate(-24.23 -27.45)"/><line class="d18760b9-27da-46ec-bdb9-a2bf0e4f57d4" x1="3.17" y1="51.98" x2="77.47" y2="51.98"/><text class="b4ec8fa4-4ecf-4b2f-92c7-657913587dfd" transform="translate(49.1 49.56) scale(1.49 1)">M</text><text class="46734f74-4dfb-4b6d-8594-5789f46ade50" transform="translate(2.77 62.1) scale(0.95 1)">MA<tspan class="398dd5de-c81f-4da0-ba6c-810951d22dbf" x="23.26" y="0">R</tspan><tspan x="33.01" y="0">QUEES</tspan></text></svg>