<svg id="81678477-84db-4d55-9c8f-2c9edd6b98b9" data-name="Layer 1" xmlns="http://www.w3.org/2000/svg" viewBox="0 0 101.35 83.47"><defs><style>.\36 b3602a1-9cde-4f99-884a-ae6085aeacfa{opacity:0.7;}.\31 dd146e1-d4a8-4eac-810e-1d3357db1293{fill:#e6e6e6;stroke:#e6e6e6;}.\31 dd146e1-d4a8-4eac-810e-1d3357db1293,.\32 e5079f7-f404-4abe-9e52-b076e73a2e93,.\33 651d50b-3d23-4416-b091-93fad41fa5ea,.\34 7885146-a893-4725-81c4-ccfd9c5672b1,.\37 d878747-8fbe-414b-a881-7128109f1fc9{stroke-miterlimit:10;}.ba05ae87-277c-4960-87df-aa8f53ceb733,.eef7700b-6619-4cfc-a64d-3a1dd843a7f2{opacity:0.98;}.eef7700b-6619-4cfc-a64d-3a1dd843a7f2{isolation:isolate;}.\37 d878747-8fbe-414b-a881-7128109f1fc9{fill:none;}.\33 651d50b-3d23-4416-b091-93fad41fa5ea,.\37 d878747-8fbe-414b-a881-7128109f1fc9{stroke:#b3b3b3;}.\34 7885146-a893-4725-81c4-ccfd9c5672b1{fill:#fff;stroke:#fffdfd;}.\32 0c03d26-148b-4535-b973-57e347d7e8fb{fill:#999;}.\32 e5079f7-f404-4abe-9e52-b076e73a2e93{fill:#ccc;stroke:#ccc;stroke-width:0.75px;opacity:0.8;}.\33 651d50b-3d23-4416-b091-93fad41fa5ea{fill:#b3b3b3;}</style></defs><title>21-login</title><g class="6b3602a1-9cde-4f99-884a-ae6085aeacfa"><path class="1dd146e1-d4a8-4eac-810e-1d3357db1293" d="M42.36,66.15V63.82c0-.09.09-.19.09-.37a20,20,0,0,1,2.62-8.89,22.46,22.46,0,0,1,23-11.69,21.22,21.22,0,0,1,7,2.25,21.91,21.91,0,0,1,11,26.29,22.55,22.55,0,0,1-41,4.3A20.36,20.36,0,0,1,42.45,68,13.18,13.18,0,0,0,42.36,66.15ZM82.21,58.3c-.09.28-.09.47-.19.75s-.19.37-.47.56-.47,0-.65-.09-.19-.09-.28-.09-.19-.09-.09-.28a.71.71,0,0,0-.19-.47.66.66,0,0,1-.19-1,.09.09,0,0,1,.09-.09c.37-.47.28-.75-.28-.94a1.19,1.19,0,0,0-.56-.09c-.09,0-.19-.09-.28-.09-.28-.28-.09-.65-.09-1a2,2,0,0,0-.75-1.5.81.81,0,0,1-.47-.65c0-.09-.09-.37-.09-.47a1.41,1.41,0,0,0-.37-1,2.24,2.24,0,0,1-.65-1.22c0-.09,0-.09-.09-.09a5.72,5.72,0,0,1-1.31-.65c-.09-.09-.09,0-.19,0s-.09.09,0,.09c.28.19.09.37-.09.47a.09.09,0,0,0-.09.09c.94.19,1.22,1.22,2.25,1.4a.29.29,0,0,1-.19.09c-.28.09-.56.19-.65.56a.09.09,0,0,1-.09.09h0c-.56-.09-1.22-.19-1.5-.84a2.11,2.11,0,0,0-1.31-1.22c-.19-.09-.47-.28-.65-.37-.47-.09-.65-.47-1-.84-.09-.09-.09-.19.09-.37A2.65,2.65,0,0,1,73,48.57c.09,0,.19,0,.19-.09A.37.37,0,0,0,73,48.1c-.19-.09-.19-.09-.37,0a1,1,0,0,1-.75.09.09.09,0,0,1-.09-.09h0c.09-.28,0-.47-.28-.47-.09,0-.09-.09-.19-.09A1.32,1.32,0,0,0,70.7,47a14.27,14.27,0,0,1-1.5-1c-.47-.37-.47-.28-.65.09a.9.9,0,0,1-.84.19A7.34,7.34,0,0,0,66.4,46a3,3,0,0,0-.84.28,5.09,5.09,0,0,1-1.68,0c-.28-.09-.65-.09-.65-.56a.09.09,0,0,0-.09-.09c-.37,0-.65-.09-1,.19a.34.34,0,0,1-.28.09c-.47,0-.84.09-1.22.09-.09,0-.19.09-.19.28a1.58,1.58,0,0,1-.19.47,3.32,3.32,0,0,1-.94.19c-.37.09-.47.19-.47.56,0,.09-.09.09-.09.19-.09-.09-.47,0-.84,0a.37.37,0,0,0-.37.19A1.74,1.74,0,0,1,56.86,49l-.09.09-1,1a3.35,3.35,0,0,1-1,.37c.19-.28.37-.47.47-.65s.09-.37-.09-.37c-.37.09-.56-.09-.65-.47-.37-.47-.37-.47.09-.94a1.08,1.08,0,0,1,.65-.47,1,1,0,0,0,.65-.75c0-.19-.09-.47,0-.65a3.11,3.11,0,0,1,.56-.28.09.09,0,0,0,.09-.09A.61.61,0,0,0,57,45c0-.37-.19-.47-.47-.37A22,22,0,0,0,43.11,62.13a21,21,0,0,0,2.43,12.82,21.24,21.24,0,0,0,7.3,7.67A21.87,21.87,0,0,0,64.9,86.08c.75,0,1.5-.09,2.25-.09.09,0,.19,0,.19-.09a1.73,1.73,0,0,1,.19-.65c.09-.37,0-.56-.47-.65a.33.33,0,0,1-.19-.09,8.25,8.25,0,0,0-2.53-2.25.89.89,0,0,1-.56-1A1.21,1.21,0,0,1,64.62,80a.7.7,0,0,0,.47-.65v-.56c-.09-.19.19-.47-.09-.56a1.59,1.59,0,0,0-.65-.09h-.09A1.56,1.56,0,0,1,63.12,78a6.45,6.45,0,0,0-.75-.28.93.93,0,0,1-.47-.37,2.93,2.93,0,0,0-.47-.94,4.23,4.23,0,0,0-1.59-1A14.85,14.85,0,0,0,58,74.76a2.55,2.55,0,0,1-1.22-.65,3.92,3.92,0,0,0-1.5-1,.94.94,0,0,1-.47-1v-.19a2.75,2.75,0,0,0-.28-.94,8.09,8.09,0,0,1-.65-1.59,4.93,4.93,0,0,0-.28-1.12.09.09,0,0,0-.09-.09.33.33,0,0,0-.09.19,8.76,8.76,0,0,0,.37,1.5,2.65,2.65,0,0,0,.56.84,1.61,1.61,0,0,1-1.12-.94,33.49,33.49,0,0,1-1-3.27,2.06,2.06,0,0,1-.09-.75c.09-.65.09-1.22.19-1.78A5.38,5.38,0,0,1,53.49,61c.19-.28.47-.56.19-1V59.7a6.46,6.46,0,0,1,.37-2.34,5,5,0,0,0,.37-2.06c-.09-.47-.19-1-.75-1.22a14.57,14.57,0,0,0-1.4-.56c-.56,0-.56-.28-.56-.75l.47.28c.37.19.56.19.65-.19.09-.09.09-.37.19-.47a.73.73,0,0,1,1-.47c.47.09.47.09.56-.37s.28-.47.65-.37c.09,0,.19.09.37,0a1.54,1.54,0,0,1,.94-.09c.19,0,.47.09.47.28a2.06,2.06,0,0,1,.09.75,1.55,1.55,0,0,0,.47,1.22l.47.47c.65.56,1.4,1.12,2.15,1.68.09-.47.09-.47-.09-.65a.77.77,0,0,1-.37-.56.5.5,0,0,0-.28-.37c-.28-.09-.28-.37,0-.47a.09.09,0,0,1,.09-.09,1,1,0,0,1,1,.09c.09.09.09.37.37.37a1,1,0,0,1,.56.65,2.59,2.59,0,0,1,.09.84c0,.19,0,.47.19.47a.34.34,0,0,0,.37-.37c.09-.09.09-.37.09-.47s.09-.09.28-.09.19,0,.19.09.09.37.09.47c0,.47.19.47.56.56s.37-.09.65-.19a1.07,1.07,0,0,1-.75-.65c-.09-.09-.28-.19-.09-.37a.56.56,0,0,1,.65-.37,9.19,9.19,0,0,1,1.68.75,1,1,0,0,1,.56.65.84.84,0,0,0,.56.56c.09.09.19.09.37.09s.37.47.47.75c.09.09-.09.19-.19.37s-.09.37-.09.47,0,.19-.09.19a.8.8,0,0,1-.65,0,6.45,6.45,0,0,0-.75-.28c-.28-.09-.56-.09-.94-.19.56-.28.94-.65.75-1.22s-.75-.56-1.22-.75c.09.19.47.28.28.47a.77.77,0,0,1-.47.47,6.44,6.44,0,0,0-1.22,1,2.31,2.31,0,0,0-.75,1.59c-.09.37.19.65.56.75s.47.09.75.19.47.28.47.56A1.83,1.83,0,0,0,64.72,62a2.59,2.59,0,0,0,.09-.84c-.09-.47.56-.94.09-1.4h0a7.08,7.08,0,0,0-.09-1.4c0-.19.09-.19.19-.28.28-.09.56.09.75.09s.65.09.84.47a.83.83,0,0,0,.75.47c.19,0,.47.09.65.09a9.86,9.86,0,0,0,1,.65A2.62,2.62,0,0,1,70,61.2a.57.57,0,0,1-.28.65l-.84.28a2.15,2.15,0,0,0-1.31.84c-.09.09-.09.09,0,.09h.09c.19-.09.47-.19.56-.37a.6.6,0,0,1,.56,0c.09.09.09.09.09.19,0,.28.09.28.37.28a.71.71,0,0,0,.37-.09c.28-.09.28.09.37.28s-.09.19-.09.28a5.3,5.3,0,0,0-1.22.75c-.09.09-.09.09-.19,0-.37-.09-.47-.09-.75.19s-.28.94-.84,1l-.19.28A2.8,2.8,0,0,0,66,67.65a.67.67,0,0,1-.28.56l-.94.65a1.5,1.5,0,0,0-.47,1.78,1.59,1.59,0,0,1,.09.65c0,.09.09.28-.09.28s-.28.19-.47-.09a8.09,8.09,0,0,1-.65-.94,1.64,1.64,0,0,0-1.78-.47,1.59,1.59,0,0,1-.65.09,1.73,1.73,0,0,0-.65-.19c-.37-.09-.65.09-1,.19a2,2,0,0,0-.65,2.06c0,.09-.09.37.09.47a2.62,2.62,0,0,0,1.22.84.45.45,0,0,0,.56-.19.7.7,0,0,1,.75-.47c.28-.09.65.28.56.47a2.13,2.13,0,0,1-.28,1c-.09.28-.09.47.28.47a5.48,5.48,0,0,1,1.22.19.63.63,0,0,1,.47.94,4.05,4.05,0,0,0-.09.47.33.33,0,0,0,.09.47.81.81,0,0,0,.65.47c.65.09,1.4.47,1.87-.37l.19-.19c.47-.19.75-.47,1.22-.19a1,1,0,0,0,1,0c.09-.09.19-.09.37-.09a4.27,4.27,0,0,0,1.87-.19c.19-.09.47-.09.56.09A5.07,5.07,0,0,0,74,77a1.14,1.14,0,0,1,1.31.65.83.83,0,0,0,1,.47,8.78,8.78,0,0,0,2.25-.56,1.34,1.34,0,0,1,1.22.09c.09.09.09.19.09.37-.28.47-.56.75-.84,1.22a2.83,2.83,0,0,0-.47,1.5,22,22,0,0,0,7.67-13.94.5.5,0,0,0-.37.28c-.19.37-.47.65-.65,1-.09.09-.09.09-.19.09a2,2,0,0,1-1.59-1.12,8.69,8.69,0,0,1-1-4.58,3.54,3.54,0,0,0-.47-2.34c-.09-.09-.09-.19-.09-.37a1.4,1.4,0,0,1,.09-1.22c.47.37.47,0,.28-.28ZM81,53.81l.65.28c.09.09.28.09.19.28s-.09.37-.28.28h-.37c-.28-.09-.28.09-.19.28a1.26,1.26,0,0,1,.19.84,1.49,1.49,0,0,0,.37,1.12c.09.09.19.37.28.47a1.13,1.13,0,0,0,.47.47.7.7,0,0,0,.09-.47,4,4,0,0,1,0-1.5c0-.28.09-.47.47-.37.09,0,.19.09.37.09a1.38,1.38,0,0,0-.37-1.22c-.09-.09-.28-.37-.37-.47s-.09-.19.09-.19a.3.3,0,0,0,.28-.28v-.09a4,4,0,0,0-.19-1,4.92,4.92,0,0,0-1-1.31.8.8,0,0,1,0,.65,1.07,1.07,0,0,0,.56,1.22.49.49,0,0,1,.19.37.5.5,0,0,1-.65.47h0a.55.55,0,0,0-.75.09Z" transform="translate(-12.69 -21.33)"/><path class="1dd146e1-d4a8-4eac-810e-1d3357db1293" d="M72,57.83a11.85,11.85,0,0,1-1.68.56c-.09,0-.09,0-.19-.09l-.94-.56c-.09-.09-.09-.09-.09-.19s-.09-.47-.37-.47c-.09-.09-.28-.19-.28-.37s-.09-.47-.09-.65a.77.77,0,0,0-.47-.75,7.5,7.5,0,0,0-1.78-1.22,1.24,1.24,0,0,1-.75-1c0-.09-.09-.19-.09-.28-.37.28-.37.65-.47,1s-.09.37-.47.09c-.09-.09-.28-.09-.47-.28s-.47-.56-.19-.94a.82.82,0,0,0,.09-.65c-.09-.09-.09-.09.09-.19a1.82,1.82,0,0,1,1.22-.28c.09,0,.09,0,.09.09s.28.37.47.09c.47-.65,1.22-.65,2.06-.65.09,0,.19.09.37.09a9.44,9.44,0,0,0,1.4.65,2.85,2.85,0,0,1,1.22.84l.37.37a1,1,0,0,1,.47,1c0,.19-.09.28-.28.37A.67.67,0,0,0,71,55c0,.56-.09,1.22-.09,1.78,0,.28.19.47.47.65l.65.37Z" transform="translate(-12.69 -21.33)"/><path class="1dd146e1-d4a8-4eac-810e-1d3357db1293" d="M77.06,54.83c.09.47.65.56.65,1a1.13,1.13,0,0,1-1.12-.75,6.65,6.65,0,0,0-.75-1.68c0-.09-.09-.09,0-.19s.28-.28.47-.09a4,4,0,0,0,1.59.94c.09.09.28.09.47.19s.47.47.37.65h0c0,.09,0,.09-.09.09-.09.47-.09.47-.47.28A9.74,9.74,0,0,1,77.06,54.83Z" transform="translate(-12.69 -21.33)"/><path class="1dd146e1-d4a8-4eac-810e-1d3357db1293" d="M73.79,53.9A2.57,2.57,0,0,1,73,55.3c-.09.09-.47-.09-.65-.19a1.89,1.89,0,0,1-.28-1V54c.47-.09.65-.65,1.12-.65C73.32,53.43,73.79,53.81,73.79,53.9Z" transform="translate(-12.69 -21.33)"/><path class="1dd146e1-d4a8-4eac-810e-1d3357db1293" d="M62.94,73.64a1.3,1.3,0,0,1,1-.19,7.34,7.34,0,0,0,2.06.47.71.71,0,0,1,.47.19c.09.09.19,0,.19.09a.71.71,0,0,1-.19.37,1.56,1.56,0,0,1-1.12-.09,3.65,3.65,0,0,0-2.06-.75l-.19-.09Z" transform="translate(-12.69 -21.33)"/><path class="1dd146e1-d4a8-4eac-810e-1d3357db1293" d="M71.26,63.53c-.65.09-.75-.47-1.12-.75a.34.34,0,0,1-.09-.28.82.82,0,0,1,.09-.65c.09-.09.19.09.37.28a6.55,6.55,0,0,1,.94.75l.09.09c.19.09.47.37.37.56S71.36,63.44,71.26,63.53Z" transform="translate(-12.69 -21.33)"/><path class="1dd146e1-d4a8-4eac-810e-1d3357db1293" d="M68.83,74.95a3.19,3.19,0,0,1-1.87,0,.49.49,0,0,1-.19-.37.2.2,0,0,1,.19-.19,1.59,1.59,0,0,1,.65-.09c.19,0,.47-.09.56.28a.09.09,0,0,0,.09.09Z" transform="translate(-12.69 -21.33)"/></g><g class="eef7700b-6619-4cfc-a64d-3a1dd843a7f2"><path class="7d878747-8fbe-414b-a881-7128109f1fc9" d="M33.72,61.93H56.93V67H54.66l-.56-3.06-.58-.5H47.24V82.08l.68.47,2.77.16v1.35H40V82.71l2.75-.16.7-.47V63.44H37.13l-.58.5L36,67H33.72Z" transform="translate(-12.69 -21.33)"/></g><path class="47885146-a893-4725-81c4-ccfd9c5672b1" d="M2.4,35.27" transform="translate(-12.69 -21.33)"/><g class="ba05ae87-277c-4960-87df-aa8f53ceb733"><path class="7d878747-8fbe-414b-a881-7128109f1fc9" d="M73.5,83.83V82.47l2.95-.26.89-.63V63.68l-.62-.47L73.45,63V61.7H83.87v.89l9.22,16.56,9.32-16.43v-1h10.49V63l-3.09.19-.6.47V81.85l.6.47,3.09.16v1.35H101.18V82.47l3.23-.16.48-.47V63.25L93.28,83.83H91.17L80,63.58v18l.89.63,3,.26v1.35Z" transform="translate(-12.69 -21.33)"/></g><g class="eef7700b-6619-4cfc-a64d-3a1dd843a7f2"><path class="20c03d26-148b-4535-b973-57e347d7e8fb" d="M20.63,95.4l.15-1.64h-.05l-.57,1.42-2.57,4.53h-.4l-2.71-4.54-.54-1.39h-.07l.21,1.61V102H12.84V91.76h1L17,97l.49,1.11h0l.46-1.14,3-5.18h1V102H20.63Z" transform="translate(-12.69 -21.33)"/><path class="20c03d26-148b-4535-b973-57e347d7e8fb" d="M33.79,99.29H30.17l-1,2.7H27.88l3.8-10.37h.69L36.19,102h-1.4Zm-3.23-1.2h2.85l-1.06-2.91L32,93.62h0l-.35,1.59Z" transform="translate(-12.69 -21.33)"/><path class="20c03d26-148b-4535-b973-57e347d7e8fb" d="M42.11,91.87l.61-.1.68-.07.69,0h.65a5.47,5.47,0,0,1,1.27.15,3,3,0,0,1,1.08.48,2.48,2.48,0,0,1,.75.88,2.84,2.84,0,0,1,.28,1.33A3.4,3.4,0,0,1,48,95.58a2.92,2.92,0,0,1-.48.88,2.77,2.77,0,0,1-.72.64,3.41,3.41,0,0,1-.9.39l.69.51L49,102H47.51l-2.75-4.31-1.33-.2V102H42.11Zm2.67,1.05H44l-.34,0-.25,0v3.53h1.08a3.33,3.33,0,0,0,.88-.11,2,2,0,0,0,.7-.34,1.56,1.56,0,0,0,.47-.59,2.08,2.08,0,0,0,.17-.89,1.59,1.59,0,0,0-.5-1.24A2.1,2.1,0,0,0,44.78,92.92Z" transform="translate(-12.69 -21.33)"/><path class="20c03d26-148b-4535-b973-57e347d7e8fb" d="M54.51,96.88a8.12,8.12,0,0,1,.28-2.24A4.81,4.81,0,0,1,55.61,93a3.53,3.53,0,0,1,1.31-1,4.48,4.48,0,0,1,3.58,0A3.61,3.61,0,0,1,61.8,93a4.77,4.77,0,0,1,.78,1.67,8.48,8.48,0,0,1,.26,2.16,8.12,8.12,0,0,1-.28,2.24,4.75,4.75,0,0,1-.83,1.67,3.58,3.58,0,0,1-1.31,1,4.5,4.5,0,0,1-3.58,0,3.56,3.56,0,0,1-1.29-1.08A4.84,4.84,0,0,1,54.77,99,8.5,8.5,0,0,1,54.51,96.88Zm1.4,0a7,7,0,0,0,.17,1.55,4.23,4.23,0,0,0,.5,1.28,2.58,2.58,0,0,0,.86.87,2.32,2.32,0,0,0,1.23.32,2.42,2.42,0,0,0,2-1,5,5,0,0,0,.75-3,6.89,6.89,0,0,0-.17-1.54,4.22,4.22,0,0,0-.5-1.28,2.63,2.63,0,0,0-.86-.88,2.3,2.3,0,0,0-1.25-.33,2.39,2.39,0,0,0-2,1A5,5,0,0,0,55.91,96.88Zm8,7.75a3.81,3.81,0,0,1-.69.14,6.46,6.46,0,0,1-.69,0,6.71,6.71,0,0,1-1.42-.15q-.69-.15-1.33-.33L58.56,104a4.61,4.61,0,0,0-1.12-.15,2.41,2.41,0,0,0-.65.09v-1.28a3.59,3.59,0,0,1,.79-.09,4.89,4.89,0,0,1,1.19.15L60,103q.61.17,1.27.32a6.06,6.06,0,0,0,1.37.15,5.58,5.58,0,0,0,.63,0,4.93,4.93,0,0,0,.67-.12Z" transform="translate(-12.69 -21.33)"/><path class="20c03d26-148b-4535-b973-57e347d7e8fb" d="M75.21,91.76h1.24v6.67a4.91,4.91,0,0,1-.24,1.64,3.11,3.11,0,0,1-.69,1.15,2.75,2.75,0,0,1-1.06.68,4,4,0,0,1-1.37.22,3.91,3.91,0,0,1-2.72-.85,3.26,3.26,0,0,1-.94-2.53v-7h1.32v6.41a2.89,2.89,0,0,0,.59,2.07,2.36,2.36,0,0,0,1.74.58,2,2,0,0,0,1.62-.64,3.3,3.3,0,0,0,.51-2.06Z" transform="translate(-12.69 -21.33)"/><path class="20c03d26-148b-4535-b973-57e347d7e8fb" d="M83.45,91.76H89V93H84.77v3.08h3.89v1.29H84.77v3.29H89.1V102H83.45Z" transform="translate(-12.69 -21.33)"/><path class="20c03d26-148b-4535-b973-57e347d7e8fb" d="M95.82,91.76h5.58V93H97.14v3.08H101v1.29H97.14v3.29h4.33V102H95.82Z" transform="translate(-12.69 -21.33)"/><path class="20c03d26-148b-4535-b973-57e347d7e8fb" d="M112.73,99.29a1.25,1.25,0,0,0-.36-.94,3.23,3.23,0,0,0-.9-.6q-.54-.25-1.16-.48a5.78,5.78,0,0,1-1.16-.58,3,3,0,0,1-.9-.91,2.63,2.63,0,0,1-.36-1.45,2.59,2.59,0,0,1,.83-2,3.36,3.36,0,0,1,2.36-.76,8.36,8.36,0,0,1,1.62.15,4.07,4.07,0,0,1,1.16.38l-.41,1.23a4,4,0,0,0-1-.32,6.84,6.84,0,0,0-1.45-.14,1.91,1.91,0,0,0-1.35.42,1.29,1.29,0,0,0-.45,1,1.21,1.21,0,0,0,.36.91,3.49,3.49,0,0,0,.9.62c.36.18.75.35,1.16.52a6.22,6.22,0,0,1,1.16.61,3.27,3.27,0,0,1,.9.9,2.4,2.4,0,0,1,.36,1.37,3.13,3.13,0,0,1-.24,1.24,2.62,2.62,0,0,1-.69.95A3.12,3.12,0,0,1,112,102a4.55,4.55,0,0,1-1.44.21,7.79,7.79,0,0,1-1.83-.18,5,5,0,0,1-1.13-.39l.44-1.27a5,5,0,0,0,1,.37,5.42,5.42,0,0,0,1.47.19,3.73,3.73,0,0,0,.86-.09,2.13,2.13,0,0,0,.69-.29,1.37,1.37,0,0,0,.46-.5A1.5,1.5,0,0,0,112.73,99.29Z" transform="translate(-12.69 -21.33)"/></g><g class="ba05ae87-277c-4960-87df-aa8f53ceb733"><path class="7d878747-8fbe-414b-a881-7128109f1fc9" d="M13.88,84V82.66l2.62-.16.7-.47V63.87l-.7-.47-2.62-.19V61.89h10.4v1.32l-2.62.19-.7.47V82l.7.47,2.62.16V84Z" transform="translate(-12.69 -21.33)"/></g><line class="2e5079f7-f404-4abe-9e52-b076e73a2e93" y1="66.18" x2="100.98" y2="66.18"/><path class="47885146-a893-4725-81c4-ccfd9c5672b1" d="M-73.5-26.5" transform="translate(-12.69 -21.33)"/><path class="3651d50b-3d23-4416-b091-93fad41fa5ea" d="M22.35,57.85,17,59.07Q30.4,49.76,44.5,39q11.08-8.52,21.17-17c5.82,5.56,12.09,11.23,18.83,17,8.73,7.4,17.27,14,25.45,20-2.18-.37-3.35-.74-5.53-1.12L65.71,34.59Z" transform="translate(-12.69 -21.33)"/></svg>