<?xml version="1.0" encoding="utf-8"?>
<!-- Generator: Adobe Illustrator 21.0.0, SVG Export Plug-In . SVG Version: 6.00 Build 0)  -->
<svg version="1.1" id="c2c1df57-593c-473e-ba1d-f16195256047"
	 xmlns="http://www.w3.org/2000/svg" xmlns:xlink="http://www.w3.org/1999/xlink" x="0px" y="0px" viewBox="0 0 101.3 83.5"
	 style="enable-background:new 0 0 101.3 83.5;" xml:space="preserve">
<style type="text/css">
	.st0{fill:#1E488C;stroke:#1E488C;stroke-miterlimit:10;}
	.st1{fill:#003E7B;}
	.st2{fill:#C5C5C9;}
	.st3{fill:#FFFFFF;stroke:#FFFFFF;stroke-miterlimit:10;}
	.st4{opacity:0.98;}
	.st5{fill:#FFFFFF;stroke:#FFFFFF;stroke-width:0.5;stroke-miterlimit:10;}
	.st6{opacity:0.8;fill:none;stroke:#CCCCCC;stroke-width:0.75;stroke-miterlimit:10;enable-background:new    ;}
</style>
<rect x="-333.5" y="-78.7" class="st0" width="286.3" height="250.4"/>
<rect x="-233.6" y="-15" class="st1" width="87.4" height="72.2"/>
<title>22-login</title>
<g>
	<path class="st2" d="M-205,19.1v-1.6c0-0.1,0.1-0.1,0.1-0.3c0.1-2.2,0.7-4.3,1.8-6.2c3.1-5.8,9.5-9.1,16.1-8.2
		c1.7,0.2,3.4,0.8,4.9,1.6c6.7,3.4,10,11.2,7.7,18.4c-2.7,8.3-11.6,12.8-19.9,10.1c-3.7-1.2-6.9-3.7-8.8-7.1c-1-1.7-1.6-3.5-1.8-5.4
		C-204.9,19.9-205,19.5-205,19.1z M-177.1,13.6c-0.1,0.2-0.1,0.3-0.1,0.5c-0.1,0.2-0.1,0.3-0.3,0.4c-0.2,0.1-0.3,0-0.5-0.1
		c-0.1-0.1-0.1-0.1-0.2-0.1s-0.1-0.1-0.1-0.2c0-0.1,0-0.2-0.1-0.3c-0.2-0.1-0.3-0.4-0.2-0.6c0,0,0,0,0-0.1c0,0,0-0.1,0.1-0.1
		c0.3-0.3,0.2-0.5-0.2-0.7c-0.1-0.1-0.3-0.1-0.4-0.1c-0.1,0-0.1-0.1-0.2-0.1c-0.2-0.2-0.1-0.5-0.1-0.7c0-0.4-0.2-0.8-0.5-1
		c-0.2-0.1-0.3-0.3-0.3-0.5c0-0.1-0.1-0.3-0.1-0.3c0-0.3-0.1-0.5-0.3-0.7c-0.2-0.2-0.4-0.5-0.5-0.9c0-0.1,0-0.1-0.1-0.1
		c-0.3-0.1-0.6-0.3-0.9-0.5c-0.1-0.1-0.1,0-0.1,0s-0.1,0.1,0,0.1c0.2,0.1,0.1,0.3-0.1,0.3c0,0-0.1,0-0.1,0.1c0.7,0.1,0.9,0.9,1.6,1
		c0,0-0.1,0.1-0.1,0.1c-0.2,0.1-0.4,0.1-0.5,0.4c0,0,0,0.1-0.1,0.1l0,0c-0.4-0.1-0.9-0.1-1-0.6c-0.2-0.4-0.5-0.7-0.9-0.9
		c-0.1-0.1-0.3-0.2-0.5-0.3c-0.3-0.1-0.5-0.3-0.7-0.6c-0.1-0.1-0.1-0.1,0.1-0.3c0.2-0.2,0.5-0.3,0.8-0.3c0.1,0,0.1,0,0.1-0.1
		c0-0.1,0-0.2-0.1-0.3c-0.1-0.1-0.1-0.1-0.3,0c-0.2,0.1-0.3,0.1-0.5,0.1c0,0-0.1,0-0.1-0.1l0,0c0.1-0.2,0-0.3-0.2-0.3
		c-0.1,0-0.1-0.1-0.1-0.1c-0.1-0.2-0.3-0.3-0.4-0.4c-0.4-0.2-0.7-0.4-1-0.7c-0.3-0.3-0.3-0.2-0.5,0.1c-0.2,0.1-0.4,0.2-0.6,0.1
		c-0.3-0.1-0.6-0.2-0.9-0.2c-0.2,0-0.4,0.1-0.6,0.2c-0.4,0.1-0.8,0.1-1.2,0c-0.2-0.1-0.5-0.1-0.5-0.4c0,0,0-0.1-0.1-0.1l0,0
		c-0.3,0-0.5-0.1-0.7,0.1c-0.1,0-0.1,0.1-0.2,0.1c-0.3,0-0.6,0.1-0.9,0.1c-0.1,0-0.1,0.1-0.1,0.2c0,0.1-0.1,0.2-0.1,0.3
		c-0.2,0.1-0.4,0.1-0.7,0.1c-0.3,0.1-0.3,0.1-0.3,0.4c0,0.1-0.1,0.1-0.1,0.1c-0.1-0.1-0.3,0-0.6,0c-0.1,0-0.2,0-0.3,0.1
		c-0.1,0.3-0.2,0.6-0.5,0.8l-0.1,0.1l-0.7,0.7c-0.2,0.1-0.5,0.2-0.7,0.3c0.1-0.2,0.3-0.3,0.3-0.5c0.1-0.1,0.1-0.3-0.1-0.3
		c-0.3,0.1-0.4-0.1-0.5-0.3c-0.3-0.3-0.3-0.3,0.1-0.7c0.1-0.2,0.3-0.3,0.5-0.3c0.2-0.1,0.4-0.3,0.5-0.5c0-0.1-0.1-0.3,0-0.5
		c0.1-0.1,0.3-0.1,0.4-0.2c0,0,0.1,0,0.1-0.1l0,0c0.2,0,0.4-0.3,0.3-0.5c0,0,0,0,0-0.1c0-0.3-0.1-0.3-0.3-0.3
		c-5.1,2.1-8.7,6.8-9.4,12.2c-0.4,3.1,0.2,6.2,1.7,9c1.2,2.2,3,4,5.1,5.4c2.5,1.6,5.4,2.5,8.4,2.4c0.5,0,1-0.1,1.6-0.1
		c0.1,0,0.1,0,0.1-0.1c0-0.2,0.1-0.3,0.1-0.5c0.1-0.3,0-0.4-0.3-0.5c0,0-0.1,0-0.1-0.1c-0.5-0.6-1.1-1.2-1.8-1.6
		c-0.3-0.1-0.4-0.4-0.4-0.7c0-0.4,0.2-0.8,0.6-0.9c0.2-0.1,0.3-0.2,0.3-0.5v-0.4c-0.1-0.1,0.1-0.3-0.1-0.4c-0.1-0.1-0.3-0.1-0.5-0.1
		h-0.1c-0.3,0.1-0.6,0-0.8-0.1c-0.2-0.1-0.3-0.1-0.5-0.2c-0.1,0-0.3-0.1-0.3-0.3c-0.1-0.2-0.2-0.5-0.3-0.7c-0.3-0.3-0.7-0.6-1.1-0.7
		c-0.4-0.2-0.8-0.3-1.3-0.5c-0.3-0.1-0.6-0.2-0.9-0.5c-0.3-0.3-0.6-0.6-1-0.7c-0.2-0.1-0.4-0.4-0.3-0.7v-0.1c0-0.2-0.1-0.5-0.2-0.7
		c-0.2-0.4-0.3-0.7-0.5-1.1c0-0.3-0.1-0.5-0.2-0.8c0,0,0-0.1-0.1-0.1c0,0-0.1,0.1-0.1,0.1c0.1,0.4,0.1,0.7,0.3,1
		c0.1,0.2,0.2,0.4,0.4,0.6c-0.4-0.1-0.6-0.3-0.8-0.7c-0.3-0.7-0.5-1.5-0.7-2.3c-0.1-0.2-0.1-0.3-0.1-0.5c0.1-0.5,0.1-0.9,0.1-1.2
		c0.1-0.8,0.3-1.5,0.8-2.1c0.1-0.2,0.3-0.4,0.1-0.7v-0.2c0-0.6,0.1-1.1,0.3-1.6c0.2-0.5,0.3-0.9,0.3-1.4c-0.1-0.3-0.1-0.7-0.5-0.9
		c-0.3-0.1-0.6-0.3-1-0.4c-0.4,0-0.4-0.2-0.4-0.5l0.3,0.2c0.3,0.1,0.4,0.1,0.5-0.1c0.1-0.1,0.1-0.3,0.1-0.3c0.1-0.3,0.4-0.4,0.6-0.4
		c0,0,0,0,0.1,0c0.3,0.1,0.3,0.1,0.4-0.3s0.2-0.3,0.5-0.3c0.1,0,0.1,0.1,0.3,0c0.2-0.1,0.4-0.1,0.7-0.1c0.1,0,0.3,0.1,0.3,0.2
		c0.1,0.2,0.1,0.3,0.1,0.5c0,0.3,0.1,0.6,0.3,0.9l0.3,0.3c0.5,0.4,1,0.8,1.5,1.2c0.1-0.3,0.1-0.3-0.1-0.5c-0.1-0.1-0.2-0.2-0.3-0.4
		c0-0.1-0.1-0.2-0.2-0.3c-0.2-0.1-0.2-0.3,0-0.3c0,0,0-0.1,0.1-0.1l0,0c0.2-0.1,0.5-0.1,0.7,0.1c0.1,0.1,0.1,0.3,0.3,0.3
		c0.2,0.1,0.3,0.3,0.4,0.5c0.1,0.2,0.1,0.4,0.1,0.6c0,0.1,0,0.3,0.1,0.3c0.1,0,0.2-0.1,0.3-0.2c0,0,0,0,0,0c0.1-0.1,0.1-0.3,0.1-0.3
		s0.1-0.1,0.2-0.1c0.1,0,0.1,0,0.1,0.1s0.1,0.3,0.1,0.3c0,0.3,0.1,0.3,0.4,0.4c0.3,0.1,0.3-0.1,0.5-0.1c-0.2-0.1-0.4-0.2-0.5-0.5
		c-0.1-0.1-0.2-0.1-0.1-0.3c0.1-0.2,0.3-0.3,0.5-0.3c0.4,0.1,0.8,0.3,1.2,0.5c0.2,0.1,0.3,0.3,0.4,0.5c0.1,0.2,0.2,0.3,0.4,0.4
		c0.1,0.1,0.1,0.1,0.3,0.1c0.1,0,0.3,0.3,0.3,0.5c0.1,0.1-0.1,0.1-0.1,0.3c-0.1,0.1-0.1,0.3-0.1,0.3s0,0.1-0.1,0.1
		c-0.1,0.1-0.3,0.1-0.5,0c-0.2-0.1-0.3-0.1-0.5-0.2c-0.2-0.1-0.4-0.1-0.7-0.1c0.4-0.2,0.7-0.5,0.5-0.9c-0.1-0.4-0.5-0.4-0.9-0.5
		c0.1,0.1,0.3,0.2,0.2,0.3c-0.1,0.2-0.2,0.3-0.3,0.3c-0.3,0.2-0.6,0.4-0.9,0.7c-0.3,0.3-0.5,0.7-0.5,1.1c-0.1,0.3,0.1,0.5,0.4,0.5
		c0.3,0.1,0.3,0.1,0.5,0.1c0.2,0.1,0.3,0.2,0.3,0.4c0.1,0.4,0.3,0.7,0.6,0.8c0.1-0.2,0.1-0.4,0.1-0.6c-0.1-0.3,0.4-0.7,0.1-1l0,0
		c0-0.3,0-0.7-0.1-1c0-0.1,0.1-0.1,0.1-0.2c0.2-0.1,0.4,0.1,0.5,0.1c0.1,0,0.5,0.1,0.6,0.3c0.1,0.2,0.3,0.3,0.5,0.3
		c0.1,0,0.3,0.1,0.5,0.1c0.2,0.2,0.5,0.3,0.7,0.5c0.3,0.2,0.6,0.6,0.7,0.9c0,0.2,0,0.4-0.2,0.5l-0.6,0.2c-0.4,0.1-0.7,0.3-0.9,0.6
		c-0.1,0.1-0.1,0.1,0,0.1h0.1c0.1-0.1,0.3-0.1,0.4-0.3c0.1-0.1,0.3-0.1,0.4,0c0.1,0.1,0.1,0.1,0.1,0.1c0,0.2,0.1,0.2,0.3,0.2
		c0.1,0,0.2,0,0.3-0.1c0.2-0.1,0.2,0.1,0.3,0.2s-0.1,0.1-0.1,0.2c-0.3,0.1-0.6,0.3-0.9,0.5c-0.1,0.1-0.1,0.1-0.1,0
		c-0.3-0.1-0.3-0.1-0.5,0.1c-0.2,0.2-0.2,0.7-0.6,0.7l-0.1,0.2c-0.3,0.3-0.5,0.8-0.5,1.3c0,0.2-0.1,0.3-0.2,0.4l-0.7,0.5
		c-0.4,0.3-0.5,0.8-0.3,1.2c0.1,0.1,0.1,0.3,0.1,0.5c0,0.1,0.1,0.2-0.1,0.2s-0.2,0.1-0.3-0.1c-0.2-0.2-0.3-0.4-0.5-0.7
		c-0.3-0.4-0.8-0.5-1.2-0.3c-0.1,0.1-0.3,0.1-0.5,0.1c-0.1-0.1-0.3-0.1-0.5-0.1c-0.3-0.1-0.5,0.1-0.7,0.1c-0.4,0.3-0.6,0.9-0.5,1.4
		c0,0.1-0.1,0.3,0.1,0.3c0.2,0.3,0.5,0.5,0.9,0.6c0.1,0.1,0.3,0,0.4-0.1c0.1-0.2,0.3-0.4,0.5-0.3c0.2-0.1,0.5,0.2,0.4,0.3
		c0,0.2-0.1,0.5-0.2,0.7c-0.1,0.2-0.1,0.3,0.2,0.3c0.3,0,0.6,0.1,0.9,0.1c0.2,0,0.4,0.2,0.4,0.5c0,0.1,0,0.1-0.1,0.2
		c0,0.1,0,0.2-0.1,0.3c-0.1,0.1-0.1,0.2,0.1,0.3c0,0,0,0,0,0c0.1,0.2,0.3,0.3,0.5,0.3c0.5,0.1,1,0.3,1.3-0.3l0.1-0.1
		c0.3-0.1,0.5-0.3,0.9-0.1c0.2,0.1,0.5,0.1,0.7,0c0.1-0.1,0.1-0.1,0.3-0.1c0.4,0.1,0.9,0,1.3-0.1c0.1-0.1,0.3-0.1,0.4,0.1
		c0.6,0.3,1.3,0.5,2.1,0.4c0.4-0.1,0.8,0.1,0.9,0.5c0.1,0.3,0.4,0.4,0.7,0.3c0.5-0.1,1.1-0.2,1.6-0.4c0.3-0.1,0.6-0.1,0.9,0.1
		c0.1,0.1,0.1,0.1,0.1,0.3c-0.2,0.3-0.4,0.5-0.6,0.9c-0.2,0.3-0.3,0.7-0.3,1c2.9-2.5,4.9-5.9,5.4-9.7c-0.1,0-0.2,0.1-0.3,0.2
		c-0.1,0.3-0.3,0.5-0.5,0.7c-0.1,0.1-0.1,0.1-0.1,0.1c-0.5-0.1-0.9-0.3-1.1-0.8c-0.5-1-0.8-2.1-0.7-3.2c0.1-0.6,0-1.1-0.3-1.6
		c-0.1-0.1-0.1-0.1-0.1-0.3c-0.1-0.3-0.1-0.6,0.1-0.9C-177,14-177,13.7-177.1,13.6L-177.1,13.6z M-178,10.4l0.5,0.2
		c0.1,0.1,0.2,0.1,0.1,0.2s-0.1,0.3-0.2,0.2h-0.3c-0.2-0.1-0.2,0.1-0.1,0.2c0.1,0.2,0.2,0.4,0.1,0.6c0,0.3,0.1,0.6,0.3,0.8
		c0.1,0.1,0.1,0.3,0.2,0.3c0.1,0.1,0.2,0.3,0.3,0.3c0.1-0.1,0.1-0.2,0.1-0.3c-0.1-0.3-0.1-0.7,0-1c0-0.2,0.1-0.3,0.3-0.3
		c0.1,0,0.1,0.1,0.3,0.1c0.1-0.3,0-0.6-0.3-0.9c-0.1-0.1-0.2-0.3-0.3-0.3c-0.1-0.1-0.1-0.1,0.1-0.1c0.1,0,0.2-0.1,0.2-0.2v-0.1
		c0-0.2-0.1-0.5-0.1-0.7c-0.2-0.3-0.4-0.7-0.7-0.9c0.1,0.1,0.1,0.3,0,0.5c-0.1,0.3,0.1,0.7,0.4,0.9c0.1,0.1,0.1,0.2,0.1,0.3
		c0,0.2-0.2,0.3-0.4,0.3c0,0-0.1,0-0.1,0l0,0C-177.6,10.3-177.8,10.3-178,10.4L-178,10.4z"/>
	<path class="st2" d="M-184.3,13.2c-0.4,0.2-0.8,0.3-1.2,0.4c-0.1,0-0.1,0-0.1-0.1l-0.7-0.4c-0.1-0.1-0.1-0.1-0.1-0.1
		s-0.1-0.3-0.3-0.3c-0.1-0.1-0.2-0.1-0.2-0.3c0-0.1-0.1-0.3-0.1-0.5c0-0.2-0.1-0.4-0.3-0.5c-0.4-0.3-0.8-0.6-1.2-0.9
		c-0.3-0.1-0.5-0.4-0.5-0.7c0-0.1-0.1-0.1-0.1-0.2c-0.3,0.2-0.3,0.5-0.3,0.7c-0.1,0.2-0.1,0.3-0.3,0.1c-0.1-0.1-0.2-0.1-0.3-0.2
		s-0.3-0.4-0.1-0.7c0.1-0.1,0.1-0.3,0.1-0.5c-0.1-0.1-0.1-0.1,0.1-0.1c0.3-0.2,0.6-0.2,0.9-0.2c0.1,0,0.1,0,0.1,0.1
		c0,0.1,0.2,0.3,0.3,0.1c0.3-0.5,0.9-0.5,1.4-0.5c0.1,0,0.1,0.1,0.3,0.1c0.3,0.2,0.6,0.3,1,0.5c0.3,0.1,0.6,0.3,0.9,0.6l0.3,0.3
		c0.2,0.1,0.4,0.4,0.3,0.7c0,0.1-0.1,0.2-0.2,0.3c-0.1,0.1-0.2,0.3-0.2,0.4c0,0.4-0.1,0.9-0.1,1.2c0,0.2,0.1,0.3,0.3,0.5
		L-184.3,13.2L-184.3,13.2z"/>
	<path class="st2" d="M-180.7,11.1c0.1,0.3,0.5,0.4,0.5,0.7c-0.3,0-0.7-0.2-0.8-0.5c-0.1-0.4-0.3-0.8-0.5-1.2c0-0.1-0.1-0.1,0-0.1
		c0.1-0.1,0.2-0.2,0.3-0.1c0.3,0.3,0.7,0.5,1.1,0.7c0.1,0.1,0.2,0.1,0.3,0.1c0.1,0.1,0.3,0.3,0.3,0.5l0,0c0,0.1,0,0.1-0.1,0.1
		c-0.1,0.3-0.1,0.3-0.3,0.2C-180.2,11.4-180.5,11.3-180.7,11.1z"/>
	<path class="st2" d="M-183,10.5c-0.1,0.4-0.3,0.7-0.6,1c-0.1,0.1-0.3-0.1-0.5-0.1c-0.1-0.2-0.2-0.5-0.2-0.7v-0.1
		c0.3-0.1,0.5-0.5,0.8-0.5C-183.4,10.2-183,10.4-183,10.5z"/>
	<path class="st2" d="M-190.6,24.3c0.2-0.1,0.5-0.2,0.7-0.1c0.5,0.2,0.9,0.3,1.4,0.3c0.1,0,0.2,0,0.3,0.1c0.1,0.1,0.1,0,0.1,0.1
		c0,0.1-0.1,0.2-0.1,0.3c-0.3,0.1-0.5,0.1-0.8-0.1c-0.4-0.3-0.9-0.5-1.4-0.5l-0.1-0.1L-190.6,24.3z"/>
	<path class="st2" d="M-184.8,17.2c-0.5,0.1-0.5-0.3-0.8-0.5c0-0.1-0.1-0.1-0.1-0.2c0-0.2,0-0.3,0.1-0.5c0.1-0.1,0.1,0.1,0.3,0.2
		c0.2,0.2,0.5,0.3,0.7,0.5l0.1,0.1c0.1,0.1,0.3,0.3,0.3,0.4C-184.4,17.4-184.7,17.2-184.8,17.2z"/>
	<path class="st2" d="M-186.5,25.2c-0.4,0.1-0.9,0.1-1.3,0c-0.1-0.1-0.1-0.2-0.1-0.3c0-0.1,0.1-0.1,0.1-0.1c0.1-0.1,0.3-0.1,0.5-0.1
		c0.1,0,0.3-0.1,0.4,0.2c0,0,0,0.1,0.1,0.1L-186.5,25.2z"/>
</g>
<g>
	<path class="st3" d="M-211.1,16.1h16.2v3.5h-1.6l-0.4-2.1l-0.4-0.3h-4.4v13l0.5,0.3l1.9,0.1v0.9h-7.5v-0.9l1.9-0.1l0.5-0.3v-13
		h-4.4l-0.4,0.3l-0.4,2.1h-1.6V16.1z"/>
</g>
<path d="M-10.3,13.9"/>
<g class="st4">
	<path class="st3" d="M-183.2,31.4v-1l2.1-0.2l0.6-0.4V17.3L-181,17l-2.3-0.1v-0.9h7.3v0.6l6.4,11.6l6.5-11.5V16h7.3v0.9l-2.2,0.1
		l-0.4,0.3V30l0.4,0.3l2.2,0.1v0.9h-8.2v-1l2.3-0.1l0.3-0.3V17l-8.1,14.4h-1.5l-7.8-14.2v12.6l0.6,0.4l2.1,0.2v0.9L-183.2,31.4z"/>
</g>
<g>
	<path class="st5" d="M-220.2,40.5l0.1-1.1h0l-0.4,1l-1.8,3.2h-0.3l-1.9-3.2l-0.4-1h0l0.1,1.1v4.6h-0.9V38h0.7l2.2,3.7l0.3,0.8l0,0
		l0.3-0.8l2.1-3.6h0.7v7.1h-0.9V40.5z"/>
	<path class="st5" d="M-211,43.2h-2.5l-0.7,1.9h-0.9l2.7-7.3h0.5l2.7,7.3h-1L-211,43.2z M-213.3,42.4h2l-0.7-2l-0.2-1.1l0,0
		l-0.2,1.1L-213.3,42.4z"/>
	<path class="st5" d="M-205.2,38l0.4-0.1l0.5,0h0.5h0.5c0.3,0,0.6,0,0.9,0.1c0.3,0.1,0.5,0.2,0.8,0.3c0.2,0.2,0.4,0.4,0.5,0.6
		c0.1,0.3,0.2,0.6,0.2,0.9c0,0.2,0,0.5-0.1,0.7c-0.1,0.2-0.2,0.4-0.3,0.6c-0.1,0.2-0.3,0.3-0.5,0.4c-0.2,0.1-0.4,0.2-0.6,0.3
		l0.5,0.4l1.7,2.8h-1l-1.9-3l-0.9-0.1v3.2h-0.9V38z M-203.3,38.8h-0.5h-0.2h-0.2v2.5h0.8c0.2,0,0.4,0,0.6-0.1c0.2,0,0.3-0.1,0.5-0.2
		c0.1-0.1,0.3-0.3,0.3-0.4c0.1-0.2,0.1-0.4,0.1-0.6c0-0.3-0.1-0.6-0.3-0.9C-202.6,38.8-203,38.7-203.3,38.8z"/>
	<path class="st5" d="M-196.5,41.5c0-0.5,0.1-1.1,0.2-1.6c0.1-0.4,0.3-0.8,0.6-1.1c0.2-0.3,0.6-0.5,0.9-0.7c0.8-0.3,1.7-0.3,2.5,0
		c0.4,0.2,0.7,0.4,0.9,0.7c0.3,0.4,0.4,0.7,0.5,1.2c0.1,0.5,0.2,1,0.2,1.5c0,0.5-0.1,1.1-0.2,1.6c-0.1,0.4-0.3,0.8-0.6,1.2
		c-0.2,0.3-0.6,0.5-0.9,0.7c-0.8,0.3-1.7,0.3-2.5,0c-0.4-0.2-0.7-0.4-0.9-0.8c-0.3-0.3-0.4-0.7-0.5-1.2
		C-196.5,42.5-196.5,42-196.5,41.5z M-195.5,41.5c0,0.4,0,0.7,0.1,1.1c0.1,0.3,0.2,0.6,0.3,0.9c0.1,0.2,0.4,0.5,0.6,0.6
		c0.3,0.2,0.6,0.2,0.9,0.2c0.6,0,1.1-0.3,1.4-0.7c0.4-0.6,0.6-1.4,0.5-2.1c0-0.4,0-0.7-0.1-1.1c-0.1-0.3-0.2-0.6-0.3-0.9
		c-0.1-0.2-0.4-0.5-0.6-0.6c-0.3-0.2-0.6-0.2-0.9-0.2c-0.6,0-1.1,0.2-1.4,0.7C-195.4,40.1-195.6,40.8-195.5,41.5z M-189.9,47
		c-0.2,0-0.3,0.1-0.5,0.1c-0.2,0-0.3,0-0.5,0c-0.3,0-0.7,0-1-0.1c-0.3-0.1-0.6-0.1-0.9-0.2l-0.9-0.2c-0.3-0.1-0.5-0.1-0.8-0.1
		c-0.2,0-0.3,0-0.5,0.1v-0.9c0.2,0,0.4-0.1,0.6-0.1c0.3,0,0.6,0,0.8,0.1l0.9,0.2c0.3,0.1,0.6,0.2,0.9,0.2c0.3,0.1,0.6,0.1,1,0.1
		c0.1,0,0.3,0,0.4,0c0.2,0,0.3,0,0.5-0.1L-189.9,47z"/>
	<path class="st5" d="M-182,38h0.9v4.7c0,0.4,0,0.8-0.2,1.1c-0.1,0.3-0.3,0.6-0.5,0.8c-0.2,0.2-0.5,0.4-0.7,0.5
		c-0.3,0.1-0.6,0.2-1,0.2c-0.7,0-1.4-0.2-1.9-0.6c-0.5-0.5-0.7-1.1-0.7-1.8v-4.9h0.9v4.5c-0.1,0.5,0.1,1,0.4,1.4
		c0.3,0.3,0.8,0.4,1.2,0.4c0.4,0,0.8-0.1,1.1-0.4c0.3-0.4,0.4-0.9,0.4-1.4V38z"/>
	<path class="st5" d="M-176.3,38h3.9v0.9h-3V41h2.7v0.9h-2.7v2.3h3v0.9h-4V38z"/>
	<path class="st5" d="M-167.6,38h3.9v0.9h-3V41h2.7v0.9h-2.7v2.3h3v0.9h-4V38z"/>
	<path class="st5" d="M-155.8,43.2c0-0.2-0.1-0.5-0.3-0.7c-0.2-0.2-0.4-0.3-0.6-0.4c-0.3-0.1-0.5-0.2-0.8-0.3
		c-0.3-0.1-0.6-0.2-0.8-0.4c-0.3-0.2-0.5-0.4-0.6-0.6c-0.2-0.3-0.3-0.7-0.3-1c0-0.5,0.2-1,0.6-1.4c0.5-0.4,1.1-0.6,1.7-0.5
		c0.4,0,0.8,0,1.1,0.1c0.3,0,0.6,0.1,0.8,0.3l-0.3,0.9c-0.2-0.1-0.5-0.2-0.7-0.2c-0.3-0.1-0.7-0.1-1-0.1c-0.3,0-0.7,0.1-0.9,0.3
		c-0.2,0.2-0.3,0.4-0.3,0.7c0,0.2,0.1,0.5,0.3,0.6c0.2,0.2,0.4,0.3,0.6,0.4c0.3,0.1,0.5,0.2,0.8,0.4c0.3,0.1,0.6,0.3,0.8,0.4
		c0.2,0.2,0.5,0.4,0.6,0.6c0.2,0.3,0.3,0.6,0.3,1c0,0.3-0.1,0.6-0.2,0.9c-0.1,0.3-0.3,0.5-0.5,0.7c-0.2,0.2-0.5,0.3-0.8,0.4
		c-0.3,0.1-0.7,0.2-1,0.1c-0.4,0-0.9,0-1.3-0.1c-0.3-0.1-0.5-0.2-0.8-0.3l0.3-0.9c0.2,0.1,0.5,0.2,0.7,0.3c0.3,0.1,0.7,0.1,1,0.1
		c0.2,0,0.4,0,0.6-0.1c0.2,0,0.3-0.1,0.5-0.2c0.1-0.1,0.2-0.2,0.3-0.3C-155.9,43.6-155.8,43.4-155.8,43.2z"/>
</g>
<g class="st4">
	<path class="st3" d="M-224.9,31.5v-0.9l1.8-0.1l0.5-0.3V17.5l-0.5-0.3l-1.8-0.1v-0.9h7.3V17l-1.8,0.1l-0.5,0.3v12.7l0.5,0.3
		l1.8,0.1v1H-224.9z"/>
</g>
<line class="st6" x1="-224.7" y1="34.4" x2="-155.7" y2="34.4"/>
<path d="M-86.2-47.8"/>
<path class="st3" d="M-219,12.3l-3.7,0.9c6.2-4.3,12.7-9,19.2-14c5.2-4,10.1-7.9,14.8-11.9c4.1,3.9,8.5,7.9,13.2,11.9
	c6.1,5.2,12.1,9.8,17.8,14c-1.5-0.3-2.3-0.5-3.9-0.8L-188.7-4L-219,12.3z"/>
</svg>
