<svg id="ba62bee2-2b78-4477-a839-c40743f78b57" data-name="Layer 1" xmlns="http://www.w3.org/2000/svg" viewBox="0 0 81.4 64.79"><defs><style>.\36 755ffed-8e0e-4dd2-b5b8-04d65da5b491{opacity:0.7;}.\36 a8e8e9b-c5ac-4aa4-887c-994405f28f86{fill:#e6e6e6;}.\32 987d597-569c-43a5-af48-21863131abdd,.\35 bc68159-2371-41c1-ae2d-5833d514e9be,.\35 c7a0fcd-4d80-46bc-9607-a419aa71660b,.\37 76f5447-e0ec-4fbf-b3ef-a4fe87ff0305,.fa9bd17b-f5b0-4978-af2d-bc4ca8695942{opacity:0.96;stroke:#fff;}.\37 76f5447-e0ec-4fbf-b3ef-a4fe87ff0305,.fa9bd17b-f5b0-4978-af2d-bc4ca8695942{isolation:isolate;}.\32 987d597-569c-43a5-af48-21863131abdd,.\37 76f5447-e0ec-4fbf-b3ef-a4fe87ff0305{font-size:23.92px;}.\31 5d41089-a6b5-40e3-aba4-d27fd7474bfd,.\32 987d597-569c-43a5-af48-21863131abdd,.\35 bc68159-2371-41c1-ae2d-5833d514e9be,.\35 c7a0fcd-4d80-46bc-9607-a419aa71660b,.\37 76f5447-e0ec-4fbf-b3ef-a4fe87ff0305,.fa9bd17b-f5b0-4978-af2d-bc4ca8695942{fill:#fff;}.\31 5d41089-a6b5-40e3-aba4-d27fd7474bfd,.\32 987d597-569c-43a5-af48-21863131abdd,.\35 3672375-91f3-477f-9ad9-219fc6ec96ab,.\35 bc68159-2371-41c1-ae2d-5833d514e9be,.\35 c7a0fcd-4d80-46bc-9607-a419aa71660b,.\37 76f5447-e0ec-4fbf-b3ef-a4fe87ff0305,.fa9bd17b-f5b0-4978-af2d-bc4ca8695942{stroke-miterlimit:10;}.\32 987d597-569c-43a5-af48-21863131abdd,.\35 bc68159-2371-41c1-ae2d-5833d514e9be,.\37 76f5447-e0ec-4fbf-b3ef-a4fe87ff0305{stroke-width:1.8px;font-family:Raleway, Raleway;}.\37 76f5447-e0ec-4fbf-b3ef-a4fe87ff0305{letter-spacing:-0.03em;}.\31 5d41089-a6b5-40e3-aba4-d27fd7474bfd{stroke:#fffdfd;}.\35 bc68159-2371-41c1-ae2d-5833d514e9be{font-size:23.92px;}.fa9bd17b-f5b0-4978-af2d-bc4ca8695942{font-size:10.72px;font-family:PTSans-Caption, PT Sans Caption;letter-spacing:0.35em;}.\37 c8a4ccc-11b8-4979-875b-02ec7fe031a1{letter-spacing:0.32em;}.\35 3672375-91f3-477f-9ad9-219fc6ec96ab{fill:#f2f2f2;stroke:#f2f2f2;stroke-width:0.75px;opacity:0.8;}</style></defs><title>8</title><g class="6755ffed-8e0e-4dd2-b5b8-04d65da5b491"><path class="6a8e8e9b-c5ac-4aa4-887c-994405f28f86" d="M49.52,68.25V66.54c0-.07.07-.14.07-.27a14.66,14.66,0,0,1,1.92-6.52A16.48,16.48,0,0,1,68.4,51.16a15.57,15.57,0,0,1,5.15,1.65,16.08,16.08,0,0,1,8.1,19.29,16.55,16.55,0,0,1-30.07,3.16,14.94,14.94,0,0,1-2-5.63A9.67,9.67,0,0,0,49.52,68.25Zm29.24-5.77c-.07.21-.07.34-.14.55s-.14.27-.34.41-.34,0-.48-.07-.14-.07-.21-.07-.14-.07-.07-.21a.52.52,0,0,0-.14-.34.49.49,0,0,1-.14-.76.07.07,0,0,1,.07-.07c.27-.34.21-.55-.21-.69a.87.87,0,0,0-.41-.07c-.07,0-.14-.07-.21-.07-.21-.21-.07-.48-.07-.76a1.43,1.43,0,0,0-.55-1.1.6.6,0,0,1-.34-.48c0-.07-.07-.27-.07-.34a1,1,0,0,0-.27-.76,1.64,1.64,0,0,1-.48-.89c0-.07,0-.07-.07-.07a4.19,4.19,0,0,1-1-.48c-.07-.07-.07,0-.14,0s-.07.07,0,.07.07.27-.07.34a.07.07,0,0,0-.07.07c.69.14.89.89,1.65,1a.21.21,0,0,1-.14.07c-.21.07-.41.14-.48.41a.07.07,0,0,1-.07.07h0c-.41-.07-.89-.14-1.1-.62a1.55,1.55,0,0,0-1-.89l-.48-.27c-.34-.07-.48-.34-.76-.62-.07-.07-.07-.14.07-.27a2,2,0,0,1,.89-.27c.07,0,.14,0,.14-.07A.27.27,0,0,0,72,55c-.14-.07-.14-.07-.27,0a.73.73,0,0,1-.55.07.07.07,0,0,1-.07-.07h0c.07-.21,0-.34-.21-.34s-.07-.07-.14-.07a1,1,0,0,0-.48-.41,10.47,10.47,0,0,1-1.1-.76c-.34-.27-.34-.21-.48.07a.66.66,0,0,1-.62.14,5.39,5.39,0,0,0-1-.14,2.18,2.18,0,0,0-.62.21,3.73,3.73,0,0,1-1.24,0c-.21-.07-.48-.07-.48-.41a.07.07,0,0,0-.07-.07c-.27,0-.48-.07-.76.14a.25.25,0,0,1-.21.07c-.34,0-.62.07-.89.07-.07,0-.14.07-.14.21a1.16,1.16,0,0,1-.14.34,2.44,2.44,0,0,1-.69.14c-.27.07-.34.14-.34.41,0,.07-.07.07-.07.14s-.34,0-.62,0a.27.27,0,0,0-.27.14,1.27,1.27,0,0,1-.48.82l-.07.07-.76.76a2.46,2.46,0,0,1-.76.27c.14-.21.27-.34.34-.48S59,56,58.85,56s-.41-.07-.48-.34c-.27-.34-.27-.34.07-.69a.79.79,0,0,1,.48-.34.77.77,0,0,0,.48-.55c0-.14-.07-.34,0-.48a2.29,2.29,0,0,1,.41-.21.07.07,0,0,0,.07-.07.45.45,0,0,0,.34-.62c0-.27-.14-.34-.34-.27A16.15,16.15,0,0,0,50.07,65.3a15.41,15.41,0,0,0,1.78,9.4,15.59,15.59,0,0,0,5.35,5.63,16,16,0,0,0,8.86,2.54c.55,0,1.1-.07,1.65-.07.07,0,.14,0,.14-.07a1.27,1.27,0,0,1,.14-.48c.07-.27,0-.41-.34-.48a.24.24,0,0,1-.14-.07,6.06,6.06,0,0,0-1.85-1.65.66.66,0,0,1-.41-.76.89.89,0,0,1,.62-.89.52.52,0,0,0,.34-.48v-.41c-.07-.14.14-.34-.07-.41a1.17,1.17,0,0,0-.48-.07h-.07a1.15,1.15,0,0,1-.82-.07,4.73,4.73,0,0,0-.55-.21.69.69,0,0,1-.34-.27,2.15,2.15,0,0,0-.34-.69A3.1,3.1,0,0,0,62.35,75,10.9,10.9,0,0,0,61,74.57a1.87,1.87,0,0,1-.89-.48,2.87,2.87,0,0,0-1.1-.76.69.69,0,0,1-.34-.76v-.14a2,2,0,0,0-.21-.69A5.94,5.94,0,0,1,58,70.59a3.62,3.62,0,0,0-.21-.82.07.07,0,0,0-.07-.07.24.24,0,0,0-.07.14,6.43,6.43,0,0,0,.27,1.1,2,2,0,0,0,.41.62,1.18,1.18,0,0,1-.82-.69,24.58,24.58,0,0,1-.76-2.4,1.51,1.51,0,0,1-.07-.55c.07-.48.07-.89.14-1.3a4,4,0,0,1,.89-2.13c.14-.21.34-.41.14-.76v-.21a4.74,4.74,0,0,1,.27-1.72,3.69,3.69,0,0,0,.27-1.51c-.07-.34-.14-.76-.55-.89a10.69,10.69,0,0,0-1-.41c-.41,0-.41-.21-.41-.55l.34.21c.27.14.41.14.48-.14.07-.07.07-.27.14-.34a.54.54,0,0,1,.76-.34c.34.07.34.07.41-.27s.21-.34.48-.27c.07,0,.14.07.27,0A1.13,1.13,0,0,1,60,57.2c.14,0,.34.07.34.21a1.51,1.51,0,0,1,.07.55,1.14,1.14,0,0,0,.34.89l.34.34c.48.41,1,.82,1.58,1.24.07-.34.07-.34-.07-.48a.56.56,0,0,1-.27-.41.37.37,0,0,0-.21-.27c-.21-.07-.21-.27,0-.34a.07.07,0,0,1,.07-.07.75.75,0,0,1,.76.07c.07.07.07.27.27.27a.73.73,0,0,1,.41.48,1.9,1.9,0,0,1,.07.62c0,.14,0,.34.14.34a.25.25,0,0,0,.27-.27c.07-.07.07-.27.07-.34s.07-.07.21-.07.14,0,.14.07.07.27.07.34c0,.34.14.34.41.41s.27-.07.48-.14a.78.78,0,0,1-.55-.48c-.07-.07-.21-.14-.07-.27a.41.41,0,0,1,.48-.27,6.74,6.74,0,0,1,1.24.55.73.73,0,0,1,.41.48.62.62,0,0,0,.41.41c.07.07.14.07.27.07s.27.34.34.55-.07.14-.14.27-.07.27-.07.34,0,.14-.07.14a.59.59,0,0,1-.48,0,4.73,4.73,0,0,0-.55-.21c-.21-.07-.41-.07-.69-.14.41-.21.69-.48.55-.89s-.55-.41-.89-.55c.07.14.34.21.21.34a.56.56,0,0,1-.34.34,4.73,4.73,0,0,0-.89.76,1.69,1.69,0,0,0-.55,1.17c-.07.27.14.48.41.55s.34.07.55.14.34.21.34.41a1.34,1.34,0,0,0,.55.89,1.9,1.9,0,0,0,.07-.62c-.07-.34.41-.69.07-1h0a5.2,5.2,0,0,0-.07-1c0-.14.07-.14.14-.21s.41.07.55.07.48.07.62.34a.61.61,0,0,0,.55.34c.14,0,.34.07.48.07a7.24,7.24,0,0,0,.76.48,1.93,1.93,0,0,1,.69,1,.42.42,0,0,1-.21.48l-.62.21a1.58,1.58,0,0,0-1,.62c-.07.07-.07.07,0,.07h.07c.14-.07.34-.14.41-.27a.44.44,0,0,1,.41,0c.07.07.07.07.07.14s.07.21.27.21a.52.52,0,0,0,.27-.07c.21-.07.21.07.27.21s-.07.14-.07.21a3.89,3.89,0,0,0-.89.55c-.07.07-.07.07-.14,0-.27-.07-.34-.07-.55.14s-.21.69-.62.76l-.14.21a2.05,2.05,0,0,0-.48,1.3.49.49,0,0,1-.21.41l-.69.48a1.1,1.1,0,0,0-.34,1.3,1.17,1.17,0,0,1,.07.48c0,.07.07.21-.07.21s-.21.14-.34-.07a5.94,5.94,0,0,1-.48-.69,1.21,1.21,0,0,0-1.3-.34,1.17,1.17,0,0,1-.48.07,1.27,1.27,0,0,0-.48-.14c-.27-.07-.48.07-.76.14a1.49,1.49,0,0,0-.48,1.51c0,.07-.07.27.07.34a1.92,1.92,0,0,0,.89.62.33.33,0,0,0,.41-.14.51.51,0,0,1,.55-.34c.21-.07.48.21.41.34a1.56,1.56,0,0,1-.21.76c-.07.21-.07.34.21.34a4,4,0,0,1,.89.14.46.46,0,0,1,.34.69,3,3,0,0,0-.07.34.24.24,0,0,0,.07.34.6.6,0,0,0,.48.34c.48.07,1,.34,1.37-.27l.14-.14c.34-.14.55-.34.89-.14a.74.74,0,0,0,.76,0c.07-.07.14-.07.27-.07a3.13,3.13,0,0,0,1.37-.14c.14-.07.34-.07.41.07a3.72,3.72,0,0,0,2.13.41.83.83,0,0,1,1,.48.61.61,0,0,0,.76.34,6.44,6.44,0,0,0,1.65-.41,1,1,0,0,1,.89.07c.07.07.07.14.07.27-.21.34-.41.55-.62.89a2.07,2.07,0,0,0-.34,1.1,16.17,16.17,0,0,0,5.63-10.23.37.37,0,0,0-.27.21c-.14.27-.34.48-.48.76-.07.07-.07.07-.14.07a1.47,1.47,0,0,1-1.17-.82,6.38,6.38,0,0,1-.76-3.36,2.6,2.6,0,0,0-.34-1.72c-.07-.07-.07-.14-.07-.27a1,1,0,0,1,.07-.89c.34.27.34,0,.21-.21Zm-.89-3.3.48.21c.07.07.21.07.14.21s-.07.27-.21.21H78c-.21-.07-.21.07-.14.21a.92.92,0,0,1,.14.62,1.09,1.09,0,0,0,.27.82c.07.07.14.27.21.34a.83.83,0,0,0,.34.34.51.51,0,0,0,.07-.34,3,3,0,0,1,0-1.1c0-.21.07-.34.34-.27.07,0,.14.07.27.07a1,1,0,0,0-.27-.89c-.07-.07-.21-.27-.27-.34s-.07-.14.07-.14a.22.22,0,0,0,.21-.21v-.07a2.92,2.92,0,0,0-.14-.76,3.61,3.61,0,0,0-.76-1,.59.59,0,0,1,0,.48.79.79,0,0,0,.41.89.36.36,0,0,1,.14.27.37.37,0,0,1-.48.34h0a.4.4,0,0,0-.55.07Z" transform="translate(-25.1 -32.95)"/><path class="6a8e8e9b-c5ac-4aa4-887c-994405f28f86" d="M71.28,62.14a8.69,8.69,0,0,1-1.24.41c-.07,0-.07,0-.14-.07l-.69-.41c-.07-.07-.07-.07-.07-.14s-.07-.34-.27-.34-.21-.14-.21-.27-.07-.34-.07-.48a.57.57,0,0,0-.34-.55A5.5,5.5,0,0,0,67,59.4a.91.91,0,0,1-.55-.76c0-.07-.07-.14-.07-.21-.27.21-.27.48-.34.76s-.07.27-.34.07c-.07-.07-.21-.07-.34-.21s-.34-.41-.14-.69a.6.6,0,0,0,.07-.48c-.07-.07-.07-.07.07-.14a1.33,1.33,0,0,1,.89-.21c.07,0,.07,0,.07.07s.21.27.34.07c.34-.48.89-.48,1.51-.48.07,0,.14.07.27.07a6.93,6.93,0,0,0,1,.48,2.09,2.09,0,0,1,.89.62l.27.27a.73.73,0,0,1,.34.76c0,.14-.07.21-.21.27a.49.49,0,0,0-.21.41c0,.41-.07.89-.07,1.3,0,.21.14.34.34.48l.48.27Z" transform="translate(-25.1 -32.95)"/><path class="6a8e8e9b-c5ac-4aa4-887c-994405f28f86" d="M75,59.95c.07.34.48.41.48.76a.83.83,0,0,1-.82-.55,4.88,4.88,0,0,0-.55-1.24c0-.07-.07-.07,0-.14s.21-.21.34-.07a2.92,2.92,0,0,0,1.17.69c.07.07.21.07.34.14s.34.34.27.48h0c0,.07,0,.07-.07.07-.07.34-.07.34-.34.21A7.15,7.15,0,0,1,75,59.95Z" transform="translate(-25.1 -32.95)"/><path class="6a8e8e9b-c5ac-4aa4-887c-994405f28f86" d="M72.58,59.26a1.89,1.89,0,0,1-.55,1c-.07.07-.34-.07-.48-.14a1.38,1.38,0,0,1-.21-.76v-.07c.34-.07.48-.48.82-.48C72.24,58.92,72.58,59.19,72.58,59.26Z" transform="translate(-25.1 -32.95)"/><path class="6a8e8e9b-c5ac-4aa4-887c-994405f28f86" d="M64.62,73.74a1,1,0,0,1,.76-.14,5.39,5.39,0,0,0,1.51.34.52.52,0,0,1,.34.14c.07.07.14,0,.14.07a.52.52,0,0,1-.14.27,1.15,1.15,0,0,1-.82-.07,2.68,2.68,0,0,0-1.51-.55l-.14-.07Z" transform="translate(-25.1 -32.95)"/><path class="6a8e8e9b-c5ac-4aa4-887c-994405f28f86" d="M70.73,66.33c-.48.07-.55-.34-.82-.55a.25.25,0,0,1-.07-.21.6.6,0,0,1,.07-.48c.07-.07.14.07.27.21a4.81,4.81,0,0,1,.69.55l.07.07c.14.07.34.27.27.41S70.8,66.26,70.73,66.33Z" transform="translate(-25.1 -32.95)"/><path class="6a8e8e9b-c5ac-4aa4-887c-994405f28f86" d="M68.94,74.71a2.34,2.34,0,0,1-1.37,0,.36.36,0,0,1-.14-.27.15.15,0,0,1,.14-.14,1.17,1.17,0,0,1,.48-.07c.14,0,.34-.07.41.21a.07.07,0,0,0,.07.07Z" transform="translate(-25.1 -32.95)"/></g><text class="776f5447-e0ec-4fbf-b3ef-a4fe87ff0305" transform="translate(17.4 48.39) scale(1.29 1)">T</text><path class="15d41089-a6b5-40e3-aba4-d27fd7474bfd" d="M27.26,47.82" transform="translate(-25.1 -32.95)"/><text class="5bc68159-2371-41c1-ae2d-5833d514e9be" transform="translate(46.6 48.22) scale(1.54 1)">M</text><text class="fa9bd17b-f5b0-4978-af2d-bc4ca8695942" transform="translate(1.9 61.59) scale(0.9 1)">MA<tspan class="7c8a4ccc-11b8-4979-875b-02ec7fe031a1" x="23.76" y="0">R</tspan><tspan x="34.16" y="0">QUEES</tspan></text><text class="2987d597-569c-43a5-af48-21863131abdd" transform="translate(0.9 48.36) scale(1.28 1)">I</text><line class="53672375-91f3-477f-9ad9-219fc6ec96ab" x1="2.65" y1="50.97" x2="76.75" y2="50.97"/><path class="5c7a0fcd-4d80-46bc-9607-a419aa71660b" d="M35.73,60.17l-4.9,1c5.78-3.92,11.83-8.31,18-13.22S61.55,38.28,66.6,33.63c5.22,4.7,9.81,9.48,15.72,14.32q8.41,6.88,16.5,12.89L94,59.95,66.66,43Z" transform="translate(-25.1 -32.95)"/><path class="15d41089-a6b5-40e3-aba4-d27fd7474bfd" d="M-73.5-26.5" transform="translate(-25.1 -32.95)"/></svg>