<svg id="1f18a469-b6b2-4166-8e6e-53e29bb53beb" data-name="Layer 1" xmlns="http://www.w3.org/2000/svg" viewBox="0 0 128.59 112"><defs><style>.\39 aa8d445-e90e-4a1c-b32a-6d2718e47f94{fill:#003e7b;}.\34 faf44c4-48e6-49d4-a3a4-1460105f526d,.\37 56afa9e-8c30-4fb4-835e-48cc736f7da6,.\38 cd4f182-db1e-4fb4-914d-00660cd9056d{fill:#fff;}.\37 56afa9e-8c30-4fb4-835e-48cc736f7da6{stroke:#fffdfd;}.\34 faf44c4-48e6-49d4-a3a4-1460105f526d,.\37 56afa9e-8c30-4fb4-835e-48cc736f7da6,.\38 cd4f182-db1e-4fb4-914d-00660cd9056d,.\39 bf5a5ef-1f1f-4517-82e2-92349d536c21{stroke-miterlimit:10;}.\30 59c6bb2-75f9-4c52-873f-3960b5025bfa{fill:#c5c5c9;}.\34 faf44c4-48e6-49d4-a3a4-1460105f526d,.\38 cd4f182-db1e-4fb4-914d-00660cd9056d{stroke:#fff;}.\34 6481ee4-b845-455e-bb72-2b718d86e92c{opacity:0.98;}.\38 cd4f182-db1e-4fb4-914d-00660cd9056d{stroke-width:0.5px;}.\39 bf5a5ef-1f1f-4517-82e2-92349d536c21{fill:none;stroke:#ccc;stroke-width:0.75px;opacity:0.8;isolation:isolate;}</style></defs><title>80</title><rect class="9aa8d445-e90e-4a1c-b32a-6d2718e47f94" width="128.59" height="112" rx="9.61" ry="9.61"/><path class="756afa9e-8c30-4fb4-835e-48cc736f7da6" d="M-73.5-26.5" transform="translate(0.59 -7)"/><path class="059c6bb2-75f9-4c52-873f-3960b5025bfa" d="M41.16,65.21V62.61c0-.1.1-.21.1-.41a22.36,22.36,0,0,1,2.93-9.94A25.11,25.11,0,0,1,69.91,39.18a23.72,23.72,0,0,1,7.83,2.52A24.5,24.5,0,0,1,90,71.09,25.21,25.21,0,0,1,44.19,75.9a22.76,22.76,0,0,1-2.93-8.62A14.74,14.74,0,0,0,41.16,65.21Zm44.55-8.78c-.1.31-.1.53-.21.84a1.06,1.06,0,0,1-.53.63c-.31.21-.53,0-.73-.1s-.21-.1-.31-.1-.21-.1-.1-.31a.79.79,0,0,0-.21-.53.74.74,0,0,1-.29-1l.08-.12a.1.1,0,0,1,.1-.1c.41-.53.31-.84-.31-1.05a1.33,1.33,0,0,0-.63-.1c-.1,0-.21-.1-.31-.1-.31-.31-.1-.73-.1-1.12a2.24,2.24,0,0,0-.84-1.68.91.91,0,0,1-.53-.73c0-.1-.1-.41-.1-.53a1.58,1.58,0,0,0-.41-1.12,2.5,2.5,0,0,1-.73-1.36c0-.1,0-.1-.1-.1A6.4,6.4,0,0,1,78,47c-.1-.1-.1,0-.21,0s-.1.1,0,.1c.31.21.1.41-.1.53a.1.1,0,0,0-.1.1c1.05.21,1.36,1.36,2.52,1.57a.32.32,0,0,1-.21.1c-.31.1-.63.21-.73.63a.1.1,0,0,1-.1.1h0c-.63-.1-1.36-.21-1.68-.94a2.36,2.36,0,0,0-1.46-1.36c-.21-.1-.53-.31-.73-.41-.53-.1-.73-.53-1.12-.94-.1-.1-.1-.21.1-.41a3,3,0,0,1,1.25-.53c.1,0,.21,0,.21-.1a.41.41,0,0,0-.21-.42c-.21-.1-.21-.1-.41,0a1.12,1.12,0,0,1-.84.1.1.1,0,0,1-.1-.1h0c.1-.31,0-.53-.31-.53-.1,0-.1-.1-.21-.1a1.48,1.48,0,0,0-.69-.6,16,16,0,0,1-1.68-1.12c-.53-.41-.53-.31-.73.1a1,1,0,0,1-.94.21A8.21,8.21,0,0,0,68,42.68a3.35,3.35,0,0,0-.94.31,5.69,5.69,0,0,1-1.88,0c-.31-.1-.73-.1-.73-.63a.1.1,0,0,0-.1-.1h0c-.41,0-.73-.1-1.12.21a.38.38,0,0,1-.31.1c-.53,0-.94.1-1.36.1-.1,0-.21.1-.21.31a1.77,1.77,0,0,1-.21.53,3.71,3.71,0,0,1-1.05.21c-.41.1-.53.21-.53.63,0,.1-.1.1-.1.21-.1-.1-.53,0-.94,0a.41.41,0,0,0-.41.21A2,2,0,0,1,57.37,46l-.1.1-1.12,1.12a3.75,3.75,0,0,1-1.12.41c.21-.31.41-.53.53-.73s.1-.41-.1-.41c-.41.1-.63-.1-.73-.53-.41-.53-.41-.53.1-1.05a1.21,1.21,0,0,1,.73-.53,1.12,1.12,0,0,0,.73-.84c0-.21-.1-.53,0-.73a3.48,3.48,0,0,1,.63-.31.1.1,0,0,0,.1-.1h0a.68.68,0,0,0,.54-.8l0-.08c0-.41-.21-.53-.53-.41A24.6,24.6,0,0,0,42,60.72a23.48,23.48,0,0,0,2.72,14.33,23.75,23.75,0,0,0,8.16,8.58,24.45,24.45,0,0,0,13.48,3.87c.84,0,1.68-.1,2.52-.1.1,0,.21,0,.21-.1a1.93,1.93,0,0,1,.21-.73c.1-.41,0-.63-.53-.73a.37.37,0,0,1-.21-.1,9.22,9.22,0,0,0-2.83-2.52,1,1,0,0,1-.63-1.12A1.35,1.35,0,0,1,66,80.7a.78.78,0,0,0,.53-.73v-.63c-.1-.21.21-.53-.1-.63a1.78,1.78,0,0,0-.73-.1h-.1a1.74,1.74,0,0,1-1.27-.16,7.21,7.21,0,0,0-.84-.31,1,1,0,0,1-.53-.41,3.28,3.28,0,0,0-.53-1.05,4.73,4.73,0,0,0-1.78-1.12,16.6,16.6,0,0,0-2.06-.73,2.85,2.85,0,0,1-1.36-.73A4.38,4.38,0,0,0,55.61,73a1.05,1.05,0,0,1-.53-1.12v-.21a3.07,3.07,0,0,0-.31-1.05A9,9,0,0,1,54,68.83a5.51,5.51,0,0,0-.31-1.25.1.1,0,0,0-.1-.1.37.37,0,0,0-.1.21,9.79,9.79,0,0,0,.41,1.68,3,3,0,0,0,.63.94,1.8,1.8,0,0,1-1.25-1.05A37.44,37.44,0,0,1,52.2,65.6a2.3,2.3,0,0,1-.1-.84c.1-.73.1-1.36.21-2a6,6,0,0,1,1.3-3.32c.21-.31.53-.63.21-1.12V58a7.22,7.22,0,0,1,.41-2.62,5.59,5.59,0,0,0,.41-2.3c-.1-.53-.21-1.12-.84-1.36a16.29,16.29,0,0,0-1.57-.63c-.63,0-.63-.31-.63-.84l.53.31c.41.21.63.21.73-.21.1-.1.1-.41.21-.53a.82.82,0,0,1,1-.57l.11,0c.53.1.53.1.63-.41s.31-.53.73-.41c.1,0,.21.1.41,0a1.72,1.72,0,0,1,1.05-.1c.21,0,.53.1.53.31a2.3,2.3,0,0,1,.1.84,1.73,1.73,0,0,0,.53,1.36l.53.53c.73.63,1.57,1.25,2.4,1.88.1-.53.1-.53-.1-.73a.86.86,0,0,1-.41-.63.56.56,0,0,0-.31-.41c-.31-.1-.31-.41,0-.53a.1.1,0,0,1,.1-.1h0a1.12,1.12,0,0,1,1.12.1c.1.1.1.41.41.41a1.12,1.12,0,0,1,.63.73,2.9,2.9,0,0,1,.1.94c0,.21,0,.53.21.53a.38.38,0,0,0,.41-.41c.1-.1.1-.41.1-.53s.1-.1.31-.1.21,0,.21.1.1.41.1.53c0,.53.21.53.63.63s.41-.1.73-.21a1.2,1.2,0,0,1-.84-.73c-.1-.1-.31-.21-.1-.41a.63.63,0,0,1,.73-.41,10.28,10.28,0,0,1,1.88.84,1.12,1.12,0,0,1,.63.73.94.94,0,0,0,.63.63c.1.1.21.1.41.1s.41.53.53.84c.1.1-.1.21-.21.41a1,1,0,0,0-.1.53c0,.11,0,.21-.1.21a.89.89,0,0,1-.73,0,7.21,7.21,0,0,0-.84-.31c-.31-.1-.63-.1-1.05-.21.63-.31,1.05-.73.84-1.36s-.84-.63-1.36-.84c.1.21.53.31.31.53a.86.86,0,0,1-.53.53,7.2,7.2,0,0,0-1.36,1.12,2.58,2.58,0,0,0-.84,1.78c-.1.41.21.73.63.84s.53.1.84.21a.67.67,0,0,1,.53.63,2,2,0,0,0,1,1.34,2.9,2.9,0,0,0,.1-.94c-.1-.53.63-1.05.1-1.57h0a7.92,7.92,0,0,0-.1-1.57c0-.21.1-.21.21-.31.31-.1.63.1.84.1a1.09,1.09,0,0,1,.94.53.93.93,0,0,0,.84.53c.21,0,.53.1.73.1a11,11,0,0,0,1.12.73,2.93,2.93,0,0,1,1.13,1.51.64.64,0,0,1-.31.73l-.94.31a2.4,2.4,0,0,0-1.46.94c-.1.1-.1.1,0,.1h.1c.21-.1.53-.21.63-.41a.67.67,0,0,1,.63,0c.1.1.1.1.1.21,0,.31.1.31.41.31a.79.79,0,0,0,.41-.1c.31-.1.31.1.41.31s-.1.21-.1.31a5.93,5.93,0,0,0-1.36.84c-.1.1-.1.1-.21,0-.41-.1-.53-.1-.84.21s-.31,1.05-.94,1.12l-.21.31a3.13,3.13,0,0,0-.78,2,.75.75,0,0,1-.31.63l-1.05.73a1.68,1.68,0,0,0-.53,2,1.78,1.78,0,0,1,.1.73c0,.1.1.31-.1.31s-.31.21-.53-.1a9,9,0,0,1-.73-1.05,1.83,1.83,0,0,0-2-.53,1.78,1.78,0,0,1-.73.1,1.93,1.93,0,0,0-.73-.21,2.07,2.07,0,0,0-1.12.21,2.24,2.24,0,0,0-.73,2.3c0,.1-.1.41.1.53a2.93,2.93,0,0,0,1.36.94.5.5,0,0,0,.63-.21.78.78,0,0,1,.84-.53c.31-.1.73.31.63.53a2.38,2.38,0,0,1-.31,1.12c-.1.31-.1.53.31.53a6.13,6.13,0,0,1,1.36.21.7.7,0,0,1,.53,1.05,4.53,4.53,0,0,0-.1.53.37.37,0,0,0,.08.51h0a.91.91,0,0,0,.73.53c.73.1,1.57.53,2.09-.41l.21-.21c.53-.21.84-.53,1.36-.21a1.12,1.12,0,0,0,1.12,0c.1-.1.21-.1.41-.1a4.77,4.77,0,0,0,2.09-.21c.21-.1.53-.1.63.1a5.67,5.67,0,0,0,3.29.66,1.27,1.27,0,0,1,1.46.73.93.93,0,0,0,1.12.53A9.82,9.82,0,0,0,81.63,78a1.5,1.5,0,0,1,1.36.1c.1.1.1.21.1.41-.31.53-.63.84-.94,1.36a3.16,3.16,0,0,0-.53,1.68,24.6,24.6,0,0,0,8.58-15.59.56.56,0,0,0-.41.31c-.21.41-.53.73-.73,1.12-.1.1-.1.1-.21.1a2.24,2.24,0,0,1-1.78-1.25A9.72,9.72,0,0,1,86,61.1a4,4,0,0,0-.53-2.62c-.1-.1-.1-.21-.1-.41a1.57,1.57,0,0,1,.1-1.36c.53.41.53,0,.31-.31Zm-1.35-5,.73.31c.1.1.31.1.21.31s-.1.41-.31.31h-.41c-.31-.1-.31.1-.21.31a1.41,1.41,0,0,1,.21.94A1.67,1.67,0,0,0,85,54.86c.1.1.21.41.31.53a1.26,1.26,0,0,0,.53.53.78.78,0,0,0,.1-.53,4.47,4.47,0,0,1,0-1.68c0-.31.1-.53.53-.41.1,0,.21.1.41.1A1.54,1.54,0,0,0,86.45,52c-.1-.1-.31-.41-.41-.53s-.1-.21.1-.21a.34.34,0,0,0,.31-.31v-.1a4.47,4.47,0,0,0-.21-1.12,5.5,5.5,0,0,0-1.12-1.46.89.89,0,0,1,0,.73,1.2,1.2,0,0,0,.63,1.36.55.55,0,0,1,.21.41.56.56,0,0,1-.57.55l-.16,0h0a.61.61,0,0,0-.84.1Z" transform="translate(0.59 -7)"/><path class="059c6bb2-75f9-4c52-873f-3960b5025bfa" d="M74.3,55.91a13.25,13.25,0,0,1-1.88.63c-.1,0-.1,0-.21-.1l-1.05-.63c-.1-.1-.1-.1-.1-.21s-.1-.53-.41-.53c-.1-.1-.31-.21-.31-.41s-.1-.53-.1-.73a.86.86,0,0,0-.53-.84,8.39,8.39,0,0,0-2-1.36,1.39,1.39,0,0,1-.84-1.12c0-.1-.1-.21-.1-.31-.41.31-.41.73-.53,1.12s-.1.41-.53.1c-.1-.1-.31-.1-.53-.31A.79.79,0,0,1,65,50.15a.92.92,0,0,0,.1-.73c-.1-.1-.1-.1.1-.21a2,2,0,0,1,1.36-.31c.1,0,.1,0,.1.1s.31.41.53.1c.53-.73,1.36-.73,2.3-.73.1,0,.21.1.41.1a10.55,10.55,0,0,0,1.57.73,3.19,3.19,0,0,1,1.36.94l.41.41a1.12,1.12,0,0,1,.53,1.12c0,.21-.1.31-.31.41a.75.75,0,0,0-.27.66c0,.63-.1,1.36-.1,2,0,.31.21.53.53.73l.73.41Z" transform="translate(0.59 -7)"/><path class="059c6bb2-75f9-4c52-873f-3960b5025bfa" d="M80,52.56c.1.53.73.63.73,1.12a1.26,1.26,0,0,1-1.25-.84A7.44,7.44,0,0,0,78.59,51c0-.1-.1-.1,0-.21s.31-.31.53-.1a4.47,4.47,0,0,0,1.78,1.05c.1.1.31.1.53.21s.53.53.41.73h0c0,.1,0,.1-.1.1-.1.53-.1.53-.53.31A10.89,10.89,0,0,1,80,52.56Z" transform="translate(0.59 -7)"/><path class="059c6bb2-75f9-4c52-873f-3960b5025bfa" d="M76.3,51.52a2.87,2.87,0,0,1-.88,1.57c-.1.1-.53-.1-.73-.21a2.11,2.11,0,0,1-.31-1.12v-.12c.53-.1.73-.73,1.25-.73C75.78,51,76.3,51.42,76.3,51.52Z" transform="translate(0.59 -7)"/><path class="059c6bb2-75f9-4c52-873f-3960b5025bfa" d="M64.17,73.59a1.45,1.45,0,0,1,1.12-.21,8.21,8.21,0,0,0,2.3.53.79.79,0,0,1,.53.21c.1.1.21,0,.21.1a.79.79,0,0,1-.21.41,1.74,1.74,0,0,1-1.25-.1,4.08,4.08,0,0,0-2.3-.84l-.21-.1Z" transform="translate(0.59 -7)"/><path class="059c6bb2-75f9-4c52-873f-3960b5025bfa" d="M73.47,62.28c-.73.1-.84-.53-1.25-.84a.38.38,0,0,1-.1-.31.92.92,0,0,1,.1-.73c.1-.1.21.1.41.31a7.32,7.32,0,0,1,1.05.84l.1.1c.21.1.53.41.41.63S73.58,62.18,73.47,62.28Z" transform="translate(0.59 -7)"/><path class="059c6bb2-75f9-4c52-873f-3960b5025bfa" d="M70.76,75.05a3.57,3.57,0,0,1-2.09,0,.55.55,0,0,1-.21-.41.22.22,0,0,1,.21-.21,1.78,1.78,0,0,1,.73-.1c.21,0,.53-.1.63.31a.1.1,0,0,0,.1.1Z" transform="translate(0.59 -7)"/><path class="4faf44c4-48e6-49d4-a3a4-1460105f526d" d="M31.5,60.49H57.45v5.67H54.91l-.63-3.42-.65-.56h-7V83l.76.53,3.1.18v1.51h-12V83.73l3.07-.18.78-.53V62.18H35.31l-.65.56-.61,3.42H31.5Z" transform="translate(0.59 -7)"/><g class="46481ee4-b845-455e-bb72-2b718d86e92c"><path class="4faf44c4-48e6-49d4-a3a4-1460105f526d" d="M76,85V83.46l3.3-.29,1-.7v-20l-.69-.53-3.66-.23V60.24H87.57v1L97.88,79.75,108.3,61.38V60.26H120v1.43l-3.45.21-.67.53V82.77l.67.53,3.45.18V85h-13.1V83.46l3.61-.18.54-.53V62l-13,23H95.73L83.24,62.34V82.46l1,.7,3.35.29V85Z" transform="translate(0.59 -7)"/></g><path class="8cd4f182-db1e-4fb4-914d-00660cd9056d" d="M16.87,99.51,17,97.68H17l-.64,1.59-2.87,5.06H13l-3-5.08-.6-1.55H9.31l.23,1.8v7.39H8.16V95.44H9.27l3.53,5.86.55,1.24h0l.51-1.27,3.35-5.79h1.12v11.42H16.87Z" transform="translate(0.59 -7)"/><path class="8cd4f182-db1e-4fb4-914d-00660cd9056d" d="M31.58,103.86h-4l-1.12,3H25l4.25-11.59H30l4.27,11.61H32.7ZM28,102.52h3.19L30,99.27l-.39-1.74h0l-.39,1.78Z" transform="translate(0.59 -7)"/><path class="8cd4f182-db1e-4fb4-914d-00660cd9056d" d="M40.88,95.57l.68-.11.76-.08h1.5a6.12,6.12,0,0,1,1.42.17,3.35,3.35,0,0,1,1.21.54,2.77,2.77,0,0,1,.84,1,3.18,3.18,0,0,1,.31,1.49,3.8,3.8,0,0,1-.13,1.16,3.26,3.26,0,0,1-.54,1,3.1,3.1,0,0,1-.8.72,3.81,3.81,0,0,1-1,.44l.77.57,2.69,4.47H46.92l-3.07-4.82-1.49-.22v5H40.88Zm3,1.17H42.33v3.95h1.21a3.72,3.72,0,0,0,1-.12,2.24,2.24,0,0,0,.78-.38,1.74,1.74,0,0,0,.53-.66,2.33,2.33,0,0,0,.19-1,1.78,1.78,0,0,0-.56-1.39A2.35,2.35,0,0,0,43.87,96.74Z" transform="translate(0.59 -7)"/><path class="8cd4f182-db1e-4fb4-914d-00660cd9056d" d="M54.75,101.17a9.08,9.08,0,0,1,.31-2.5A5.38,5.38,0,0,1,56,96.83a4,4,0,0,1,1.46-1.12,5,5,0,0,1,4,0,4,4,0,0,1,1.45,1.12,5.33,5.33,0,0,1,.87,1.87,9.48,9.48,0,0,1,.29,2.41,9.08,9.08,0,0,1-.31,2.5,5.31,5.31,0,0,1-.93,1.87,4,4,0,0,1-1.46,1.12,5,5,0,0,1-4,0,4,4,0,0,1-1.44-1.21,5.41,5.41,0,0,1-.87-1.86A9.5,9.5,0,0,1,54.75,101.17Zm1.57,0a7.83,7.83,0,0,0,.19,1.73,4.73,4.73,0,0,0,.56,1.43,2.88,2.88,0,0,0,1,1,2.59,2.59,0,0,0,1.38.36,2.71,2.71,0,0,0,2.24-1.12,5.59,5.59,0,0,0,.84-3.35,7.7,7.7,0,0,0-.19-1.72A4.72,4.72,0,0,0,61.72,98a2.94,2.94,0,0,0-1-1,2.57,2.57,0,0,0-1.4-.37,2.67,2.67,0,0,0-2.24,1.12A5.59,5.59,0,0,0,56.31,101.17Zm8.94,8.66a4.26,4.26,0,0,1-.77.16,7.22,7.22,0,0,1-.77,0,7.5,7.5,0,0,1-1.59-.17q-.77-.17-1.49-.37l-1.36-.32A5.15,5.15,0,0,0,58,109a2.69,2.69,0,0,0-.73.1v-1.43a4,4,0,0,1,.88-.1,5.47,5.47,0,0,1,1.33.17l1.38.31q.68.19,1.42.36a6.78,6.78,0,0,0,1.53.17,6.24,6.24,0,0,0,.7,0,5.51,5.51,0,0,0,.75-.13Z" transform="translate(0.59 -7)"/><path class="8cd4f182-db1e-4fb4-914d-00660cd9056d" d="M77.89,95.44h1.39v7.46a5.49,5.49,0,0,1-.27,1.83,3.48,3.48,0,0,1-.77,1.29,3.07,3.07,0,0,1-1.19.76,4.47,4.47,0,0,1-1.53.25,4.37,4.37,0,0,1-3-1,3.64,3.64,0,0,1-1.05-2.83V95.42H72.9v7.17a3.23,3.23,0,0,0,.66,2.31,2.64,2.64,0,0,0,1.95.65,2.24,2.24,0,0,0,1.81-.72,3.69,3.69,0,0,0,.57-2.3Z" transform="translate(0.59 -7)"/><path class="8cd4f182-db1e-4fb4-914d-00660cd9056d" d="M87.1,95.44h6.21v1.39H88.58v3.44h4.35v1.44H88.58v3.68h4.84v1.5H87.1Z" transform="translate(0.59 -7)"/><path class="8cd4f182-db1e-4fb4-914d-00660cd9056d" d="M100.93,95.44h6.24v1.39h-4.76v3.44h4.32v1.44h-4.32v3.68h4.84v1.5h-6.32Z" transform="translate(0.59 -7)"/><path class="8cd4f182-db1e-4fb4-914d-00660cd9056d" d="M119.84,103.86a1.4,1.4,0,0,0-.4-1.05,3.61,3.61,0,0,0-1-.67q-.6-.28-1.3-.54a6.46,6.46,0,0,1-1.3-.65,3.35,3.35,0,0,1-1-1,2.94,2.94,0,0,1-.4-1.62,2.9,2.9,0,0,1,.93-2.24,3.76,3.76,0,0,1,2.64-.85,9.35,9.35,0,0,1,1.81.17,4.55,4.55,0,0,1,1.3.42l-.46,1.38a4.47,4.47,0,0,0-1.12-.36,7.65,7.65,0,0,0-1.62-.16,2.14,2.14,0,0,0-1.51.47,1.44,1.44,0,0,0-.5,1.12,1.35,1.35,0,0,0,.4,1,3.9,3.9,0,0,0,1,.69c.4.2.84.39,1.3.58a7,7,0,0,1,1.3.68,3.66,3.66,0,0,1,1,1,2.68,2.68,0,0,1,.4,1.53,3.5,3.5,0,0,1-.27,1.39,2.93,2.93,0,0,1-.77,1.06,3.49,3.49,0,0,1-1.24.66,5.09,5.09,0,0,1-1.61.23,8.71,8.71,0,0,1-2-.2,5.59,5.59,0,0,1-1.26-.44l.49-1.42a5.59,5.59,0,0,0,1.12.41,6.06,6.06,0,0,0,1.64.21,4.17,4.17,0,0,0,1-.1,2.38,2.38,0,0,0,.77-.32,1.53,1.53,0,0,0,.51-.56A1.68,1.68,0,0,0,119.84,103.86Z" transform="translate(0.59 -7)"/><g class="46481ee4-b845-455e-bb72-2b718d86e92c"><path class="4faf44c4-48e6-49d4-a3a4-1460105f526d" d="M9.32,85.17v-1.5l2.93-.18L13,83V62.66l-.78-.53-2.93-.21V60.45H20.95v1.48L18,62.14l-.78.53V82.93l.78.53,2.93.18v1.53Z" transform="translate(0.59 -7)"/></g><line class="9bf5a5ef-1f1f-4517-82e2-92349d536c21" x1="10.19" y1="82.82" x2="120.62" y2="82.82"/><path class="4faf44c4-48e6-49d4-a3a4-1460105f526d" d="M18.79,54.33l-6,1.36q15-10.41,30.75-22.44,12.39-9.53,23.67-19,9.76,9.32,21.05,19c9.76,8.27,19.31,15.65,28.45,22.36-2.44-.41-3.75-.83-6.18-1.25l-43.28-26Z" transform="translate(0.59 -7)"/></svg>