<svg id="6213baf5-a891-494e-b324-d26afbdcf67b" data-name="Layer 1" xmlns="http://www.w3.org/2000/svg" viewBox="0 0 154.8 142.2"><defs><style>.\36 1bda90b-6c73-474c-88a2-67cd65af802e{fill:#004a8e;stroke:#004a8e;}.\32 e8baeab-29e3-40ad-932f-b20a5c4e66c9,.\36 1bda90b-6c73-474c-88a2-67cd65af802e,.\38 e5f01ce-83cf-41f4-99f2-0c66115be70c,.b6ab3c2d-9698-4818-ba6f-0e71b03c53c5,.b94de421-b992-44b0-91c5-82d71def29ef,.c013ac23-0207-4500-8666-0976db5ee5b0,.e7c19f16-e8ea-419e-bf84-6103016b37e4{stroke-miterlimit:10;}.\38 e5f01ce-83cf-41f4-99f2-0c66115be70c,.b6ab3c2d-9698-4818-ba6f-0e71b03c53c5,.e7c19f16-e8ea-419e-bf84-6103016b37e4{isolation:isolate;}.b6ab3c2d-9698-4818-ba6f-0e71b03c53c5,.e7c19f16-e8ea-419e-bf84-6103016b37e4{font-size:34.45px;stroke-width:2px;font-family:ArialMT, Arial;}.\36 51a508f-a3ea-441a-80db-4b8025eccbe4,.b6ab3c2d-9698-4818-ba6f-0e71b03c53c5,.b94de421-b992-44b0-91c5-82d71def29ef,.e7c19f16-e8ea-419e-bf84-6103016b37e4{fill:#fff;}.\32 e8baeab-29e3-40ad-932f-b20a5c4e66c9,.b6ab3c2d-9698-4818-ba6f-0e71b03c53c5,.e7c19f16-e8ea-419e-bf84-6103016b37e4{stroke:#fff;}.e7c19f16-e8ea-419e-bf84-6103016b37e4{letter-spacing:-0.02em;}.\32 e8baeab-29e3-40ad-932f-b20a5c4e66c9,.c013ac23-0207-4500-8666-0976db5ee5b0{fill:none;}.\32 e8baeab-29e3-40ad-932f-b20a5c4e66c9{stroke-width:7px;}.\38 e5f01ce-83cf-41f4-99f2-0c66115be70c,.b94de421-b992-44b0-91c5-82d71def29ef{stroke:#fffdfd;}.c013ac23-0207-4500-8666-0976db5ee5b0{stroke:#f9f4f4;stroke-width:6px;}.\38 e5f01ce-83cf-41f4-99f2-0c66115be70c{font-size:25.12px;fill:#fcfcfc;font-family:Jubilat, Jubilat;letter-spacing:0.1em;}.\30 26f044e-e079-4c11-b0c0-22465dbd886c{letter-spacing:0.09em;}.ed99c8fd-ce4b-4d64-a019-0cafafc542d6{letter-spacing:0.1em;}.c78f304c-6cff-4e84-b91c-a2a91334c367{letter-spacing:0.09em;}.\31 7b7420a-6a74-4852-a16a-9e0d3f830212{opacity:0.68;}.d0f08afa-85a6-47ff-980d-7e41e42d51d3{fill:#f4f2f2;}</style></defs><title>marquees-logo</title><rect class="61bda90b-6c73-474c-88a2-67cd65af802e" x="0.5" y="0.5" width="153.8" height="141.2" rx="6.87" ry="6.87"/><text class="b6ab3c2d-9698-4818-ba6f-0e71b03c53c5" transform="translate(10.51 88.73) scale(1.26 1)">I </text><text class="e7c19f16-e8ea-419e-bf84-6103016b37e4" transform="translate(42.01 88.73) scale(1.26 1)">T</text><polyline class="2e8baeab-29e3-40ad-932f-b20a5c4e66c9" points="92.29 88.87 92.29 87.36 92.29 85.1 92.29 64.75 96.29 64.75 98.7 64.75 112.42 85.1 117.31 85.1 131.03 64.75 137.51 64.75 137.51 88.87"/><path class="b94de421-b992-44b0-91c5-82d71def29ef" d="M43.18,68.53" transform="translate(-30.15 -9.85)"/><line class="c013ac23-0207-4500-8666-0976db5ee5b0" x1="13.27" y1="94.18" x2="141.69" y2="94.18"/><path class="651a508f-a3ea-441a-80db-4b8025eccbe4" d="M52.7,66.56l-7.31,1.88c23-14.3,44.48-30.9,63.37-51.89C127.46,37.85,147.61,55,169.53,67.6l-8.77-1.67c-17.85-11-33.41-20.46-51.68-31.74C109.08,34.19,60,64.68,52.7,66.56Z" transform="translate(-30.15 -9.85)"/><text class="8e5f01ce-83cf-41f4-99f2-0c66115be70c" transform="translate(12.6 119.25) scale(0.87 1)">MA<tspan class="026f044e-e079-4c11-b0c0-22465dbd886c" x="44.53" y="0">R</tspan><tspan class="ed99c8fd-ce4b-4d64-a019-0cafafc542d6" x="62.29" y="0">QUE</tspan><tspan class="c78f304c-6cff-4e84-b91c-a2a91334c367" x="119.35" y="0">E</tspan><tspan x="136.18" y="0">S</tspan></text><g class="17b7420a-6a74-4852-a16a-9e0d3f830212"><path class="d0f08afa-85a6-47ff-980d-7e41e42d51d3" d="M82.29,79.89V77.31c0-.1.1-.2.1-.4a22.26,22.26,0,0,1,3-10,25.45,25.45,0,0,1,25.94-13.28,26,26,0,0,1,8,2.58A25,25,0,0,1,131.8,86a25.24,25.24,0,0,1-31.85,16.45A25.59,25.59,0,0,1,85.74,91a24.86,24.86,0,0,1-3.06-8.72A7.47,7.47,0,0,1,82.29,79.89ZM127.16,71l-.2.79c0,.3-.2.4-.49.59s-.49,0-.69-.1-.2-.1-.3-.1-.2-.1-.1-.3a1.41,1.41,0,0,0-.2-.59.81.81,0,0,1-.39-1c0-.1.1-.1.1-.2a.1.1,0,0,1,.1-.1c.39-.5.3-.79-.3-1.09a1.25,1.25,0,0,0-.59-.1c-.1,0-.2-.1-.3-.1-.2-.2-.1-.59-.1-1a2.12,2.12,0,0,0-.79-1.68,1.33,1.33,0,0,1-.59-.69c0-.2-.1-.4-.1-.59a2.43,2.43,0,0,0-.39-1.19,2.09,2.09,0,0,1-.69-1.39c0-.1,0-.1-.1-.1a5.4,5.4,0,0,1-1.48-.79c-.1-.1-.1,0-.2,0s-.1.1,0,.1c.3.2.1.4-.1.59a.1.1,0,0,0-.1.1c1.08.2,1.38,1.29,2.56,1.59-.1,0-.1.1-.2.1a1.15,1.15,0,0,0-.79.59.1.1,0,0,1-.1.1h0a2.06,2.06,0,0,1-1.68-.89,2.15,2.15,0,0,0-1.48-1.29,5.85,5.85,0,0,0-.79-.4,2.69,2.69,0,0,1-1.18-.89c-.1-.1-.1-.2.1-.4a3.2,3.2,0,0,1,1.28-.4c.1,0,.2,0,.2-.1a.52.52,0,0,0-.2-.4c-.2-.1-.2-.1-.39,0a.79.79,0,0,1-.79.1.1.1,0,0,1-.1-.1h0c.1-.2.1-.4-.1-.5s-.1-.1-.2-.1-.1-.1-.2-.1a1.33,1.33,0,0,0-.69-.59,9.77,9.77,0,0,1-1.68-1.09c-.59-.4-.49-.3-.79.1a1,1,0,0,1-.89.2,7.58,7.58,0,0,0-1.48-.2l-.89.3a5.94,5.94,0,0,1-1.87,0c-.49-.5-.89-.59-.89-1.09a.1.1,0,0,0-.1-.1c-.39,0-.79-.1-1.08.2a.36.36,0,0,1-.3.1c-.49,0-1,.1-1.38.1-.1,0-.2.1-.2.3a.76.76,0,0,1-.2.5,3.53,3.53,0,0,1-1.08.2c-.49.1-.59.3-.59.69,0,.1-.1.1-.1.2a2.11,2.11,0,0,1-1.08.2.51.51,0,0,0-.39.2,2.07,2.07,0,0,1-.69,1.29l-.1.1-1.28,1.29a4.79,4.79,0,0,1-1.08.4,5.49,5.49,0,0,1,.59-.79c.2-.2.1-.4-.1-.4a.61.61,0,0,1-.79-.5c-.39-.59-.39-.59.1-1.09a4.29,4.29,0,0,1,.69-.59.84.84,0,0,0,.69-.79c0-.2-.1-.59,0-.69l.59-.3a.1.1,0,0,0,.1-.1.77.77,0,0,0,.59-.89V56c0-.4-.2-.59-.59-.4A25.33,25.33,0,0,0,83,75.43,23.11,23.11,0,0,0,85.74,89.9a24.74,24.74,0,0,0,8.19,8.72,24.44,24.44,0,0,0,13.61,3.86c.79,0,1.68-.1,2.56-.1.1,0,.2,0,.2-.1a1.84,1.84,0,0,1,.2-.69c.1-.4,0-.59-.49-.69a.34.34,0,0,1-.2-.1A11.42,11.42,0,0,0,107,98.22a1,1,0,0,1-.59-1.19,1.12,1.12,0,0,1,.89-1.29.86.86,0,0,0,.59-.79v-.59c-.1-.2.2-.5-.1-.59a1.67,1.67,0,0,0-.69-.1H107a2.83,2.83,0,0,1-1.28-.1,6.77,6.77,0,0,1-.79-.3,1,1,0,0,1-.49-.4,2.36,2.36,0,0,0-.59-1.09,5.59,5.59,0,0,0-1.78-1.19A17.73,17.73,0,0,0,100,89.8a3.64,3.64,0,0,1-1.38-.69A6.48,6.48,0,0,0,97,87.92a1,1,0,0,1-.49-1.09v-.2a4.48,4.48,0,0,0-.3-1.09,13.27,13.27,0,0,1-.69-1.78c-.1-.4-.2-.89-.3-1.29a.1.1,0,0,0-.1-.1c-.1,0-.1.1-.1.2.1.59.3,1.09.39,1.68l.59.89a1.61,1.61,0,0,1-1.28-1.09,23.62,23.62,0,0,1-1.08-3.76,2.47,2.47,0,0,1-.1-.79c.1-.69.1-1.29.2-2.08a7.47,7.47,0,0,1,1.38-3.27.93.93,0,0,0,.2-1.09v-.3a8.38,8.38,0,0,1,.39-2.68,5.84,5.84,0,0,0,.39-2.28c-.1-.59-.2-1.09-.79-1.29a16.31,16.31,0,0,0-1.58-.59c-.69-.1-.69-.4-.69-.79l.49.3c.39.2.59.2.69-.2.1-.1.1-.4.2-.59A1,1,0,0,1,95.6,64c.49.1.49.1.59-.4s.3-.59.79-.4c.1,0,.2.1.39,0a1.35,1.35,0,0,1,1.08-.1.7.7,0,0,1,.59.3,2.47,2.47,0,0,1,.1.79,2,2,0,0,0,.59,1.39l.59.59c.69.59,1.58,1.29,2.37,1.88.1-.5.1-.5-.1-.69a.81.81,0,0,1-.39-.59.53.53,0,0,0-.3-.4c-.2-.1-.2-.2-.2-.4a.21.21,0,0,1,.2-.2.1.1,0,0,1,.1-.1,1.05,1.05,0,0,1,1.08.1c.1.1.1.4.39.4a1,1,0,0,1,.59.69,2.76,2.76,0,0,1,.1.89c0,.2,0,.5.2.5a.43.43,0,0,0,.39-.4h0a1.26,1.26,0,0,0,.1-.59c0-.2.1-.1.3-.1s.2,0,.2.1.1.4.1.59c0,.5.2.59.59.59s.39-.1.69-.2a1.07,1.07,0,0,1-.79-.79c-.1-.1-.3-.2-.1-.4s.3-.5.69-.4a10.66,10.66,0,0,1,1.87.79,1,1,0,0,1,.59.69c.1.3.3.59.59.59a.59.59,0,0,0,.39.1c.3.1.39.59.59.79s-.1.2-.2.4a1.26,1.26,0,0,0-.1.59c0,.1,0,.2-.1.2a1.08,1.08,0,0,1-.79,0,6.78,6.78,0,0,1-.79-.3c-.3-.1-.59-.1-1.08-.2.59-.3,1.08-.69.79-1.29s-.79-.59-1.28-.79c.1.2.49.3.3.59a1,1,0,0,1-.49.59,3.7,3.7,0,0,0-1.28,1.19,3.08,3.08,0,0,0-.89,1.78.63.63,0,0,0,.59.79h0l.79.2a.63.63,0,0,1,.49.59,1.73,1.73,0,0,0,.79,1.29,2.76,2.76,0,0,0,.1-.89c-.1-.59.59-1.09.1-1.59h0a7.53,7.53,0,0,0-.1-1.49c0-.2.1-.2.2-.3s.59.1.79.1a1,1,0,0,1,.89.59,1,1,0,0,0,.79.5c.3,0,.49.1.79.1a7.53,7.53,0,0,0,1.08.79,3.24,3.24,0,0,1,1.08,1.49.67.67,0,0,1-.3.79l-.89.3a2.34,2.34,0,0,0-1.48.89c-.1.1-.1.1,0,.1h.1a.91.91,0,0,0,.59-.4.62.62,0,0,1,.59,0c.1.1.1.1.1.2,0,.3.1.3.39.3a.59.59,0,0,0,.39-.1c.3-.1.3.1.39.3s-.1.2-.1.3a6.33,6.33,0,0,0-1.28,1c0,.1-.1.1-.2,0h0a.52.52,0,0,0-.79.2c-.3.3-.3,1.09-.89,1.19l-.1.1a3.12,3.12,0,0,0-.69,2.08.71.71,0,0,1-.3.59,10.33,10.33,0,0,1-1.08.79,1.74,1.74,0,0,0-.59,2,1.69,1.69,0,0,1,.1.69c0,.1.1.3-.1.3s-.3.2-.49-.1a4.09,4.09,0,0,1-.69-1.09,2,2,0,0,0-2.07-.59,1,1,0,0,1-.79.1,1.85,1.85,0,0,0-.79-.2,1.94,1.94,0,0,0-1.08.2,2.84,2.84,0,0,0-.79,2.28c0,.1-.1.4.1.5a2.39,2.39,0,0,0,1.38.89.47.47,0,0,0,.59-.2c.1-.4.59-.5.79-.59s.69.3.59.59a2,2,0,0,1-.3,1.09c-.1.3-.1.59.3.59a5,5,0,0,1,1.28.2c.59.1.69.5.59,1.09,0,.2-.1.3-.1.5a.47.47,0,0,0,.1.59,1.53,1.53,0,0,0,.79.59c.69.1,1.58.5,2.07-.4l.49-.4c.49-.2.79-.59,1.38-.2a1.25,1.25,0,0,0,1.18,0c.1-.1.2-.1.39-.1a4.93,4.93,0,0,0,2.07-.2c.2-.1.49-.1.59.1a4.63,4.63,0,0,0,3.25.59,1.21,1.21,0,0,1,1.48.69,1,1,0,0,0,1.18.5,12,12,0,0,0,2.56-.59,1.19,1.19,0,0,1,1.28.1c.1.1.1.2.1.4-.3.5-.59.79-.89,1.29a4.89,4.89,0,0,0-.59,1.68A25.29,25.29,0,0,0,128.74,89a22.58,22.58,0,0,0,2.76-8.72.53.53,0,0,0-.39.3c-.2.4-.49.69-.69,1.09-.1.1-.1.1-.2.1a2.22,2.22,0,0,1-1.78-1.29,9.59,9.59,0,0,1-1.18-5.25,3.42,3.42,0,0,0-.49-2.58c-.1-.1-.1-.2-.1-.4a1.71,1.71,0,0,1,.1-1.39c.59.89.59.4.39.1Zm-1.28-5.05.69.3c.1.1.3.1.2.3s-.1.4-.3.3h-.39c-.3-.1-.3.1-.2.3a2.9,2.9,0,0,1,.2.89,2,2,0,0,0,.39,1.29l.3.59a.89.89,0,0,0,.59.59,1.26,1.26,0,0,0,.1-.59,4.83,4.83,0,0,1,0-1.68c0-.3.1-.5.49-.4.1,0,.2.1.39.1a1.78,1.78,0,0,0-.39-1.39,3.08,3.08,0,0,1-.39-.59c-.1-.2-.1-.2.1-.2a.32.32,0,0,0,.3-.3h0a3.58,3.58,0,0,0-.2-1.09,4.38,4.38,0,0,0-1.18-1.49.85.85,0,0,1,0,.69,1.14,1.14,0,0,0,.59,1.29.4.4,0,0,1,.2.4.64.64,0,0,1-.59.59h-.1c-.39-.2-.69-.1-.79.1Z" transform="translate(-30.15 -9.85)"/><path class="d0f08afa-85a6-47ff-980d-7e41e42d51d3" d="M115.72,70.48a13.66,13.66,0,0,1-1.87.59c-.1,0-.2,0-.2-.1l-1.08-.59c-.1-.1-.1-.1-.1-.2a.67.67,0,0,0-.39-.59c-.2-.1-.3-.2-.3-.4s-.1-.5-.1-.69a.78.78,0,0,0-.49-.79,8.9,8.9,0,0,0-2-1.39,1.16,1.16,0,0,1-.79-1.09c0-.1-.1-.2-.1-.3-.39.3-.39.79-.59,1.19s-.1.4-.49.1c-.2-.1-.3-.2-.49-.3a.88.88,0,0,1-.2-1.09.75.75,0,0,0,.1-.79c-.1-.1-.1-.1.1-.2a1.56,1.56,0,0,1,1.28-.3c.1,0,.1,0,.1.1a.34.34,0,0,0,.59.1c.39-.59,1.28-.59,2.17-.59.1,0,.2.1.39.1a7.62,7.62,0,0,0,1.58.69,4.13,4.13,0,0,1,1.38.89l.39.4a1.14,1.14,0,0,1,.49,1.19c0,.2-.1.3-.3.4a.86.86,0,0,0-.3.59c0,.69-.1,1.29-.1,2a.74.74,0,0,0,.49.69l.79.4Z" transform="translate(-30.15 -9.85)"/><path class="d0f08afa-85a6-47ff-980d-7e41e42d51d3" d="M121.34,67.11c.1.5.79.59.79,1.19a1.32,1.32,0,0,1-1.28-.79,10.76,10.76,0,0,0-.79-1.88c0-.1-.1-.1,0-.2s.3-.3.49-.1a6.6,6.6,0,0,0,1.78,1.09c.2.1.3.2.49.2a.67.67,0,0,1,.39.79h0c0,.1,0,.1-.1.1-.1.5-.1.5-.49.3A3.93,3.93,0,0,0,121.34,67.11Z" transform="translate(-30.15 -9.85)"/><path class="d0f08afa-85a6-47ff-980d-7e41e42d51d3" d="M117.69,66.12a3,3,0,0,1-.79,1.59c-.1.1-.59-.1-.69-.2a1.91,1.91,0,0,1-.39-1.19v-.1c.49-.1.69-.69,1.28-.69C117.2,65.52,117.69,65.92,117.69,66.12Z" transform="translate(-30.15 -9.85)"/><path class="d0f08afa-85a6-47ff-980d-7e41e42d51d3" d="M105.47,88.31a1.36,1.36,0,0,1,1.08-.2,11,11,0,0,0,2.27.59,1.4,1.4,0,0,1,.59.2c.1.1.2,0,.2.1a.52.52,0,0,1-.2.4,1.92,1.92,0,0,1-1.28-.1,3.94,3.94,0,0,0-2.27-.79l-.2-.1-.2-.1Z" transform="translate(-30.15 -9.85)"/><path class="d0f08afa-85a6-47ff-980d-7e41e42d51d3" d="M114.83,76.92c-.69.1-.79-.5-1.28-.79a.37.37,0,0,1-.1-.3.87.87,0,0,1,.1-.69c.1-.1.2.1.39.3a5.15,5.15,0,0,0,1.08.79l.1.1c.2.1.49.4.39.59S114.93,76.92,114.83,76.92Z" transform="translate(-30.15 -9.85)"/><path class="d0f08afa-85a6-47ff-980d-7e41e42d51d3" d="M112.07,89.9a3.68,3.68,0,0,1-2.07,0,.4.4,0,0,1-.2-.4.21.21,0,0,1,.2-.2,2.16,2.16,0,0,1,.79-.1c.2,0,.59-.1.59.3a.1.1,0,0,0,.1.1Z" transform="translate(-30.15 -9.85)"/></g></svg>