<svg id="ce2bbd61-f5bb-4561-8f25-f7952ed84e6e" data-name="Layer 1" xmlns="http://www.w3.org/2000/svg" viewBox="0 0 100 100"><defs><style>.\37 87e4cf5-a17a-4dfc-8bb4-5e3d56f0a70e{fill:#414042;}</style></defs><title>popper</title><path class="787e4cf5-a17a-4dfc-8bb4-5e3d56f0a70e" d="M64.33,89l-4.4-10.58a81,81,0,0,1-6.33-5.82c-.64-.66-1.26-1.31-1.86-2L60.23,91l1.61-.79Z" transform="translate(-13 -14)"/><polygon class="787e4cf5-a17a-4dfc-8bb4-5e3d56f0a70e" points="12.21 73.71 9.82 78.76 15.57 92.61 19.3 90.78 12.21 73.71"/><path class="787e4cf5-a17a-4dfc-8bb4-5e3d56f0a70e" d="M46.08,64A1.28,1.28,0,0,1,46,63.7a33.44,33.44,0,0,1-5-9.39l-1.55,3.26L54.58,93.82l3.25-1.6Z" transform="translate(-13 -14)"/><polygon class="787e4cf5-a17a-4dfc-8bb4-5e3d56f0a70e" points="13.17 93.79 8.28 82.01 7.52 83.61 5.64 87.58 9.06 95.81 13.17 93.79"/><path class="787e4cf5-a17a-4dfc-8bb4-5e3d56f0a70e" d="M19.66,111l-2.56-6.17L13,113.35a.47.47,0,0,0,.09.53.44.44,0,0,0,.52.06Z" transform="translate(-13 -14)"/><polygon class="787e4cf5-a17a-4dfc-8bb4-5e3d56f0a70e" points="13.75 70.47 21.7 89.59 23.62 88.65 25.82 87.57 16.4 64.9 13.75 70.47"/><polygon class="787e4cf5-a17a-4dfc-8bb4-5e3d56f0a70e" points="20.79 55.64 17.94 61.65 28.21 86.39 32.67 84.2 20.79 55.64"/><polygon class="787e4cf5-a17a-4dfc-8bb4-5e3d56f0a70e" points="23.42 50.1 22.33 52.4 35.07 83.03 39.18 81 24.98 46.83 23.42 50.1"/><path class="787e4cf5-a17a-4dfc-8bb4-5e3d56f0a70e" d="M71.68,85.41a29.2,29.2,0,0,1-7.55-3.82l2.6,6.25Z" transform="translate(-13 -14)"/><path class="787e4cf5-a17a-4dfc-8bb4-5e3d56f0a70e" d="M71.07,54.89a1.78,1.78,0,0,0,2.51,0l30.71-31.25a1.78,1.78,0,1,0-2.53-2.49L71,52.38A1.78,1.78,0,0,0,71.07,54.89Z" transform="translate(-13 -14)"/><path class="787e4cf5-a17a-4dfc-8bb4-5e3d56f0a70e" d="M106.33,57.22a1.78,1.78,0,0,0-2-1.57,67.11,67.11,0,0,0-22.68,6.78,1.78,1.78,0,0,0,1.59,3.18,63.51,63.51,0,0,1,21.48-6.43A1.78,1.78,0,0,0,106.33,57.22Z" transform="translate(-13 -14)"/><path class="787e4cf5-a17a-4dfc-8bb4-5e3d56f0a70e" d="M61.33,44.88A1.78,1.78,0,0,0,63.7,44,69.94,69.94,0,0,0,70.36,21a1.78,1.78,0,1,0-3.53-.38A66.43,66.43,0,0,1,60.5,42.5,1.78,1.78,0,0,0,61.33,44.88Z" transform="translate(-13 -14)"/><polygon class="787e4cf5-a17a-4dfc-8bb4-5e3d56f0a70e" points="87.6 54.47 85.85 51.71 85.67 54.99 82.55 55.84 85.56 57.02 85.38 60.3 87.42 57.76 90.44 58.94 88.68 56.18 90.72 53.63 87.6 54.47"/><polygon class="787e4cf5-a17a-4dfc-8bb4-5e3d56f0a70e" points="43.66 15.9 45.13 18.83 45.63 15.58 48.83 15.07 45.95 13.57 46.45 10.33 44.17 12.65 41.29 11.15 42.76 14.09 40.47 16.41 43.66 15.9"/><polygon class="787e4cf5-a17a-4dfc-8bb4-5e3d56f0a70e" points="72.27 40.33 72.81 42.62 73.7 40.44 76.01 40.62 74.24 39.09 75.12 36.91 73.15 38.15 71.39 36.62 71.93 38.91 69.96 40.15 72.27 40.33"/><polygon class="787e4cf5-a17a-4dfc-8bb4-5e3d56f0a70e" points="90.6 21.32 92.85 21.89 93.01 24.24 94.24 22.24 96.49 22.81 94.99 21 96.22 19 94.07 19.89 92.58 18.09 92.74 20.44 90.6 21.32"/><polygon class="787e4cf5-a17a-4dfc-8bb4-5e3d56f0a70e" points="57.18 30.28 55.21 31.52 53.44 29.99 53.99 32.28 52.01 33.52 54.33 33.7 54.87 35.99 55.75 33.81 58.06 33.99 56.3 32.46 57.18 30.28"/><polygon class="787e4cf5-a17a-4dfc-8bb4-5e3d56f0a70e" points="84.42 36.13 86.4 32.91 90.02 33.83 87.62 30.92 89.6 27.7 86.14 29.12 83.75 26.21 84 30 80.54 31.41 84.16 32.34 84.42 36.13"/><polygon class="787e4cf5-a17a-4dfc-8bb4-5e3d56f0a70e" points="64.57 17.2 65.98 21.53 67.34 17.19 71.81 17.17 68.18 14.51 69.55 10.17 65.94 12.87 62.3 10.21 63.71 14.53 60.1 17.22 64.57 17.2"/><polygon class="787e4cf5-a17a-4dfc-8bb4-5e3d56f0a70e" points="78.13 7.64 79.09 10.84 80.16 7.67 83.44 7.72 80.81 5.71 81.88 2.55 79.19 4.47 76.56 2.47 77.53 5.66 74.84 7.59 78.13 7.64"/><path class="787e4cf5-a17a-4dfc-8bb4-5e3d56f0a70e" d="M90.47,82.24a1.4,1.4,0,0,0,0,1.95,1.34,1.34,0,0,0,1.92,0,1.4,1.4,0,0,0,0-1.95A1.34,1.34,0,0,0,90.47,82.24Z" transform="translate(-13 -14)"/><path class="787e4cf5-a17a-4dfc-8bb4-5e3d56f0a70e" d="M87.75,69.38a1.4,1.4,0,0,0,0,1.95,1.34,1.34,0,0,0,1.92,0,1.4,1.4,0,0,0,0-1.95A1.34,1.34,0,0,0,87.75,69.38Z" transform="translate(-13 -14)"/><path class="787e4cf5-a17a-4dfc-8bb4-5e3d56f0a70e" d="M109.38,65.95a1.4,1.4,0,0,0,0,1.95,1.34,1.34,0,0,0,1.92,0,1.4,1.4,0,0,0,0-1.95A1.34,1.34,0,0,0,109.38,65.95Z" transform="translate(-13 -14)"/><path class="787e4cf5-a17a-4dfc-8bb4-5e3d56f0a70e" d="M105.8,78.66a1.4,1.4,0,0,0,0,1.95,1.34,1.34,0,0,0,1.92,0,1.4,1.4,0,0,0,0-1.95A1.34,1.34,0,0,0,105.8,78.66Z" transform="translate(-13 -14)"/><path class="787e4cf5-a17a-4dfc-8bb4-5e3d56f0a70e" d="M92.9,49.18a1.4,1.4,0,0,0,0,1.95,1.34,1.34,0,0,0,1.92,0,1.4,1.4,0,0,0,0-1.95A1.34,1.34,0,0,0,92.9,49.18Z" transform="translate(-13 -14)"/><path class="787e4cf5-a17a-4dfc-8bb4-5e3d56f0a70e" d="M77.89,56.37a1.4,1.4,0,0,0,0,1.95,1.34,1.34,0,0,0,1.92,0,1.4,1.4,0,0,0,0-1.95A1.34,1.34,0,0,0,77.89,56.37Z" transform="translate(-13 -14)"/><path class="787e4cf5-a17a-4dfc-8bb4-5e3d56f0a70e" d="M78.69,41.31a1.4,1.4,0,0,0,0-1.95,1.34,1.34,0,0,0-1.92,0,1.4,1.4,0,0,0,0,1.95A1.34,1.34,0,0,0,78.69,41.31Z" transform="translate(-13 -14)"/><path class="787e4cf5-a17a-4dfc-8bb4-5e3d56f0a70e" d="M112.6,48a1.34,1.34,0,0,0-1.92,0,1.4,1.4,0,0,0,0,1.95,1.34,1.34,0,0,0,1.92,0A1.4,1.4,0,0,0,112.6,48Z" transform="translate(-13 -14)"/><path class="787e4cf5-a17a-4dfc-8bb4-5e3d56f0a70e" d="M58.49,16.35a1.4,1.4,0,0,0,0-1.95,1.34,1.34,0,0,0-1.92,0,1.4,1.4,0,0,0,0,1.95A1.34,1.34,0,0,0,58.49,16.35Z" transform="translate(-13 -14)"/><path class="787e4cf5-a17a-4dfc-8bb4-5e3d56f0a70e" d="M41.15,34a1.4,1.4,0,0,0,0-1.95,1.34,1.34,0,0,0-1.92,0,1.4,1.4,0,0,0,0,1.95A1.34,1.34,0,0,0,41.15,34Z" transform="translate(-13 -14)"/><path class="787e4cf5-a17a-4dfc-8bb4-5e3d56f0a70e" d="M46.21,24.14a1.4,1.4,0,0,0,0-1.95,1.34,1.34,0,0,0-1.92,0,1.4,1.4,0,0,0,0,1.95A1.34,1.34,0,0,0,46.21,24.14Z" transform="translate(-13 -14)"/><path class="787e4cf5-a17a-4dfc-8bb4-5e3d56f0a70e" d="M54.25,39.51a1.4,1.4,0,0,0,0-1.95,1.34,1.34,0,0,0-1.92,0,1.4,1.4,0,0,0,0,1.95A1.34,1.34,0,0,0,54.25,39.51Z" transform="translate(-13 -14)"/><path class="787e4cf5-a17a-4dfc-8bb4-5e3d56f0a70e" d="M46.6,47a3.48,3.48,0,0,0-2.58.9h0c-2.65,2.7.48,11.61,11.49,22.83,7.75,7.89,15.15,12.6,19.78,12.6a3.48,3.48,0,0,0,2.58-.9c2.65-2.7-.48-11.61-11.49-22.83C58.63,51.73,51.24,47,46.6,47Z" transform="translate(-13 -14)"/></svg>