<svg xmlns="http://www.w3.org/2000/svg" viewBox="0 0 538.68 538"><defs><style>.\38 0f1db09-a2db-4a40-a1ed-f57956b0fc14{fill:#888;}</style></defs><title>Asset 2</title><g id="568bf472-767c-44b9-b394-535a8fa98cdd" data-name="Layer 2"><g id="82e89c89-c867-49df-8641-b6ece520c8b9" data-name="Icon"><path class="80f1db09-a2db-4a40-a1ed-f57956b0fc14" d="M262.17,270H80.29a6.15,6.15,0,0,1-6.18-5.25,6,6,0,0,1,6-6.75H261.94a6.15,6.15,0,0,1,6.18,5.25A6,6,0,0,1,262.17,270Z"/><path class="80f1db09-a2db-4a40-a1ed-f57956b0fc14" d="M199.59,346H80a6.15,6.15,0,0,1-6.18-5.25,6,6,0,0,1,6-6.75H199.37a6.15,6.15,0,0,1,6.18,5.25A6,6,0,0,1,199.59,346Z"/><path class="80f1db09-a2db-4a40-a1ed-f57956b0fc14" d="M326.55,197H80.66a6.15,6.15,0,0,1-6.18-5.25,6,6,0,0,1,6-6.75h245.9a6.15,6.15,0,0,1,6.18,5.25A6,6,0,0,1,326.55,197Z"/><path class="80f1db09-a2db-4a40-a1ed-f57956b0fc14" d="M178.83,420H80.08a6.15,6.15,0,0,1-6.18-5.25,6,6,0,0,1,6-6.75H178.6a6.15,6.15,0,0,1,6.18,5.25A6,6,0,0,1,178.83,420Z"/><path class="80f1db09-a2db-4a40-a1ed-f57956b0fc14" d="M402.71,538H18A18,18,0,0,1,0,520V148.09a48.33,48.33,0,0,1,14.75-34.66l104-100A47.86,47.86,0,0,1,152.05,0H402.71A6.29,6.29,0,0,1,409,6.29V148.14a2.25,2.25,0,0,1-.7,1.61c-5.17,5-11.3,1.39-11.3-3.62V18a6,6,0,0,0-6-6H152.31a36,36,0,0,0-25.07,10.08l-104.15,100a36.24,36.24,0,0,0-11.09,26V520a6,6,0,0,0,6,6H394.9a2.1,2.1,0,0,0,2.1-2.1V276.52a2.25,2.25,0,0,1,.7-1.61c5.16-5,11.3-1.39,11.3,3.62V531.71A6.29,6.29,0,0,1,402.71,538Z"/><path class="80f1db09-a2db-4a40-a1ed-f57956b0fc14" d="M138.71,144H7.49a1.83,1.83,0,0,1-1.29-.51C1,138.29,4.56,132,9.63,132H130.3a2.7,2.7,0,0,0,2.7-2.7V8.5a1.83,1.83,0,0,1,.51-1.29C138.71,2,145,5.57,145,10.64V137.71A6.29,6.29,0,0,1,138.71,144Z"/><path class="80f1db09-a2db-4a40-a1ed-f57956b0fc14" d="M216,415.15a12.17,12.17,0,0,1-11.63-15.75l20.29-66a63.27,63.27,0,0,1,14.92-25.25l220-227.51A22.26,22.26,0,0,1,491,80.14l40.92,39.56a22.29,22.29,0,0,1,.53,31.48L313.27,377.88a63.13,63.13,0,0,1-27,16.49l-66.77,20.25A12.16,12.16,0,0,1,216,415.15ZM475.51,85.89A10.18,10.18,0,0,0,468.13,89l-220,227.51A51.22,51.22,0,0,0,236.11,337l-20.29,66a.17.17,0,0,0,0,.17.15.15,0,0,0,.17,0l66.77-20.25a51.1,51.1,0,0,0,21.85-13.35L523.81,142.84a10.28,10.28,0,0,0-.24-14.51L482.65,88.77A10.21,10.21,0,0,0,475.51,85.89Z"/><path class="80f1db09-a2db-4a40-a1ed-f57956b0fc14" d="M280.59,343.69a6,6,0,0,1-4.31-10.17l203-210a6,6,0,1,1,8.63,8.34l-203,210A6,6,0,0,1,280.59,343.69Z"/><path class="80f1db09-a2db-4a40-a1ed-f57956b0fc14" d="M245.24,403.35a6,6,0,0,1-4.34-1.85l-23.69-24.78a6,6,0,1,1,8.67-8.29l23.69,24.78a6,6,0,0,1-4.34,10.15Z"/></g></g></svg>