<?xml version="1.0" encoding="utf-8"?>
<!-- Generator: Adobe Illustrator 21.0.0, SVG Export Plug-In . SVG Version: 6.00 Build 0)  -->
<svg version="1.1" id="Layer_1" xmlns="http://www.w3.org/2000/svg" xmlns:xlink="http://www.w3.org/1999/xlink" x="0px" y="0px"
	 viewBox="0 0 164.1 145.9" style="enable-background:new 0 0 164.1 145.9;" xml:space="preserve">
<style type="text/css">
	.st0{opacity:0.68;}
	.st1{fill:#F4F2F2;}
	.st2{fill:#FFFFFF;stroke:#FFFFFF;stroke-width:2;stroke-miterlimit:10;}
	.st3{font-family:'ArialMT';}
	.st4{font-size:32.9944px;}
	.st5{fill:none;stroke:#FFFFFF;stroke-width:7;stroke-miterlimit:10;}
	.st6{fill:#FFFFFF;stroke:#FFFDFD;stroke-miterlimit:10;}
</style>
<title>marquees-logo</title>
<g class="st0">
	<path class="st1" d="M60,75.7c0-0.8,0-1.7,0-2.5c0-0.1,0.1-0.2,0.1-0.4c0.2-3.3,1.1-6.6,2.8-9.5c4.7-8.9,14.5-13.9,24.6-12.5
		c2.6,0.4,5.1,1.1,7.5,2.4c3.2,1.6,6,3.9,8.1,6.7c4.7,6.1,6.1,14.1,3.7,21.4c-4.1,12.7-17.7,19.6-30.3,15.5
		c-5.7-1.8-10.5-5.7-13.5-10.9c-1.5-2.5-2.5-5.3-2.9-8.2C60.1,77.1,60.1,76.4,60,75.7z M102.6,67.3c-0.1,0.3-0.1,0.5-0.2,0.8
		c0,0.3-0.2,0.4-0.5,0.6c-0.3,0.3-0.5,0-0.7-0.1s-0.2-0.1-0.3-0.1c-0.1-0.1-0.2-0.1-0.1-0.3c0-0.2-0.1-0.4-0.2-0.5
		c-0.4-0.2-0.5-0.7-0.2-1.1c0-0.1,0.1-0.1,0.1-0.1c0.4-0.5,0.3-0.8-0.3-1c-0.2-0.1-0.4-0.1-0.6-0.1c-0.1,0-0.2-0.1-0.3-0.1
		c-0.3-0.3-0.1-0.7-0.1-1.1c0-0.6-0.3-1.2-0.8-1.6c-0.3-0.1-0.5-0.5-0.5-0.7c0-0.1-0.1-0.4-0.1-0.5c0-0.4-0.1-0.8-0.4-1.1
		c-0.4-0.4-0.6-0.8-0.7-1.3c0-0.1,0-0.1-0.1-0.1c-0.5-0.1-1-0.5-1.4-0.7c-0.1-0.1-0.1,0-0.2,0c-0.1,0-0.1,0.1,0,0.1
		c0.3,0.2,0.1,0.4-0.1,0.5c-0.1,0-0.1,0.1-0.1,0.1c1,0.2,1.3,1.3,2.4,1.5c-0.1,0.1-0.2,0.1-0.2,0.1c-0.3,0.1-0.6,0.2-0.7,0.6
		c0,0.1-0.1,0.1-0.1,0.1l0,0c-0.6-0.1-1.3-0.2-1.6-0.9c-0.3-0.6-0.7-1.1-1.4-1.3c-0.2-0.1-0.5-0.3-0.7-0.4c-0.5-0.1-0.7-0.5-1.1-0.9
		c-0.1-0.1-0.1-0.2,0.1-0.4c0.4-0.2,0.8-0.4,1.3-0.4c0.1,0,0.2,0,0.2-0.1c0-0.1,0-0.3-0.2-0.4c-0.2-0.1-0.2-0.1-0.4,0
		s-0.5,0.2-0.8,0.1c-0.1,0-0.1-0.1-0.1-0.1l0,0c0.1-0.3,0-0.5-0.3-0.5c-0.1,0-0.1-0.1-0.2-0.1c-0.1-0.2-0.4-0.5-0.7-0.6
		c-0.5-0.3-1.1-0.7-1.6-1.1c-0.5-0.4-0.5-0.3-0.7,0.1c-0.2,0.2-0.6,0.3-0.9,0.2c-0.5-0.1-1-0.2-1.4-0.2c-0.3,0.1-0.6,0.1-0.9,0.3
		c-0.6,0.1-1.2,0.1-1.8,0c-0.3-0.1-0.7-0.1-0.7-0.6c0-0.1-0.1-0.1-0.1-0.1c-0.4,0-0.7-0.1-1.1,0.2c-0.1,0.1-0.2,0.1-0.3,0.1
		c-0.5,0-0.9,0.1-1.3,0.1c-0.1,0-0.2,0.1-0.2,0.3c0,0.1-0.1,0.3-0.2,0.5c-0.3,0.1-0.7,0.2-1,0.2c-0.4,0.1-0.5,0.2-0.5,0.6
		c0,0.1-0.1,0.1-0.1,0.2C77.4,55.9,77,56,76.6,56c-0.1,0-0.3,0-0.4,0.2c-0.1,0.5-0.3,0.9-0.7,1.2l-0.1,0.1c-0.4,0.4-0.7,0.7-1.1,1.1
		c-0.3,0.2-0.7,0.3-1.1,0.4c0.2-0.3,0.4-0.5,0.5-0.7c0.1-0.2,0.1-0.4-0.1-0.4c-0.4,0.1-0.6-0.1-0.7-0.5c-0.4-0.5-0.4-0.5,0.1-1
		c0.1-0.2,0.5-0.5,0.7-0.5c0.4-0.1,0.6-0.5,0.7-0.8c0-0.2-0.1-0.5,0-0.7c0.1-0.1,0.4-0.2,0.6-0.3c0.1,0,0.1-0.1,0.1-0.1
		c0.4-0.1,0.7-0.5,0.5-0.9c0-0.4-0.2-0.5-0.5-0.4c-8,3.5-13.3,10.5-14.3,18.7c-0.6,4.7,0.3,9.6,2.6,13.7c1.9,3.3,4.5,6.2,7.8,8.2
		c3.8,2.5,8.3,3.7,12.9,3.7c0.8,0,1.6-0.1,2.4-0.1c0.1,0,0.2,0,0.2-0.1c0-0.2,0.1-0.5,0.2-0.7c0.1-0.4,0-0.6-0.5-0.7
		c-0.1,0-0.2-0.1-0.2-0.1c-0.7-1-1.7-1.8-2.7-2.4c-0.5-0.2-0.7-0.7-0.6-1.1c0-0.6,0.3-1.1,0.9-1.3c0.3-0.1,0.5-0.4,0.5-0.7
		c0-0.2,0-0.4,0-0.6c-0.1-0.2,0.2-0.5-0.1-0.6c-0.2-0.1-0.5-0.1-0.7-0.1c-0.1,0-0.1,0-0.1,0c-0.4,0.1-0.8,0.1-1.2-0.1
		c-0.2-0.1-0.5-0.2-0.8-0.3c-0.2-0.1-0.4-0.2-0.5-0.4c-0.1-0.4-0.3-0.7-0.5-1c-0.5-0.5-1.1-0.9-1.7-1.1c-0.7-0.3-1.3-0.5-2-0.7
		c-0.5-0.1-1-0.4-1.3-0.7c-0.5-0.5-1-0.9-1.6-1.1c-0.4-0.2-0.6-0.7-0.5-1.1c0-0.1,0-0.1,0-0.2c-0.1-0.4-0.1-0.7-0.3-1
		c-0.3-0.5-0.5-1.1-0.7-1.7c-0.1-0.4-0.1-0.8-0.3-1.2c0-0.1-0.1-0.1-0.1-0.1s-0.1,0.1-0.1,0.2c0.1,0.5,0.2,1.1,0.4,1.6
		c0.1,0.3,0.4,0.7,0.6,0.9c-0.5-0.1-1-0.5-1.2-1c-0.5-1.1-0.7-2.3-1.1-3.5c-0.1-0.3-0.1-0.5-0.1-0.8c0.1-0.7,0.1-1.3,0.2-1.9
		c0.1-1.1,0.6-2.3,1.3-3.1c0.2-0.3,0.5-0.6,0.2-1.1c0-0.1,0-0.2,0-0.3c0-0.9,0.1-1.7,0.4-2.5c0.3-0.7,0.4-1.4,0.4-2.2
		c-0.1-0.5-0.2-1.1-0.8-1.3c-0.6-0.2-1-0.5-1.5-0.6C70,62.2,70,61.9,70,61.4l0.5,0.3c0.4,0.2,0.6,0.2,0.7-0.2
		c0.1-0.1,0.1-0.4,0.2-0.5c0.1-0.5,0.7-0.7,1.1-0.5c0.5,0.1,0.5,0.1,0.6-0.4c0.1-0.5,0.3-0.5,0.7-0.4c0.1,0,0.2,0.1,0.4,0
		c0.3-0.1,0.6-0.2,1-0.1c0.2,0,0.5,0.1,0.5,0.3c0.1,0.3,0.1,0.5,0.1,0.8c0,0.5,0.1,0.9,0.5,1.3c0.1,0.1,0.4,0.4,0.5,0.5
		c0.7,0.6,1.5,1.2,2.3,1.8c0.1-0.5,0.1-0.5-0.1-0.7c-0.2-0.1-0.4-0.4-0.4-0.6c0-0.1-0.1-0.3-0.3-0.4c-0.3-0.1-0.3-0.4,0-0.5
		c0,0,0-0.1,0.1-0.1c0.3-0.2,0.8-0.1,1.1,0.1c0.1,0.1,0.1,0.4,0.4,0.4c0.3,0.1,0.5,0.4,0.6,0.7s0.1,0.6,0.1,0.9c0,0.2,0,0.5,0.2,0.5
		s0.4-0.1,0.4-0.4c0.1-0.1,0.1-0.4,0.1-0.5c0-0.2,0.1-0.1,0.3-0.1s0.2,0,0.2,0.1s0.1,0.4,0.1,0.5c0,0.5,0.2,0.5,0.6,0.6
		s0.4-0.1,0.7-0.2c-0.4-0.1-0.7-0.4-0.8-0.7c-0.1-0.1-0.3-0.2-0.1-0.4c0.1-0.2,0.3-0.5,0.7-0.4c0.6,0.2,1.3,0.5,1.8,0.8
		c0.3,0.1,0.5,0.4,0.6,0.7c0.1,0.3,0.3,0.5,0.6,0.6c0.1,0.1,0.2,0.1,0.4,0.1c0.3,0.1,0.4,0.5,0.5,0.8c0.1,0.1-0.1,0.2-0.2,0.4
		c-0.1,0.1-0.1,0.4-0.1,0.5c0,0.1,0,0.2-0.1,0.2c-0.2,0.1-0.5,0.1-0.7,0c-0.2-0.1-0.5-0.2-0.8-0.3c-0.3-0.1-0.6-0.1-1-0.2
		c0.6-0.3,1-0.7,0.8-1.3c-0.1-0.6-0.8-0.6-1.3-0.8c0.1,0.2,0.5,0.3,0.3,0.5c-0.1,0.2-0.2,0.4-0.5,0.5c-0.5,0.3-0.9,0.7-1.3,1.1
		c-0.5,0.5-0.8,1.1-0.8,1.7c-0.1,0.4,0.2,0.7,0.6,0.8c0.3,0.1,0.5,0.1,0.8,0.2c0.2,0.1,0.5,0.3,0.5,0.6c0.1,0.5,0.4,1.1,0.8,1.3
		c0.1-0.3,0.1-0.6,0.1-0.9c-0.1-0.5,0.6-1,0.1-1.5l0,0c0-0.5,0-1-0.1-1.5c0-0.2,0.1-0.2,0.2-0.3c0.3-0.1,0.6,0.1,0.8,0.1
		c0.2,0.1,0.7,0.1,0.9,0.5c0.1,0.3,0.5,0.5,0.8,0.5c0.2,0,0.5,0.1,0.7,0.1c0.3,0.2,0.7,0.5,1.1,0.7c0.5,0.4,0.8,0.8,1,1.4
		c0.1,0.3-0.1,0.6-0.3,0.7c-0.3,0.1-0.6,0.2-0.9,0.3c-0.6,0.1-1.1,0.5-1.4,0.9c-0.1,0.1-0.1,0.1,0,0.1s0.1,0,0.1,0
		c0.2-0.1,0.5-0.2,0.6-0.4c0.1-0.1,0.5-0.1,0.6,0c0.1,0.1,0.1,0.1,0.1,0.2c0,0.3,0.1,0.3,0.4,0.3c0.1,0,0.2,0,0.4-0.1
		c0.3-0.1,0.3,0.1,0.4,0.3c0.1,0.1-0.1,0.2-0.1,0.3c-0.5,0.2-0.9,0.5-1.3,0.8c-0.1,0.1-0.1,0.1-0.2,0c-0.4-0.1-0.5-0.1-0.8,0.2
		c-0.3,0.3-0.3,1-0.9,1.1L86,75.4c-0.5,0.6-0.7,1.3-0.7,1.9c0,0.2-0.1,0.5-0.3,0.6c-0.3,0.2-0.7,0.5-1,0.7c-0.6,0.5-0.8,1.3-0.5,1.9
		c0.1,0.2,0.1,0.5,0.1,0.7c0,0.1,0.1,0.3-0.1,0.3s-0.3,0.2-0.5-0.1c-0.2-0.3-0.5-0.6-0.7-1c-0.5-0.6-1.3-0.7-1.9-0.5
		c-0.2,0.1-0.5,0.1-0.7,0.1c-0.2-0.1-0.5-0.2-0.7-0.2c-0.4-0.1-0.7,0.1-1.1,0.2c-0.6,0.5-0.9,1.3-0.7,2.2c0,0.1-0.1,0.4,0.1,0.5
		c0.4,0.5,0.8,0.7,1.3,0.9c0.2,0.1,0.5,0,0.6-0.2c0.1-0.4,0.5-0.5,0.8-0.5c0.3-0.1,0.7,0.3,0.6,0.5c0,0.4-0.1,0.7-0.3,1.1
		c-0.1,0.3-0.1,0.5,0.3,0.5c0.5,0,0.8,0.1,1.3,0.2c0.5,0.1,0.7,0.5,0.5,1c0,0.1-0.1,0.3-0.1,0.5c-0.1,0.1-0.1,0.4,0.1,0.5
		c0.1,0.3,0.5,0.5,0.7,0.5c0.7,0.1,1.5,0.5,2-0.4c0.1-0.1,0.1-0.1,0.2-0.2c0.5-0.2,0.8-0.5,1.3-0.2c0.3,0.2,0.7,0.2,1.1,0
		c0.1-0.1,0.2-0.1,0.4-0.1c0.7,0.1,1.3,0,2-0.2c0.2-0.1,0.5-0.1,0.6,0.1c0.9,0.5,2,0.7,3.1,0.6c0.6-0.1,1.1,0.1,1.4,0.7
		c0.2,0.5,0.7,0.6,1.1,0.5c0.8-0.1,1.7-0.3,2.4-0.6c0.5-0.2,1-0.1,1.3,0.1c0.1,0.1,0.1,0.2,0.1,0.4c-0.3,0.5-0.6,0.8-0.9,1.3
		c-0.3,0.5-0.5,1-0.5,1.6c2.3-1.9,4.1-4.2,5.5-6.7s2.3-5.3,2.7-8.2c-0.1,0-0.3,0.1-0.4,0.3c-0.2,0.4-0.5,0.7-0.7,1.1
		c-0.1,0.1-0.1,0.1-0.2,0.1c-0.7-0.1-1.4-0.5-1.7-1.2c-0.8-1.5-1.2-3.2-1.1-4.9c0.1-0.8,0-1.7-0.5-2.5c-0.1-0.1-0.1-0.2-0.1-0.4
		c-0.2-0.4-0.1-0.9,0.1-1.3C102.8,68,102.8,67.6,102.6,67.3L102.6,67.3z M101.3,62.5l0.7,0.3c0.1,0.1,0.3,0.1,0.2,0.3
		c-0.1,0.2-0.1,0.4-0.3,0.3c-0.1,0-0.2,0-0.4,0c-0.3-0.1-0.3,0.1-0.2,0.3c0.1,0.2,0.3,0.6,0.2,0.9c0,0.5,0.1,0.9,0.4,1.2
		c0.1,0.1,0.2,0.4,0.3,0.5c0.1,0.2,0.3,0.4,0.5,0.5c0.1-0.1,0.1-0.3,0.1-0.5c-0.1-0.5-0.1-1.1,0-1.6c0-0.3,0.1-0.5,0.5-0.4
		c0.1,0,0.2,0.1,0.4,0.1c0.1-0.5-0.1-1-0.4-1.3c-0.1-0.1-0.3-0.4-0.4-0.5c-0.1-0.1-0.1-0.2,0.1-0.2c0.1,0,0.3-0.1,0.3-0.3v-0.1
		c0-0.4-0.1-0.7-0.2-1.1c-0.3-0.5-0.7-1.1-1.1-1.4c0.1,0.2,0.1,0.5,0,0.7c-0.1,0.5,0.1,1.1,0.6,1.3c0.1,0.1,0.2,0.2,0.2,0.4
		c0,0.4-0.4,0.6-0.7,0.5l0,0C101.7,62.2,101.5,62.3,101.3,62.5L101.3,62.5z"/>
	<path class="st1" d="M91.7,66.8c-0.6,0.2-1.2,0.5-1.8,0.6c-0.1,0-0.1,0-0.2-0.1l-1-0.6c-0.1-0.1-0.1-0.1-0.1-0.2
		c0-0.2-0.1-0.5-0.4-0.5c-0.1-0.1-0.3-0.2-0.3-0.4s-0.1-0.5-0.1-0.7c0-0.3-0.1-0.6-0.5-0.8c-0.6-0.5-1.2-1-1.9-1.3
		c-0.5-0.2-0.7-0.6-0.8-1.1c0-0.1-0.1-0.2-0.1-0.3c-0.4,0.3-0.4,0.7-0.5,1.1c-0.1,0.4-0.1,0.4-0.5,0.1c-0.1-0.1-0.3-0.1-0.5-0.3
		c-0.3-0.3-0.5-0.6-0.2-1c0.1-0.2,0.2-0.5,0.1-0.7c-0.1-0.1-0.1-0.1,0.1-0.2c0.4-0.2,0.8-0.4,1.3-0.3c0.1,0,0.1,0,0.1,0.1
		c0.1,0.2,0.3,0.4,0.5,0.1c0.5-0.7,1.3-0.7,2.2-0.7c0.1,0,0.2,0.1,0.4,0.1c0.5,0.3,1,0.5,1.5,0.7c0.5,0.2,1,0.5,1.3,0.9
		c0.1,0.1,0.2,0.2,0.4,0.4c0.5,0.3,0.5,0.7,0.5,1.1c0,0.2-0.1,0.3-0.3,0.4c-0.2,0.1-0.3,0.4-0.3,0.6c0,0.6-0.1,1.3-0.1,1.9
		c0,0.3,0.2,0.5,0.5,0.7L91.7,66.8L91.7,66.8z"/>
	<path class="st1" d="M97.1,63.6c0.1,0.5,0.7,0.6,0.7,1.1c-0.5,0-1.1-0.3-1.2-0.8c-0.1-0.6-0.5-1.2-0.8-1.8c0-0.1-0.1-0.1,0-0.2
		s0.3-0.3,0.5-0.1c0.5,0.5,1.1,0.8,1.7,1c0.1,0.1,0.3,0.1,0.5,0.2c0.3,0.1,0.5,0.5,0.4,0.7l0,0c0,0.1,0,0.1-0.1,0.1
		c-0.1,0.5-0.1,0.5-0.5,0.3C97.9,64,97.6,63.8,97.1,63.6z"/>
	<path class="st1" d="M93.6,62.6c-0.1,0.6-0.4,1.1-0.8,1.5c-0.1,0.1-0.5-0.1-0.7-0.2c-0.2-0.3-0.3-0.7-0.3-1.1v-0.1
		c0.5-0.1,0.7-0.7,1.2-0.7C93.1,62.1,93.6,62.5,93.6,62.6z"/>
	<path class="st1" d="M82,83.7c0.3-0.2,0.7-0.3,1.1-0.2c0.7,0.2,1.4,0.5,2.2,0.5c0.2,0,0.4,0.1,0.5,0.2c0.1,0.1,0.2,0,0.2,0.1
		s-0.1,0.3-0.2,0.4c-0.4,0.1-0.8,0.1-1.2-0.1c-0.6-0.5-1.3-0.7-2.2-0.8l-0.2-0.1L82,83.7L82,83.7z"/>
	<path class="st1" d="M90.9,72.9c-0.7,0.1-0.8-0.5-1.2-0.8c-0.1-0.1-0.1-0.2-0.1-0.3c-0.1-0.2,0-0.5,0.1-0.7
		c0.1-0.1,0.2,0.1,0.4,0.3c0.3,0.2,0.7,0.5,1,0.8l0.1,0.1c0.2,0.1,0.5,0.4,0.4,0.6C91.4,73.1,91,72.8,90.9,72.9z"/>
	<path class="st1" d="M88.3,85.1c-0.7,0.2-1.3,0.2-2,0c-0.1-0.1-0.2-0.2-0.2-0.4c0-0.1,0.1-0.2,0.2-0.2c0.2-0.1,0.5-0.1,0.7-0.1
		c0.2,0,0.5-0.1,0.6,0.3c0,0.1,0.1,0.1,0.1,0.1L88.3,85.1z"/>
</g>
<text transform="matrix(1.26 0 0 1 20.0117 91.6201)" class="st2 st3 st4">I </text>
<text transform="matrix(1.26 0 0 1 50.186 90.6201)" class="st2 st3 st4">T</text>
<polyline class="st5" points="98.3,92.8 98.3,91.3 98.3,89.1 98.3,69.6 102.2,69.6 104.5,69.6 117.6,89.1 122.3,89.1 135.4,69.6 
	141.7,69.6 141.7,92.8 "/>
<polygon class="st6" points="32.6,59.9 25.8,61.7 85.6,12.1 142.6,61.1 134.4,59.5 85.7,28.9 "/>
<path class="st6" d="M22.1,69.8"/>
</svg>