<svg id="bfb3c588-f27b-4648-aceb-d3bcf289721f" data-name="Layer 1" xmlns="http://www.w3.org/2000/svg" viewBox="0 0 153.75 141.25"><defs><style>.e686cc2f-7dfe-46ff-bcb3-c0dd0be9b57b{fill:#003e7b;stroke:#003e7b;stroke-width:0.25px;}.\30 24b0596-3e26-42cc-bcdf-224cbc8dbcc8,.\32 e7ab5a6-40ec-4a8a-afe5-fd1d349da9da,.\35 7f23d9f-72d8-4394-91fc-a2039e232fa2,.b255cc70-81fe-416d-83bd-19bbffa4b0e2,.c408bb11-44b1-4da9-8fc6-6a92a1825782,.d2f338bf-90fe-4fc7-9770-4527aac50a65,.e686cc2f-7dfe-46ff-bcb3-c0dd0be9b57b{stroke-miterlimit:10;}.ce6f3a89-6f18-447e-89dd-a5ef81be56f1{opacity:0.68;}.f656d6d7-0b02-4b2e-9966-893d509bfeb6{fill:#f4f2f2;}.\32 e7ab5a6-40ec-4a8a-afe5-fd1d349da9da,.\35 7f23d9f-72d8-4394-91fc-a2039e232fa2{fill:none;}.\32 e7ab5a6-40ec-4a8a-afe5-fd1d349da9da,.\35 7f23d9f-72d8-4394-91fc-a2039e232fa2,.b255cc70-81fe-416d-83bd-19bbffa4b0e2,.d2f338bf-90fe-4fc7-9770-4527aac50a65{stroke:#fff;}.\35 7f23d9f-72d8-4394-91fc-a2039e232fa2{stroke-width:5px;}.b255cc70-81fe-416d-83bd-19bbffa4b0e2,.c408bb11-44b1-4da9-8fc6-6a92a1825782,.d2f338bf-90fe-4fc7-9770-4527aac50a65{isolation:isolate;}.b255cc70-81fe-416d-83bd-19bbffa4b0e2,.d2f338bf-90fe-4fc7-9770-4527aac50a65{font-size:32.99px;stroke-width:2px;font-family:ArialMT, Arial;}.\30 24b0596-3e26-42cc-bcdf-224cbc8dbcc8,.b255cc70-81fe-416d-83bd-19bbffa4b0e2,.c408bb11-44b1-4da9-8fc6-6a92a1825782,.d2f338bf-90fe-4fc7-9770-4527aac50a65{fill:#fff;}.d2f338bf-90fe-4fc7-9770-4527aac50a65{letter-spacing:-0.02em;}.\32 e7ab5a6-40ec-4a8a-afe5-fd1d349da9da{stroke-width:7px;}.\30 24b0596-3e26-42cc-bcdf-224cbc8dbcc8,.c408bb11-44b1-4da9-8fc6-6a92a1825782{stroke:#fffdfd;}.c408bb11-44b1-4da9-8fc6-6a92a1825782{font-size:19.34px;stroke-width:0.5px;font-family:Jubilat, Jubilat;letter-spacing:0.11em;}.\34 e771edd-8cc8-4dc7-8b12-07acaa65673d{letter-spacing:0.1em;}.eeaec86d-26f8-4d1c-a5ca-275888446bfc{letter-spacing:0.11em;}.efc47b3a-ef93-42ea-a64a-6d40db0b28b3{letter-spacing:0.1em;}.\30 e7f0d22-0ca1-437a-b9ae-6caaffdc3cd1{letter-spacing:0.11em;}</style></defs><title>mlogo</title><rect class="e686cc2f-7dfe-46ff-bcb3-c0dd0be9b57b" x="0.13" y="0.13" width="153.5" height="141" rx="5.8" ry="5.8"/><g class="ce6f3a89-6f18-447e-89dd-a5ef81be56f1"><path class="f656d6d7-0b02-4b2e-9966-893d509bfeb6" d="M58.35,74.81V72.17c0-.14.07-.21.07-.43a22.87,22.87,0,0,1,3-10.12A25.79,25.79,0,0,1,87.7,48.24a25.3,25.3,0,0,1,8.05,2.56,24.32,24.32,0,0,1,8.69,7.2,24.85,24.85,0,0,1,4,22.87,25.71,25.71,0,0,1-46.74,5,24.29,24.29,0,0,1-3.06-8.76C58.49,76.24,58.42,75.52,58.35,74.81Zm45.53-9-.21.85c0,.28-.21.43-.5.64s-.5,0-.71-.14-.21-.14-.28-.14-.21-.14-.14-.28a.81.81,0,0,0-.21-.57A.74.74,0,0,1,101.6,65c0-.07.07-.07.14-.14.43-.5.28-.85-.28-1.07a2,2,0,0,0-.64-.07.37.37,0,0,1-.28-.14c-.28-.28-.14-.71-.14-1.14a2.12,2.12,0,0,0-.85-1.71A1.27,1.27,0,0,1,99,60a1.68,1.68,0,0,0-.14-.57,1.93,1.93,0,0,0-.43-1.21,2.28,2.28,0,0,1-.71-1.42c0-.07,0-.14-.07-.14a5,5,0,0,1-1.5-.78c-.07-.07-.14,0-.21,0s-.07.14,0,.14c.28.21.14.43-.07.57a.15.15,0,0,0-.14.14c1.07.21,1.42,1.35,2.56,1.57a.88.88,0,0,0-.21.14c-.28.14-.64.21-.78.64,0,.07-.07.07-.14.07h0c-.64-.14-1.35-.21-1.71-.93a2.36,2.36,0,0,0-1.5-1.35c-.21-.07-.5-.28-.78-.43A2.37,2.37,0,0,1,92,55.5c-.14-.14-.14-.21.07-.43a3,3,0,0,1,1.35-.43c.07,0,.21,0,.21-.14a.43.43,0,0,0-.21-.43c-.21-.07-.21-.14-.43,0a1.17,1.17,0,0,1-.85.14c-.07,0-.07-.07-.07-.14h0a.37.37,0,0,0-.28-.57c-.07,0-.14-.07-.21-.14a2.09,2.09,0,0,0-.71-.64,11.89,11.89,0,0,1-1.71-1.14c-.57-.43-.5-.28-.78.07a1.08,1.08,0,0,1-.93.21,5.83,5.83,0,0,0-1.5-.21,4.61,4.61,0,0,0-.93.28,4.38,4.38,0,0,1-1.92,0c-.28-.07-.71-.14-.71-.64,0-.07-.07-.07-.14-.07-.43,0-.78-.14-1.14.21-.07.14-.21.07-.28.07a9.66,9.66,0,0,0-1.42.14c-.14,0-.21.14-.21.28a1,1,0,0,1-.21.5,2.6,2.6,0,0,1-1.07.21c-.43.07-.57.21-.5.64,0,.14-.07.14-.14.21a2.71,2.71,0,0,1-1.14.21.43.43,0,0,0-.43.21,2,2,0,0,1-.71,1.28l-.14.14L73.6,56.57a4.24,4.24,0,0,1-1.14.43c.21-.28.43-.57.57-.78s.07-.43-.14-.43a.66.66,0,0,1-.78-.5c-.43-.57-.43-.57.07-1.07a1.81,1.81,0,0,1,.71-.57,1,1,0,0,0,.71-.85c0-.21-.14-.57,0-.71a1.76,1.76,0,0,1,.64-.28c.07,0,.07-.07.14-.07a.74.74,0,0,0,.57-.93c0-.43-.21-.57-.57-.43A25.43,25.43,0,0,0,59.06,70.32a23.54,23.54,0,0,0,2.78,14.61,24,24,0,0,0,8.34,8.76,24.71,24.71,0,0,0,13.75,3.92c.85,0,1.71-.07,2.56-.14.07,0,.21,0,.21-.07a2.71,2.71,0,0,1,.21-.71c.14-.43,0-.64-.5-.71-.07,0-.21-.07-.21-.14a9.73,9.73,0,0,0-2.85-2.56,1.1,1.1,0,0,1-.64-1.21,1.26,1.26,0,0,1,.93-1.35.86.86,0,0,0,.57-.78v-.64c-.07-.21.21-.5-.07-.64a2.42,2.42,0,0,0-.71-.07h-.14A2.62,2.62,0,0,1,82,88.49a3,3,0,0,0-.85-.28.75.75,0,0,1-.5-.43,2.24,2.24,0,0,0-.57-1.07A6.07,6.07,0,0,0,78.3,85.5c-.71-.28-1.42-.57-2.14-.78A3.82,3.82,0,0,1,74.74,84,5.75,5.75,0,0,0,73,82.79a1,1,0,0,1-.5-1.14v-.21a4.69,4.69,0,0,0-.28-1.07,7.76,7.76,0,0,1-.71-1.78,8.28,8.28,0,0,0-.28-1.28.15.15,0,0,0-.14-.14c-.07,0-.14.07-.14.21a15,15,0,0,0,.43,1.71A4.28,4.28,0,0,0,72,80a1.77,1.77,0,0,1-1.28-1.07,33.06,33.06,0,0,1-1.14-3.78,3.58,3.58,0,0,1-.14-.85c.07-.71.14-1.35.21-2.07A6.42,6.42,0,0,1,71.1,68.9a.94.94,0,0,0,.21-1.14v-.28a7,7,0,0,1,.43-2.71,6.28,6.28,0,0,0,.43-2.35c-.07-.57-.21-1.14-.85-1.35s-1.07-.5-1.57-.64c-.71-.07-.71-.36-.71-.85l.5.28c.43.21.64.21.71-.21.07-.14.14-.43.21-.57a1,1,0,0,1,1.21-.57c.5.07.5.07.64-.43s.28-.57.78-.43c.14,0,.21.07.43,0a1.71,1.71,0,0,1,1.07-.14c.21,0,.5.07.57.28a3.58,3.58,0,0,1,.14.85A1.78,1.78,0,0,0,75.88,60l.57.57c.71.64,1.57,1.28,2.42,1.92.14-.5.14-.5-.14-.71a1,1,0,0,1-.43-.64c0-.14-.14-.28-.28-.43a.3.3,0,0,1,0-.57.07.07,0,0,1,.07-.07,1,1,0,0,1,1.14.14c.07.14.14.43.43.43a1.25,1.25,0,0,1,.64.71,4.06,4.06,0,0,1,.07.93c0,.21,0,.5.21.5a.41.41,0,0,0,.43-.43,1.57,1.57,0,0,0,.07-.57c0-.21.14-.14.28-.14s.21,0,.21.14.07.43.07.57c0,.5.21.57.64.64s.43-.07.71-.21a1.34,1.34,0,0,1-.85-.78c-.07-.07-.28-.21-.14-.43s.28-.5.71-.43a9.31,9.31,0,0,1,1.92.85,1.25,1.25,0,0,1,.64.71.84.84,0,0,0,.64.64,3,3,0,0,0,.43.14c.28.14.43.57.57.85s-.14.21-.21.43a1.68,1.68,0,0,0-.14.57c0,.07,0,.21-.14.21a1.46,1.46,0,0,1-.78,0,3,3,0,0,0-.85-.28q-.43-.11-1.07-.21c.64-.28,1.07-.71.85-1.35s-.85-.64-1.35-.85c.07.21.5.28.28.57A1,1,0,0,1,83,64a5.35,5.35,0,0,0-1.35,1.21A2.51,2.51,0,0,0,80.79,67a.74.74,0,0,0,.64.85l.85.21a.7.7,0,0,1,.5.64,1.83,1.83,0,0,0,.85,1.35,4.17,4.17,0,0,0,.14-.93c-.07-.57.64-1.07.07-1.57h0A11,11,0,0,0,83.78,66c0-.21.07-.21.21-.28s.64.07.85.14.71.14.93.57a1,1,0,0,0,.85.5,3,3,0,0,1,.78.14,7.88,7.88,0,0,0,1.14.78,3.23,3.23,0,0,1,1.07,1.5.79.79,0,0,1-.28.78,4.61,4.61,0,0,1-.93.28,2.36,2.36,0,0,0-1.5.93c-.07.07-.07.07,0,.14a.1.1,0,0,0,.14,0,1.28,1.28,0,0,0,.64-.43.53.53,0,0,1,.64,0,.26.26,0,0,1,.07.21c0,.28.14.28.43.28a1.06,1.06,0,0,0,.43-.07c.28-.07.28.14.43.28s-.07.21-.14.28A8.71,8.71,0,0,0,88.2,73,.13.13,0,0,1,88,73a.66.66,0,0,0-.85.21c-.28.28-.28,1.07-.93,1.21l-.07.07a3.31,3.31,0,0,0-.71,2.07.77.77,0,0,1-.28.64c-.28.21-.71.57-1.07.78A1.79,1.79,0,0,0,83.5,80a2.53,2.53,0,0,1,.14.71c0,.14.07.28-.14.28s-.28.21-.5-.07a6.94,6.94,0,0,1-.71-1.07,1.9,1.9,0,0,0-2.07-.57,1,1,0,0,1-.78.07,1.44,1.44,0,0,0-.78-.21,2,2,0,0,0-1.14.21,2.55,2.55,0,0,0-.78,2.35c0,.14-.07.43.07.5a2.63,2.63,0,0,0,1.42.93.57.57,0,0,0,.64-.21c.14-.43.57-.5.85-.57s.71.28.64.57a2.09,2.09,0,0,1-.28,1.14c-.14.28-.07.57.28.57a4.47,4.47,0,0,1,1.35.21c.57.14.71.5.57,1.07a1.81,1.81,0,0,1-.14.5.56.56,0,0,0,.07.57,1.27,1.27,0,0,0,.78.57c.71.07,1.57.5,2.14-.43l.21-.21c.5-.21.85-.57,1.42-.21a1.22,1.22,0,0,0,1.21,0c.07-.07.21-.07.43-.07a5.48,5.48,0,0,0,2.14-.21.67.67,0,0,1,.64.07,5.16,5.16,0,0,0,3.28.64,1.3,1.3,0,0,1,1.5.71,1,1,0,0,0,1.21.5,8,8,0,0,0,2.56-.64,1.28,1.28,0,0,1,1.35.14c.14.14.14.21.07.43-.28.5-.64.85-.93,1.35a4.41,4.41,0,0,0-.57,1.71,25,25,0,0,0,5.91-7.2,23.93,23.93,0,0,0,2.85-8.76c-.14,0-.28.14-.43.28-.21.43-.5.71-.71,1.14-.07.07-.07.14-.21.14a2.34,2.34,0,0,1-1.85-1.28A10.27,10.27,0,0,1,104,70.39a3.85,3.85,0,0,0-.5-2.64c-.07-.07-.07-.21-.14-.43a1.34,1.34,0,0,1,.14-1.35c.57.57.57.14.36-.14Zm-1.35-5.13.71.28c.14.07.28.07.21.28s-.07.43-.28.28h-.43c-.28-.07-.28.07-.21.28a2,2,0,0,1,.21.93,2,2,0,0,0,.43,1.28l.28.57a1.1,1.1,0,0,0,.57.57.7.7,0,0,0,.07-.57,6.87,6.87,0,0,1,0-1.71c0-.28.14-.5.5-.43.14,0,.21.07.43.07a1.65,1.65,0,0,0-.43-1.42c-.14-.14-.28-.43-.43-.57s-.14-.21.07-.21a.31.31,0,0,0,.28-.28V60a3,3,0,0,0-.21-1.14,4.16,4.16,0,0,0-1.21-1.5,1.21,1.21,0,0,1,0,.71,1.16,1.16,0,0,0,.64,1.35.43.43,0,0,1,.21.43.59.59,0,0,1-.71.57h0a.91.91,0,0,0-.71.28Z" transform="translate(-5.38 -2.88)"/><path class="f656d6d7-0b02-4b2e-9966-893d509bfeb6" d="M92.26,65.26c-.64.21-1.28.5-1.92.64a.26.26,0,0,1-.21-.07l-1.07-.64c-.07-.07-.14-.14-.14-.21a.6.6,0,0,0-.43-.57A.48.48,0,0,1,88.2,64c0-.21-.07-.5-.07-.71a1,1,0,0,0-.5-.85,9.34,9.34,0,0,0-2-1.42,1.42,1.42,0,0,1-.85-1.14.54.54,0,0,0-.14-.28c-.43.28-.43.78-.57,1.21s-.14.43-.5.14a4.09,4.09,0,0,1-.5-.28.78.78,0,0,1-.21-1.07.78.78,0,0,0,.07-.78c-.07-.07-.07-.14.07-.21a1.82,1.82,0,0,1,1.35-.28c.07,0,.14,0,.14.14s.28.43.57.14c.57-.78,1.42-.78,2.35-.78.14,0,.21.07.43.14a7.64,7.64,0,0,0,1.57.71,4.12,4.12,0,0,1,1.42.93l.43.43a1.21,1.21,0,0,1,.5,1.21c0,.21-.14.28-.28.43a.77.77,0,0,0-.28.64,18.78,18.78,0,0,1-.14,2,.86.86,0,0,0,.5.71l.71.28Z" transform="translate(-5.38 -2.88)"/><path class="f656d6d7-0b02-4b2e-9966-893d509bfeb6" d="M98,61.91c.14.5.78.64.78,1.21a1.25,1.25,0,0,1-1.28-.85,7.59,7.59,0,0,0-.85-1.92c0-.07-.14-.14,0-.21s.28-.28.5-.07A5.45,5.45,0,0,0,99,61.13a3.47,3.47,0,0,0,.5.21.72.72,0,0,1,.43.78h0c0,.07,0,.07-.07.14-.07.5-.07.5-.5.28A6,6,0,0,0,98,61.91Z" transform="translate(-5.38 -2.88)"/><path class="f656d6d7-0b02-4b2e-9966-893d509bfeb6" d="M94.26,60.85a2.45,2.45,0,0,1-.85,1.57c-.07.07-.57-.07-.71-.21a1.94,1.94,0,0,1-.28-1.14V61c.5-.14.71-.71,1.28-.71C93.76,60.28,94.26,60.7,94.26,60.85Z" transform="translate(-5.38 -2.88)"/><path class="f656d6d7-0b02-4b2e-9966-893d509bfeb6" d="M81.86,83.29A1.52,1.52,0,0,1,83,83.07a12.59,12.59,0,0,0,2.35.57,1.36,1.36,0,0,1,.57.21c.07.07.21,0,.21.14a.62.62,0,0,1-.21.43,1.63,1.63,0,0,1-1.28-.14,4.27,4.27,0,0,0-2.35-.85l-.21-.07h-.21Z" transform="translate(-5.38 -2.88)"/><path class="f656d6d7-0b02-4b2e-9966-893d509bfeb6" d="M91.34,71.82c-.71.14-.85-.5-1.28-.85a.54.54,0,0,1-.14-.28.88.88,0,0,1,.14-.71c.07-.07.21.14.43.28s.71.57,1.07.85l.07.07c.21.14.5.43.43.64S91.48,71.75,91.34,71.82Z" transform="translate(-5.38 -2.88)"/><path class="f656d6d7-0b02-4b2e-9966-893d509bfeb6" d="M88.63,84.86a3.64,3.64,0,0,1-2.14,0,.43.43,0,0,1-.21-.43.23.23,0,0,1,.21-.21c.21-.07.57-.07.78-.14s.57-.07.64.28c0,.07.07.07.14.14Z" transform="translate(-5.38 -2.88)"/></g><line class="57f23d9f-72d8-4394-91fc-a2039e232fa2" x1="17.88" y1="97.06" x2="139.88" y2="96.77"/><text class="b255cc70-81fe-416d-83bd-19bbffa4b0e2" transform="translate(14.64 88.75) scale(1.26 1)">I </text><text class="d2f338bf-90fe-4fc7-9770-4527aac50a65" transform="translate(44.81 87.75) scale(1.26 1)">T</text><polyline class="2e7ab5a6-40ec-4a8a-afe5-fd1d349da9da" points="92.97 89.88 92.97 88.43 92.97 86.27 92.97 66.78 96.79 66.78 99.1 66.78 112.24 86.27 116.94 86.27 130.07 66.78 136.28 66.78 136.28 89.88"/><polygon class="024b0596-3e26-42cc-bcdf-224cbc8dbcc8" points="26.42 57.11 19.47 58.91 80.2 9.24 138.28 58.14 129.88 56.51 80.38 26.05 26.42 57.11"/><text class="c408bb11-44b1-4da9-8fc6-6a92a1825782" transform="translate(17.53 118.58) scale(1.05 1)">MA<tspan class="4e771edd-8cc8-4dc7-8b12-07acaa65673d" x="34.9" y="0">R</tspan><tspan class="eeaec86d-26f8-4d1c-a5ca-275888446bfc" x="48.88" y="0">QUE</tspan><tspan class="efc47b3a-ef93-42ea-a64a-6d40db0b28b3" x="93.75" y="0">E</tspan><tspan class="0e7f0d22-0ca1-437a-b9ae-6caaffdc3cd1" x="107.01" y="0">S</tspan></text><path class="024b0596-3e26-42cc-bcdf-224cbc8dbcc8" d="M22.1,69.8" transform="translate(-5.38 -2.88)"/></svg>