<?xml version="1.0" encoding="utf-8"?>
<!-- Generator: Adobe Illustrator 21.0.0, SVG Export Plug-In . SVG Version: 6.00 Build 0)  -->
<svg version="1.1" id="bfb3c588-f27b-4648-aceb-d3bcf289721f"
	 xmlns="http://www.w3.org/2000/svg" xmlns:xlink="http://www.w3.org/1999/xlink" x="0px" y="0px" viewBox="0 0 153.8 141.2"
	 style="enable-background:new 0 0 153.8 141.2;" xml:space="preserve">
<style type="text/css">
	.st0{fill:#003E7B;stroke:#000000;stroke-miterlimit:10;}
	.st1{opacity:0.68;}
	.st2{fill:#F4F2F2;}
	.st3{fill:none;stroke:#F9F4F4;stroke-width:5;stroke-miterlimit:10;}
	.st4{fill:#FFFFFF;}
	.st5{font-family:'ArialMT';}
	.st6{font-size:32.99px;}
	.st7{fill:none;stroke:#FFFFFF;stroke-width:2;stroke-miterlimit:10;}
	.st8{fill:none;stroke:#FCFAFA;stroke-width:6;stroke-miterlimit:10;}
	.st9{fill:#FFFFFF;stroke:#FFFDFD;stroke-width:0.5;stroke-miterlimit:10;}
	.st10{font-family:'Jubilat';}
	.st11{font-size:19.34px;}
	.st12{letter-spacing:1;}
</style>
<rect class="st0" width="153.8" height="141.2"/>
<title>mlogo</title>
<g class="st1">
	<path class="st2" d="M50,73.3v-2.7c0-0.1,0.1-0.2,0.1-0.4c0.2-3.8,1.3-7.3,3.2-10.6c5.4-9.9,16.4-15.6,27.6-14
		c2.9,0.4,5.8,1.4,8.5,2.7c3.6,1.8,6.7,4.4,9.1,7.5c5.3,6.8,6.8,15.8,4.2,24c-4.5,14.1-19.8,22-33.9,17.4C62.4,95,57.1,90.8,53.7,85
		c-1.7-2.8-2.7-6-3.3-9.2C50.1,74.8,50,74,50,73.3z M97.9,63.9l-0.2,0.8c0,0.3-0.2,0.4-0.5,0.6s-0.5,0-0.7-0.1
		c-0.2-0.1-0.2-0.1-0.3-0.1S95.9,65,96,64.8c0-0.2-0.1-0.4-0.2-0.6c-0.4-0.2-0.5-0.6-0.4-1c0-0.1,0.1-0.1,0.1-0.2s0.1-0.1,0.1-0.1
		c0.4-0.5,0.3-0.8-0.3-1.2c-0.2-0.1-0.4-0.1-0.6-0.1c-0.1,0-0.2-0.1-0.3-0.1c-0.2-0.2-0.1-0.6-0.1-1c0-0.7-0.3-1.4-0.8-1.8
		c-0.3-0.2-0.5-0.4-0.6-0.7c0-0.2-0.1-0.4-0.1-0.6c0-0.4-0.2-0.9-0.4-1.3c-0.4-0.4-0.7-0.9-0.7-1.5c0-0.1,0-0.1-0.1-0.1
		c-0.5-0.2-1.1-0.4-1.6-0.8c-0.1-0.1-0.1,0-0.2,0s-0.1,0.1,0,0.1c0.3,0.2,0.1,0.4-0.1,0.6c-0.1,0-0.1,0.1-0.1,0.1
		c1.2,0.2,1.5,1.4,2.7,1.7c-0.1,0-0.1,0.1-0.2,0.1c-0.3,0.1-0.6,0.2-0.8,0.6c0,0.1-0.1,0.1-0.1,0.1l0,0c-0.6-0.1-1.4-0.2-1.8-0.9
		c-0.3-0.7-0.8-1.2-1.6-1.4c-0.2-0.1-0.5-0.3-0.8-0.4c-0.5-0.2-0.9-0.5-1.3-0.9c-0.1-0.1-0.1-0.2,0.1-0.4c0.4-0.2,0.9-0.4,1.4-0.4
		c0.1,0,0.2,0,0.2-0.1c0-0.2-0.1-0.3-0.2-0.4c-0.2-0.1-0.2-0.1-0.4,0c-0.3,0.2-0.6,0.2-0.8,0.1c-0.1,0-0.1-0.1-0.1-0.1l0,0
		c0.1-0.2,0.1-0.4-0.1-0.5c-0.1,0-0.1-0.1-0.2-0.1s-0.1-0.1-0.2-0.1c-0.2-0.3-0.4-0.5-0.7-0.6c-0.6-0.3-1.3-0.7-1.8-1.2
		c-0.6-0.4-0.5-0.3-0.8,0.1c-0.3,0.2-0.6,0.3-0.9,0.2c-0.5-0.1-1.1-0.2-1.6-0.2c-0.3,0.1-0.6,0.2-0.9,0.3c-0.6,0.1-1.4,0.1-2,0
		c-0.5-0.5-0.9-0.6-0.9-1.2c0-0.1-0.1-0.1-0.1-0.1c-0.4,0-0.8-0.1-1.2,0.2c-0.1,0.1-0.2,0.1-0.3,0.1c-0.5,0-1.1,0.1-1.5,0.1
		c-0.1,0-0.2,0.1-0.2,0.3c0,0.2-0.1,0.4-0.2,0.5c-0.3,0.1-0.7,0.2-1.2,0.2c-0.5,0.1-0.6,0.3-0.6,0.7c0,0.1-0.1,0.1-0.1,0.2
		c-0.4,0.2-0.7,0.2-1.2,0.2c-0.2,0-0.3,0.1-0.4,0.2c-0.1,0.5-0.3,1-0.7,1.4l-0.1,0.1l-1.4,1.4c-0.4,0.2-0.7,0.3-1.2,0.4
		c0.2-0.3,0.4-0.6,0.6-0.8c0.2-0.2,0.1-0.4-0.1-0.4c-0.4,0.1-0.7-0.1-0.8-0.5c-0.4-0.6-0.4-0.6,0.1-1.2c0.2-0.2,0.4-0.4,0.7-0.6
		c0.4-0.1,0.7-0.4,0.7-0.8c0-0.2-0.1-0.6,0-0.7c0.2-0.1,0.4-0.2,0.6-0.3c0.1,0,0.1-0.1,0.1-0.1c0.4-0.1,0.7-0.5,0.6-0.9
		c0,0,0,0,0-0.1c0-0.4-0.2-0.6-0.6-0.4C58.1,51.4,52,59.3,50.8,68.6c-0.7,5.2,0.3,10.7,2.9,15.3c2.1,3.8,5.2,6.9,8.7,9.2
		c4.3,2.7,9.4,4.2,14.5,4.1c0.8,0,1.8-0.1,2.7-0.1c0.1,0,0.2,0,0.2-0.1c0-0.2,0.1-0.5,0.2-0.7c0.1-0.4,0-0.6-0.5-0.7
		c-0.1,0-0.2-0.1-0.2-0.1c-0.8-1-1.8-2-2.9-2.7c-0.5-0.2-0.7-0.7-0.6-1.3c-0.1-0.6,0.3-1.3,0.9-1.4c0.3-0.1,0.6-0.4,0.6-0.8v-0.6
		c-0.1-0.2,0.2-0.5-0.1-0.6c-0.2-0.1-0.5-0.1-0.7-0.1h-0.1c-0.4,0.1-0.9,0-1.4-0.1c-0.3-0.1-0.6-0.2-0.8-0.3
		c-0.2-0.1-0.4-0.2-0.5-0.4c-0.1-0.4-0.3-0.8-0.6-1.2c-0.5-0.5-1.2-0.9-1.9-1.3c-0.7-0.3-1.5-0.6-2.2-0.8c-0.5-0.1-1.1-0.4-1.5-0.7
		c-0.5-0.5-1.2-0.9-1.8-1.3c-0.4-0.2-0.6-0.7-0.5-1.2v-0.2c-0.1-0.4-0.1-0.7-0.3-1.2c-0.3-0.6-0.5-1.3-0.7-1.9
		c-0.1-0.4-0.2-0.9-0.3-1.4c0-0.1-0.1-0.1-0.1-0.1c-0.1,0-0.1,0.1-0.1,0.2c0.1,0.6,0.3,1.2,0.4,1.8c0.2,0.3,0.4,0.6,0.6,0.9
		c-0.6-0.1-1.2-0.5-1.4-1.2c-0.5-1.3-0.8-2.6-1.2-4C62,73.4,62,73.1,62,72.9c0.1-0.7,0.1-1.4,0.2-2.2c0.2-1.3,0.7-2.5,1.5-3.5
		c0.3-0.3,0.4-0.8,0.2-1.2v-0.3c0-0.9,0.1-1.9,0.4-2.8c0.3-0.7,0.4-1.6,0.4-2.4c-0.1-0.6-0.2-1.2-0.8-1.4c-0.6-0.2-1.2-0.5-1.7-0.6
		c-0.7-0.1-0.7-0.4-0.7-0.8L62,58c0.4,0.2,0.6,0.2,0.7-0.2c0.1-0.1,0.1-0.4,0.2-0.6c0.2-0.5,0.7-0.7,1.3-0.6
		c0.5,0.1,0.5,0.1,0.6-0.4s0.3-0.6,0.8-0.4c0.1,0,0.2,0.1,0.4,0c0.3-0.2,0.7-0.2,1.2-0.1c0.2,0,0.5,0.1,0.6,0.3
		c0.1,0.3,0.1,0.6,0.1,0.8c0,0.5,0.2,1,0.6,1.5l0.6,0.6c0.7,0.6,1.7,1.4,2.5,2c0.1-0.5,0.1-0.5-0.1-0.7c-0.2-0.1-0.4-0.4-0.4-0.6
		c0-0.1-0.1-0.3-0.3-0.4c-0.2-0.1-0.2-0.2-0.2-0.4c0-0.1,0.1-0.2,0.2-0.2c0,0,0-0.1,0.1-0.1c0.4-0.2,0.8-0.1,1.2,0.1
		c0.1,0.1,0.1,0.4,0.4,0.4c0.3,0.1,0.5,0.4,0.6,0.7s0.1,0.6,0.1,0.9c0,0.2,0,0.5,0.2,0.5s0.4-0.2,0.4-0.4l0,0
		c0.1-0.2,0.1-0.4,0.1-0.6c0-0.2,0.1-0.1,0.3-0.1s0.2,0,0.2,0.1s0.1,0.4,0.1,0.6c0,0.5,0.2,0.6,0.6,0.6s0.4-0.1,0.7-0.2
		c-0.4-0.1-0.7-0.4-0.8-0.8c-0.1-0.1-0.3-0.2-0.1-0.4c0.2-0.2,0.3-0.5,0.7-0.4c0.7,0.2,1.4,0.5,2,0.8c0.3,0.1,0.5,0.4,0.6,0.7
		c0.1,0.3,0.3,0.6,0.6,0.6c0.1,0.1,0.3,0.1,0.4,0.1c0.3,0.1,0.4,0.6,0.6,0.8c0.2,0.2-0.1,0.2-0.2,0.4c-0.1,0.2-0.1,0.4-0.1,0.6
		c0,0.1,0,0.2-0.1,0.2c-0.3,0.1-0.5,0.1-0.8,0c-0.3-0.1-0.6-0.2-0.8-0.3c-0.3-0.1-0.6-0.1-1.2-0.2c0.6-0.3,1.2-0.7,0.8-1.4
		c-0.3-0.6-0.8-0.6-1.4-0.8c0.1,0.2,0.5,0.3,0.3,0.6c-0.1,0.3-0.3,0.5-0.5,0.6c-0.5,0.3-1.1,0.7-1.4,1.3c-0.5,0.5-0.8,1.2-0.9,1.9
		c-0.1,0.4,0.2,0.8,0.6,0.8l0,0l0.8,0.2c0.3,0.1,0.5,0.3,0.5,0.6c0.1,0.6,0.4,1.2,0.8,1.4c0.1-0.3,0.1-0.6,0.1-0.9
		c-0.1-0.6,0.6-1.2,0.1-1.7l0,0c0-0.5,0-1-0.1-1.6c0-0.2,0.1-0.2,0.2-0.3c0.1-0.1,0.6,0.1,0.8,0.1s0.7,0.1,0.9,0.6
		c0.2,0.3,0.5,0.5,0.8,0.5s0.5,0.1,0.8,0.1c0.4,0.3,0.7,0.6,1.2,0.8c0.5,0.4,0.9,0.9,1.2,1.6c0.1,0.3,0,0.6-0.3,0.8
		c-0.3,0.1-0.6,0.2-0.9,0.3c-0.6,0.1-1.2,0.4-1.6,0.9c-0.1,0.1-0.1,0.1,0,0.1h0.1c0.3-0.1,0.5-0.2,0.6-0.4c0.2-0.1,0.5-0.1,0.6,0
		s0.1,0.1,0.1,0.2c0,0.3,0.1,0.3,0.4,0.3c0.1,0,0.3,0,0.4-0.1c0.3-0.1,0.3,0.1,0.4,0.3c0.1,0.2-0.1,0.2-0.1,0.3
		c-0.5,0.3-0.9,0.6-1.4,1c0,0.1-0.1,0.1-0.2,0l0,0c-0.3-0.2-0.7-0.1-0.8,0.2c-0.3,0.3-0.3,1.2-0.9,1.3l-0.1,0.1
		c-0.5,0.6-0.7,1.4-0.7,2.2c0,0.2-0.1,0.5-0.3,0.6c-0.3,0.2-0.7,0.6-1.2,0.8c-0.6,0.5-0.9,1.4-0.6,2.1c0.1,0.2,0.1,0.5,0.1,0.7
		c0,0.1,0.1,0.3-0.1,0.3s-0.3,0.2-0.5-0.1c-0.3-0.3-0.5-0.7-0.7-1.2c-0.5-0.6-1.4-0.8-2.2-0.6c-0.2,0.1-0.5,0.2-0.8,0.1
		c-0.2-0.1-0.5-0.2-0.8-0.2c-0.4,0-0.8,0-1.2,0.2c-0.6,0.6-0.9,1.6-0.8,2.4c0,0.1-0.1,0.4,0.1,0.5c0.4,0.5,0.9,0.8,1.5,0.9
		c0.2,0.1,0.5,0,0.6-0.2c0.1-0.4,0.6-0.5,0.8-0.6c0.2-0.1,0.7,0.3,0.6,0.6c0,0.4-0.1,0.8-0.3,1.2c-0.1,0.3-0.1,0.6,0.3,0.6
		c0.5,0,0.9,0.1,1.4,0.2c0.6,0.1,0.7,0.5,0.6,1.2c0,0.2-0.1,0.3-0.1,0.5c-0.1,0.2-0.1,0.4,0.1,0.6c0.2,0.3,0.5,0.5,0.8,0.6
		c0.7,0.1,1.7,0.5,2.2-0.4l0.5-0.4c0.5-0.2,0.8-0.6,1.5-0.2c0.4,0.2,0.8,0.2,1.3,0c0.1-0.1,0.2-0.1,0.4-0.1c0.7,0.1,1.5,0,2.2-0.2
		c0.2-0.1,0.5-0.1,0.6,0.1c1.1,0.6,2.2,0.8,3.5,0.6c0.6-0.2,1.3,0.1,1.6,0.7c0.2,0.4,0.7,0.7,1.3,0.5c0.9-0.1,1.8-0.3,2.7-0.6
		c0.4-0.2,1.1-0.2,1.4,0.1c0.1,0.1,0.1,0.2,0.1,0.4c-0.3,0.5-0.6,0.8-0.9,1.4s-0.5,1.2-0.6,1.8c2.5-2.1,4.6-4.7,6.2-7.5
		s2.6-6,2.9-9.2c-0.1,0-0.3,0.1-0.4,0.3c-0.2,0.4-0.5,0.7-0.7,1.2c-0.1,0.1-0.1,0.1-0.2,0.1c-0.8-0.1-1.6-0.6-1.9-1.4
		c-0.9-1.7-1.4-3.6-1.3-5.5c0.2-0.9,0-1.9-0.5-2.7c-0.1-0.1-0.1-0.2-0.1-0.4c-0.2-0.4-0.1-1,0.1-1.5C98.1,64.7,98.1,64.2,97.9,63.9
		L97.9,63.9z M96.5,58.5l0.7,0.3c0.1,0.1,0.3,0.1,0.2,0.3c-0.1,0.2-0.1,0.4-0.3,0.3h-0.4c-0.3-0.1-0.3,0.1-0.2,0.3
		c0.1,0.3,0.2,0.6,0.2,0.9c0,0.5,0.1,0.9,0.4,1.4l0.3,0.6c0.1,0.3,0.3,0.5,0.6,0.6c0.1-0.2,0.1-0.4,0.1-0.6c-0.1-0.6-0.1-1.2,0-1.8
		c0-0.3,0.1-0.5,0.5-0.4c0.1,0,0.2,0.1,0.4,0.1c0.1-0.5-0.1-1-0.4-1.5c-0.1-0.1-0.3-0.4-0.4-0.6c-0.1-0.2-0.1-0.2,0.1-0.2
		c0.1,0,0.3-0.1,0.3-0.3l0,0c0-0.4-0.1-0.8-0.2-1.2c-0.3-0.6-0.7-1.2-1.3-1.6c0.1,0.2,0.1,0.5,0,0.7c-0.1,0.5,0.1,1.2,0.6,1.4
		c0.2,0.1,0.2,0.3,0.2,0.4c0,0.3-0.3,0.6-0.6,0.6h-0.1l0,0C96.9,58.2,96.6,58.3,96.5,58.5L96.5,58.5z"/>
	<path class="st2" d="M85.7,63.3c-0.6,0.2-1.4,0.5-2,0.6c-0.1,0-0.2,0-0.2-0.1l-1.2-0.6c-0.1-0.1-0.1-0.1-0.1-0.2
		c0-0.3-0.2-0.5-0.4-0.6c-0.2-0.1-0.3-0.2-0.3-0.4c0-0.2-0.1-0.5-0.1-0.7c0-0.4-0.2-0.7-0.5-0.8c-0.6-0.6-1.4-1-2.1-1.5
		c-0.5-0.2-0.8-0.6-0.8-1.2c0-0.1-0.1-0.2-0.1-0.3c-0.4,0.3-0.4,0.8-0.6,1.3s-0.1,0.4-0.5,0.1c-0.2-0.1-0.3-0.2-0.5-0.3
		c-0.3-0.2-0.4-0.7-0.2-1.2c0.2-0.2,0.2-0.5,0.1-0.8c-0.1-0.1-0.1-0.1,0.1-0.2c0.4-0.3,0.9-0.4,1.4-0.3c0.1,0,0.1,0,0.1,0.1
		c0,0.1,0.3,0.4,0.6,0.1c0.4-0.6,1.4-0.6,2.3-0.6c0.1,0,0.2,0.1,0.4,0.1c0.5,0.3,1.1,0.5,1.7,0.7c0.5,0.2,1.1,0.5,1.5,0.9l0.4,0.4
		c0.4,0.3,0.6,0.7,0.5,1.3c0,0.2-0.1,0.3-0.3,0.4c-0.2,0.2-0.3,0.4-0.3,0.6c0,0.7-0.1,1.4-0.1,2.1c0,0.3,0.2,0.6,0.5,0.7L85.7,63.3
		L85.7,63.3z"/>
	<path class="st2" d="M91.7,59.8c0.1,0.5,0.8,0.6,0.8,1.3c-0.6,0-1.2-0.3-1.4-0.8c-0.2-0.7-0.5-1.4-0.8-2c0-0.1-0.1-0.1,0-0.2
		s0.3-0.3,0.5-0.1c0.5,0.5,1.3,0.8,1.9,1.2c0.2,0.1,0.3,0.2,0.5,0.2c0.3,0.1,0.5,0.5,0.4,0.8l0,0c0,0.1,0,0.1-0.1,0.1
		c-0.1,0.5-0.1,0.5-0.5,0.3C92.7,60.2,92.2,60,91.7,59.8z"/>
	<path class="st2" d="M87.8,58.7c-0.1,0.6-0.4,1.3-0.8,1.7c-0.1,0.1-0.6-0.1-0.7-0.2c-0.3-0.4-0.4-0.8-0.4-1.3v-0.1
		c0.5-0.1,0.7-0.7,1.4-0.7C87.2,58.1,87.8,58.5,87.8,58.7z"/>
	<path class="st2" d="M74.7,82.2c0.3-0.2,0.7-0.3,1.2-0.2c0.8,0.3,1.7,0.5,2.4,0.6c0.2,0,0.4,0.1,0.6,0.2c0.1,0.1,0.2,0,0.2,0.1
		c0,0.2-0.1,0.3-0.2,0.4c-0.4,0.1-0.9,0.1-1.4-0.1c-0.7-0.5-1.6-0.8-2.4-0.8L75,82.3L74.7,82.2L74.7,82.2z"/>
	<path class="st2" d="M84.7,70.1c-0.7,0.1-0.8-0.5-1.4-0.8c-0.1-0.1-0.1-0.2-0.1-0.3c-0.1-0.2,0-0.5,0.1-0.7
		c0.1-0.1,0.2,0.1,0.4,0.3c0.2,0.2,0.7,0.6,1.2,0.8l0.1,0.1c0.2,0.1,0.5,0.4,0.4,0.6S84.8,70.1,84.7,70.1z"/>
	<path class="st2" d="M81.8,83.8c-0.7,0.2-1.5,0.2-2.2,0c-0.2-0.1-0.2-0.3-0.2-0.4c0-0.1,0.1-0.2,0.2-0.2c0.2-0.1,0.6-0.1,0.8-0.1
		S81,83,81,83.4c0,0.1,0.1,0.1,0.1,0.1L81.8,83.8z"/>
</g>
<line class="st3" x1="17.9" y1="97.1" x2="139.9" y2="96.8"/>
<text transform="matrix(1.26 0 0 1 14.6406 88.75)" class="st4 st5 st6">I</text>
<text transform="matrix(1.26 0 0 1 14.6406 88.75)" class="st7 st5 st6">I</text>
<text transform="matrix(1.26 0 0 1 44.8105 87.75)" class="st4 st5 st6">T</text>
<text transform="matrix(1.26 0 0 1 44.8105 87.75)" class="st7 st5 st6">T</text>
<polyline class="st8" points="93,89.9 93,88.4 93,86.3 93,66.8 96.8,66.8 99.1,66.8 112.2,86.3 116.9,86.3 130.1,66.8 136.3,66.8 
	136.3,89.9 "/>
<path class="st4" d="M25.4,60.1c-7,1.8-7,1.8-7,1.8c22-13.7,42.6-29.6,60.7-49.7C97,32.6,116.3,49,137.3,61.1l-8.4-1.6
	c-17.1-10.5-32-19.6-49.5-30.4C79.4,29.1,32.4,58.3,25.4,60.1z"/>
<text transform="matrix(1.05 0 0 1 17.8535 127.9134)" class="st9 st10 st11 st12">MARQUEES</text>
<path d="M16.7,66.9"/>
</svg>
